<?xml version="1.0" encoding="UTF-8"?>
<svg id="_Слой_1" data-name="Слой 1" xmlns="http://www.w3.org/2000/svg" viewBox="0 0 24.44 24.11">
  <defs>
    <style>
      .cls-1 {
        fill: #f9f9f9;
      }
    </style>
  </defs>
  <path class="cls-1" d="M21.61,2.96c-1.86-1.81-4.5-2.26-9.01-2.26h-.09c-4.52,0-7.15.46-9.01,2.26-1.9,1.92-2.33,4.56-2.33,9.06v.13c0,4.5.44,7.13,2.33,9.06,1.84,1.81,4.49,2.26,9.01,2.26h.09c4.52,0,7.15-.46,9.01-2.26,1.9-1.92,2.33-4.56,2.33-9.06v-.13c0-4.5-.44-7.13-2.33-9.06ZM21.23,11.92v.36c0,.09-.07.16-.16.16-3.11.12-5.01.51-6.33,1.84-1.33,1.33-1.72,3.22-1.84,6.32,0,.09-.08.16-.16.16h-.36c-.09,0-.16-.07-.16-.16-.12-3.11-.52-5-1.84-6.32-1.33-1.33-3.22-1.72-6.33-1.84-.09,0-.16-.08-.16-.16v-.36c0-.09.07-.16.16-.16,3.11-.12,5.01-.51,6.33-1.84,1.33-1.33,1.72-3.23,1.84-6.34,0-.09.08-.16.16-.16h.36c.09,0,.16.07.16.16.12,3.12.51,5.02,1.84,6.34,1.33,1.33,3.22,1.72,6.33,1.84.09,0,.16.08.16.16h0Z"/>
</svg>