<?xml version="1.0" encoding="UTF-8"?>
<svg version="1.1" xmlns="http://www.w3.org/2000/svg" width="3119" height="3125">
<path d="M0 0 C31.35 0 62.7 0 95 0 C95 2.31 95 4.62 95 7 C96.98 7 98.96 7 101 7 C101 9.97 101 12.94 101 16 C102.98 16 104.96 16 107 16 C108.55174987 21.70530896 109.51606059 27.21166035 110.06640625 33.09375 C110.14967667 33.96261841 110.23294708 34.83148682 110.31874084 35.72668457 C111.24834901 45.96946549 111.60562135 56.22363205 111.9375 66.5 C112.01587282 68.77475069 112.09458268 71.0494898 112.17358398 73.32421875 C113.17000331 102.52838978 114.00383969 131.73870536 114.85228729 160.94747162 C114.97652582 165.21963816 115.10192168 169.49177041 115.22739792 173.76390076 C115.2853974 175.75042468 115.34281219 177.73696579 115.39955521 179.723526 C115.55609781 185.20360339 115.72638474 190.68296336 115.91087723 196.16217041 C116.00745071 199.23724389 116.08300798 202.31255261 116.15963745 205.38818359 C116.2241332 207.49188356 116.2893112 209.59556273 116.35522461 211.69921875 C116.37511979 212.68549759 116.39501497 213.67177643 116.41551304 214.6879425 C116.4474573 215.60133896 116.47940157 216.51473541 116.51231384 217.45581055 C116.53414702 218.26245651 116.55598021 219.06910248 116.578475 219.90019226 C117.09527472 222.47460669 118.09081835 223.26846718 120 225 C120.49661255 227.3190918 120.49661255 227.3190918 120.66064453 230.01171875 C120.7251178 230.99317871 120.78959106 231.97463867 120.85601807 232.98583984 C120.9035321 233.9805127 120.95104614 234.97518555 121 236 C121.04445251 236.89025879 121.08890503 237.78051758 121.13470459 238.69775391 C121.25257453 241.40230812 121.34370838 244.10675463 121.4296875 246.8125 C121.5032135 248.81382765 121.57745226 250.81512923 121.65234375 252.81640625 C121.76649249 255.9280713 121.87624639 259.03963289 121.97412109 262.15185547 C122.07126771 265.18519924 122.18640263 268.21741684 122.3046875 271.25 C122.32981415 272.18432861 122.3549408 273.11865723 122.38082886 274.08129883 C122.43570969 275.37910278 122.43570969 275.37910278 122.49169922 276.703125 C122.53047684 277.84249512 122.53047684 277.84249512 122.57003784 279.00488281 C123.10527981 281.48852104 124.15446098 282.31707958 126 284 C126.50830078 286.18212891 126.50830078 286.18212891 126.6953125 288.7265625 C126.80830688 290.13856934 126.80830688 290.13856934 126.92358398 291.57910156 C126.99005127 292.58424805 127.05651855 293.58939453 127.125 294.625 C127.20500244 295.65592773 127.28500488 296.68685547 127.36743164 297.74902344 C127.72410084 302.46803125 128.02285636 307.18651893 128.23828125 311.9140625 C128.27356934 312.65317871 128.30885742 313.39229492 128.34521484 314.15380859 C128.43121098 316.10714944 128.49575049 318.06140226 128.55859375 320.015625 C128.78197317 323.20530903 129.56278177 325.98921172 130.50927734 329.03930664 C132.13817108 334.90599666 132.38955506 340.29666472 132.29296875 346.35546875 C132.28872391 347.38311844 132.28447906 348.41076813 132.28010559 349.46955872 C132.2634907 352.70915421 132.22587183 355.94809677 132.1875 359.1875 C132.17243091 361.40168364 132.15874643 363.61587716 132.14648438 365.83007812 C132.11364389 371.22026986 132.06362005 376.61008826 132 382 C133.98 382 135.96 382 138 382 C138 392.23 138 402.46 138 413 C140.31 413 142.62 413 145 413 C145 425.21 145 437.42 145 450 C146.98 450 148.96 450 151 450 C151 459.57 151 469.14 151 479 C152.98 479 154.96 479 157 479 C158.72031343 484.37111433 159.68290181 489.74075942 160.59765625 495.30175781 C163.31655744 511.77271718 167.14895789 527.81715435 172.55859375 543.62109375 C175.56578595 552.44988841 176.65639015 559.66467347 176 569 C177.98 569 179.96 569 182 569 C184.19263863 574.83019579 185.27356391 580.83924398 186.4375 586.9375 C186.65559326 588.0723584 186.87368652 589.2072168 187.09838867 590.37646484 C189.18862101 601.52798205 190.69959227 612.73195893 192 624 C193.98 624.33 195.96 624.66 198 625 C198.33 630.28 198.66 635.56 199 641 C201.0728125 641.680625 201.0728125 641.680625 203.1875 642.375 C208.0650923 644.59068862 210.07775417 647.12222528 212.203125 651.984375 C213.68766531 657.60234126 213.37325947 663.24350951 213 669 C215.31 669 217.62 669 220 669 C220.99 676.26 221.98 683.52 223 691 C224.98 691 226.96 691 229 691 C229 695.29 229 699.58 229 704 C230.98 704 232.96 704 235 704 C235 707.96 235 711.92 235 716 C237.31 716 239.62 716 242 716 C242 720.29 242 724.58 242 729 C243.98 729 245.96 729 248 729 C248 732.96 248 736.92 248 741 C249.98 741 251.96 741 254 741 C254 742.98 254 744.96 254 747 C254.86625 746.79375 255.7325 746.5875 256.625 746.375 C260 747 260 747 261.48828125 748.69921875 C263.14742885 751.4048368 264.58589575 754.15789367 266 757 C266.31179199 757.60489258 266.62358398 758.20978516 266.94482422 758.83300781 C267.94234233 760.77484308 268.91308397 762.72780651 269.875 764.6875 C270.1855835 765.30439697 270.49616699 765.92129395 270.81616211 766.55688477 C272.84778467 770.86194868 273.30350157 774.27144557 273 779 C274.98 779 276.96 779 279 779 C279 780.98 279 782.96 279 785 C280.98 785 282.96 785 285 785 C285 787.97 285 790.94 285 794 C287.31 794 289.62 794 292 794 C292 795.98 292 797.96 292 800 C293.98 800 295.96 800 298 800 C299.00380916 802.79035046 300.0031945 805.58214855 301 808.375 C301.28617188 809.1690625 301.57234375 809.963125 301.8671875 810.78125 C302.13789062 811.54179688 302.40859375 812.30234375 302.6875 813.0859375 C302.93886719 813.7876709 303.19023438 814.4894043 303.44921875 815.21240234 C304 817 304 817 304 819 C305.98 819 307.96 819 310 819 C310 820.98 310 822.96 310 825 C312.31 825 314.62 825 317 825 C317 827.31 317 829.62 317 832 C318.98 832 320.96 832 323 832 C323.061875 833.36125 323.061875 833.36125 323.125 834.75 C323.6781558 838.2590323 323.6781558 838.2590323 326.9375 839.875 C330.23265836 842.16143641 330.49509771 842.58909268 331.375 846.25 C331.684375 848.10625 331.684375 848.10625 332 850 C333.98 850 335.96 850 338 850 C338 852.31 338 854.62 338 857 C340.31 857 342.62 857 345 857 C345 858.98 345 860.96 345 863 C346.98 863 348.96 863 351 863 C351 864.98 351 866.96 351 869 C352.98 869 354.96 869 357 869 C357 870.98 357 872.96 357 875 C358.98 875 360.96 875 363 875 C363 877.31 363 879.62 363 882 C365.31 882 367.62 882 370 882 C370 883.98 370 885.96 370 888 C375.94 889.485 375.94 889.485 382 891 C382 892.98 382 894.96 382 897 C383.98 897 385.96 897 388 897 C388 899.31 388 901.62 388 904 C390.31 904 392.62 904 395 904 C395.05470459 904.92377441 395.10940918 905.84754883 395.16577148 906.79931641 C395.68599035 910.13525037 395.68599035 910.13525037 398.31665039 911.78271484 C399.31688232 912.25402832 400.31711426 912.7253418 401.34765625 913.2109375 C402.42724609 913.73300781 403.50683594 914.25507812 404.61914062 914.79296875 C405.75544922 915.31503906 406.89175781 915.83710937 408.0625 916.375 C409.20267578 916.92027344 410.34285156 917.46554687 411.51757812 918.02734375 C414.33621886 919.3718 417.16305257 920.69473186 420 922 C420 924.31 420 926.62 420 929 C422.97 929 425.94 929 429 929 C429 930.98 429 932.96 429 935 C433.95 936.485 433.95 936.485 439 938 C439.66 940.97 440.32 943.94 441 947 C442.03898437 947.18175781 443.07796875 947.36351562 444.1484375 947.55078125 C451.9240555 948.94154978 459.50010625 950.4579687 467 953 C467 955.31 467 957.62 467 960 C468.98 960 470.96 960 473 960 C473 961.98 473 963.96 473 966 C476.96 966 480.92 966 485 966 C485 967.98 485 969.96 485 972 C489.29 972 493.58 972 498 972 C498 974.31 498 976.62 498 979 C499.14597656 979.12375 500.29195312 979.2475 501.47265625 979.375 C505.88971479 979.92798419 510.13065143 980.89218061 514.4375 982 C515.15615234 982.17789063 515.87480469 982.35578125 516.61523438 982.5390625 C521.86850111 983.86850111 521.86850111 983.86850111 523 985 C523.04080783 986.99958364 523.04254356 989.00045254 523 991 C523.804375 991.02126953 523.804375 991.02126953 524.625 991.04296875 C547.31462119 992.42375162 569.20789382 1005.78007608 589 1016 C589 1017.98 589 1019.96 589 1022 C604.345 1023.485 604.345 1023.485 620 1025 C620.33 1026.98 620.66 1028.96 621 1031 C621.85980469 1030.96519531 622.71960937 1030.93039062 623.60546875 1030.89453125 C636.64650094 1030.59588166 646.92587416 1033.42481026 658.8984375 1038.38720703 C674.14735003 1044.5140497 690.56892163 1047.5061443 706.5625 1051 C708.88357622 1051.51251078 711.20454039 1052.02552932 713.52539062 1052.5390625 C725.89338522 1055.26750625 738.27333829 1057.92578015 750.68690491 1060.43969727 C751.62159103 1060.63104248 752.55627716 1060.8223877 753.51928711 1061.01953125 C754.7498307 1061.26860229 754.7498307 1061.26860229 756.00523376 1061.52270508 C758 1062 758 1062 760 1063 C760 1064.98 760 1066.96 760 1069 C760.99854004 1068.98428955 761.99708008 1068.9685791 763.02587891 1068.95239258 C766.74942887 1068.89787381 770.4729439 1068.86357066 774.19677734 1068.83520508 C775.80491072 1068.82016824 777.41300344 1068.79973328 779.02099609 1068.77368164 C781.33962064 1068.73707178 783.65770049 1068.72022278 785.9765625 1068.70703125 C787.04567368 1068.68380547 787.04567368 1068.68380547 788.13638306 1068.66011047 C792.93238282 1068.65851292 795.80448599 1069.82505877 800 1072 C803.66314936 1072.67610393 803.66314936 1072.67610393 807.5859375 1072.94921875 C808.28772125 1073.01156204 808.989505 1073.07390533 809.71255493 1073.13813782 C811.9325611 1073.33272675 814.15353962 1073.51037119 816.375 1073.6875 C817.8894194 1073.81723796 819.40374411 1073.94808641 820.91796875 1074.08007812 C824.61097168 1074.39956517 828.3050412 1074.70388279 832 1075 C832 1077.31 832 1079.62 832 1082 C844.54 1082 857.08 1082 870 1082 C870 1083.98 870 1085.96 870 1088 C870.69491043 1087.99555878 871.38982086 1087.99111755 872.10578918 1087.98654175 C878.65352038 1087.9464736 885.20121738 1087.91601999 891.74904346 1087.89637566 C895.11538229 1087.8859368 898.48161985 1087.87177591 901.84790039 1087.84912109 C905.71763815 1087.82492189 909.58723176 1087.81352808 913.45703125 1087.8046875 C914.66647903 1087.79436493 915.87592682 1087.78404236 917.12202454 1087.77340698 C918.24296005 1087.77325592 919.36389557 1087.77310486 920.51879883 1087.77294922 C921.50697098 1087.768508 922.49514313 1087.76406677 923.51325989 1087.75949097 C926 1088 926 1088 929 1090 C932.40839435 1090.8677544 935.74431644 1091.18888158 939.24926758 1091.38891602 C940.26994827 1091.44890274 941.29062897 1091.50888947 942.34223938 1091.57069397 C943.97687386 1091.66138405 943.97687386 1091.66138405 945.64453125 1091.75390625 C946.7694548 1091.81907944 947.89437836 1091.88425262 949.0533905 1091.95140076 C952.63957932 1092.15840794 956.2260251 1092.36051611 959.8125 1092.5625 C962.24676334 1092.70215095 964.6810084 1092.84212114 967.11523438 1092.98242188 C973.07661577 1093.32531657 979.03821547 1093.66419149 985 1094 C985 1095.98 985 1097.96 985 1100 C985.8363649 1099.99333817 986.6727298 1099.98667633 987.53443909 1099.97981262 C995.43479683 1099.91958233 1003.33507693 1099.87396515 1011.23561192 1099.84456348 C1015.29690446 1099.82893937 1019.35800652 1099.80776107 1023.41918945 1099.77368164 C1027.34197284 1099.74097138 1031.26457354 1099.72312252 1035.18748283 1099.71536827 C1036.68054007 1099.70984561 1038.17358785 1099.69906127 1039.66656685 1099.68280983 C1041.76563882 1099.66087952 1043.8639658 1099.65803944 1045.96313477 1099.65942383 C1047.15560318 1099.65276199 1048.34807159 1099.64610016 1049.57667542 1099.63923645 C1053 1100 1053 1100 1056.29707336 1101.50198364 C1061.10697382 1103.44782548 1065.15078477 1103.38470054 1070.28369141 1103.30883789 C1071.80007454 1103.30467613 1071.80007454 1103.30467613 1073.34709167 1103.3004303 C1075.53616417 1103.29238342 1077.72521981 1103.27734137 1079.91420364 1103.25605965 C1083.39870378 1103.22219814 1086.88288101 1103.20658494 1090.36752319 1103.19541931 C1096.53103998 1103.17264153 1102.69433052 1103.13364544 1108.85772705 1103.0894165 C1118.67065674 1103.01930484 1128.48356039 1102.96349043 1138.29667282 1102.92706108 C1141.69340942 1102.91061926 1145.08984732 1102.88102864 1148.48648071 1102.85035706 C1174.28561564 1102.68840816 1197.93440611 1104.28960408 1220 1119 C1220.30220683 1121.80368673 1220.40936443 1124.38747285 1220.38818359 1127.1940918 C1220.39344055 1128.04145401 1220.39869751 1128.88881622 1220.40411377 1129.76185608 C1220.41735981 1132.57449572 1220.40855562 1135.38657292 1220.3984375 1138.19921875 C1220.40045786 1140.15257374 1220.40336897 1142.10592799 1220.40713501 1144.0592804 C1220.41156537 1148.16093093 1220.40510794 1152.26238584 1220.39111328 1156.36401367 C1220.37407745 1161.6119619 1220.38382245 1166.85944796 1220.40183067 1172.10737896 C1220.41269757 1176.14552762 1220.40920786 1180.18356772 1220.4014473 1184.22171974 C1220.39945038 1186.15574002 1220.40188665 1188.08977027 1220.40888596 1190.02377892 C1220.41654185 1192.73576092 1220.40483596 1195.44700796 1220.38818359 1198.15893555 C1220.39425629 1198.95349152 1220.40032898 1199.74804749 1220.40658569 1200.56668091 C1220.34783701 1205.7556233 1219.32689317 1209.35258943 1217 1214 C1213.7 1214 1210.4 1214 1207 1214 C1207 1215.98 1207 1217.96 1207 1220 C1201.2040271 1222.09468494 1195.60435477 1223.65629828 1189.5 1224.5 C1188.63890625 1224.62036621 1187.7778125 1224.74073242 1186.890625 1224.86474609 C1176.96143155 1226.14737753 1166.98096293 1226.88062244 1157 1227.625 C1156.17959229 1227.68743896 1155.35918457 1227.74987793 1154.51391602 1227.81420898 C1131.87345098 1229.51342858 1109.25095758 1230.09608917 1086.5546875 1229.9921875 C1085.67227638 1229.98838703 1084.78986526 1229.98458656 1083.88071442 1229.98067093 C1075.66711994 1229.94385162 1067.45362581 1229.89749166 1059.24023438 1229.82861328 C1054.68754544 1229.79107469 1050.13497741 1229.76800005 1045.58215714 1229.75430679 C1043.86529178 1229.74627303 1042.14844279 1229.73269321 1040.43166733 1229.71337509 C1038.05959224 1229.68702489 1035.68812067 1229.67901828 1033.31591797 1229.67529297 C1032.61485428 1229.6629361 1031.91379059 1229.65057922 1031.19148254 1229.6378479 C1027.40680799 1229.60731669 1027.40680799 1229.60731669 1024.25924683 1231.48852539 C1023.84369537 1231.98731201 1023.42814392 1232.48609863 1023 1233 C1020.3367613 1233.39081357 1017.87858159 1233.60492276 1015.203125 1233.6953125 C1014.42508514 1233.73281616 1013.64704529 1233.77031982 1012.84542847 1233.80895996 C1010.31402402 1233.92775065 1007.78226973 1234.02654769 1005.25 1234.125 C1003.52061367 1234.20235131 1001.79128344 1234.28096727 1000.06201172 1234.36083984 C995.81462012 1234.55404617 991.566755 1234.73171803 987.31848145 1234.90429688 C984.00092088 1235.04124035 980.68410983 1235.19211927 977.3671875 1235.34375 C972.24528589 1235.57628464 967.12304389 1235.79421177 962 1236 C961.67 1236.99 961.34 1237.98 961 1239 C944.17 1239 927.34 1239 910 1239 C910 1240.98 910 1242.96 910 1245 C904.59235947 1245.87449995 899.28332832 1246.23429114 893.8125 1246.4296875 C892.04424589 1246.50330962 890.27601732 1246.5775471 888.5078125 1246.65234375 C885.74983951 1246.76582643 882.99193776 1246.87528885 880.23339844 1246.97412109 C877.55078103 1247.07207916 874.86931816 1247.18707105 872.1875 1247.3046875 C871.37063721 1247.32981415 870.55377441 1247.3549408 869.7121582 1247.38082886 C864.44244823 1247.62874215 860.76141989 1248.74315902 856 1251 C849.87463808 1252.09877626 843.83636921 1252.15200595 837.625 1252.125 C836.30242188 1252.13080078 836.30242188 1252.13080078 834.953125 1252.13671875 C828.91419213 1252.12786401 822.99622585 1251.70857151 817 1251 C817 1253.31 817 1255.62 817 1258 C816.07662842 1258.07516846 815.15325684 1258.15033691 814.2019043 1258.2277832 C810.77356506 1258.51335223 807.34672542 1258.81102086 803.92016602 1259.11694336 C802.4375111 1259.24680739 800.95442531 1259.37184683 799.47094727 1259.49194336 C797.33738409 1259.66551412 795.20597728 1259.85643419 793.07421875 1260.05078125 C791.79119873 1260.16075439 790.50817871 1260.27072754 789.1862793 1260.3840332 C785.71658699 1261.05478898 785.32124242 1261.6132056 783 1264 C780.13671875 1264.56835938 780.13671875 1264.56835938 776.6875 1264.84375 C775.44742188 1264.95589844 774.20734375 1265.06804687 772.9296875 1265.18359375 C770.30989583 1265.39453125 767.69010417 1265.60546875 765.0703125 1265.81640625 C763.83023438 1265.92855469 762.59015625 1266.04070312 761.3125 1266.15625 C760.17425781 1266.24712891 759.03601562 1266.33800781 757.86328125 1266.43164062 C754.67168013 1267.06517127 754.16485089 1267.75905529 752 1270 C749.48583984 1270.58081055 749.48583984 1270.58081055 746.4609375 1270.88671875 C744.77121826 1271.08140747 744.77121826 1271.08140747 743.04736328 1271.2800293 C741.8354834 1271.41449463 740.62360352 1271.54895996 739.375 1271.6875 C727.03312475 1273.22282608 715.78773249 1276.19920125 704.0703125 1280.29296875 C697.29354994 1282.63530528 691.23424913 1283.14082224 684.125 1283.0625 C683.34125 1283.05798828 682.5575 1283.05347656 681.75 1283.04882812 C679.83329986 1283.03714093 677.91663952 1283.01920908 676 1283 C676 1284.98 676 1286.96 676 1289 C674.69687866 1289.2928186 674.69687866 1289.2928186 673.36743164 1289.59155273 C658.54811854 1292.95749352 643.9138645 1296.31904284 629.6875 1301.75 C614.03216996 1307.69450583 598.72115516 1310.53292863 582 1311 C582 1312.98 582 1314.96 582 1317 C577.34893712 1319.69460654 572.68021993 1322.35638486 568 1325 C567.0706665 1325.52835449 567.0706665 1325.52835449 566.12255859 1326.06738281 C551.08562138 1334.56704468 534.61629632 1342 517 1342 C517 1343.98 517 1345.96 517 1348 C512.71 1348 508.42 1348 504 1348 C504 1349.98 504 1351.96 504 1354 C500.04 1354 496.08 1354 492 1354 C492 1356.31 492 1358.62 492 1361 C487.71 1361 483.42 1361 479 1361 C479 1362.98 479 1364.96 479 1367 C476.71462822 1369.45259411 474.71949558 1371.08456581 472 1373 C471.44731445 1373.39300293 470.89462891 1373.78600586 470.32519531 1374.19091797 C468.41511059 1375.53948016 466.49216215 1376.86711678 464.5625 1378.1875 C463.94238037 1378.61579102 463.32226074 1379.04408203 462.68334961 1379.48535156 C456.13786734 1383.85071831 449.97329513 1386.49833095 442 1386 C442 1387.98 442 1389.96 442 1392 C439.69 1392 437.38 1392 435 1392 C435 1393.98 435 1395.96 435 1398 C432.03 1398 429.06 1398 426 1398 C426.165 1399.051875 426.33 1400.10375 426.5 1401.1875 C426 1405 426 1405 424.359375 1406.54296875 C418.44187347 1410.27976138 414.00797904 1411.13476883 407 1411 C407 1412.98 407 1414.96 407 1417 C405.02 1417 403.04 1417 401 1417 C401 1418.98 401 1420.96 401 1423 C399.02 1423 397.04 1423 395 1423 C395.15726563 1424.02609375 395.31453125 1425.0521875 395.4765625 1426.109375 C394.9590277 1430.33449518 394.7861794 1430.67731782 391.7109375 1433.203125 C390.28232807 1434.24211367 388.83607535 1435.25718522 387.375 1436.25 C386.66214844 1436.765625 385.94929688 1437.28125 385.21484375 1437.8125 C374.46606646 1445.46484053 374.46606646 1445.46484053 367.625 1445.1875 C366.75101563 1445.16042969 365.87703125 1445.13335938 364.9765625 1445.10546875 C364.32429688 1445.07066406 363.67203125 1445.03585937 363 1445 C362.87625 1446.216875 362.7525 1447.43375 362.625 1448.6875 C362.21108694 1452.06479059 361.45426549 1454.89756695 360 1458 C358.02 1458 356.04 1458 354 1458 C354.2475 1459.485 354.2475 1459.485 354.5 1461 C354.5 1464.81887333 353.03512968 1466.65975049 350.5 1469.4375 C347.51556868 1472.20342831 345.60860921 1473.5073368 341.5 1473.5 C340.345 1473.335 339.19 1473.17 338 1473 C337.73880371 1473.87325928 337.47760742 1474.74651855 337.20849609 1475.64624023 C336.00359913 1478.99001188 334.55245395 1481.65706432 332.6640625 1484.66015625 C332.01179688 1485.70107422 331.35953125 1486.74199219 330.6875 1487.81445312 C330.006875 1488.88630859 329.32625 1489.95816406 328.625 1491.0625 C327.61566406 1492.67608398 327.61566406 1492.67608398 326.5859375 1494.32226562 C320.04774832 1504.70228448 320.04774832 1504.70228448 317 1508 C313.25 1508.3125 313.25 1508.3125 310 1508 C310 1509.98 310 1511.96 310 1514 C308.02 1514 306.04 1514 304 1514 C304 1515.98 304 1517.96 304 1520 C301.03 1520 298.06 1520 295 1520 C293.515 1529.405 293.515 1529.405 292 1539 C289.69 1539 287.38 1539 285 1539 C285 1540.98 285 1542.96 285 1545 C283.02 1545 281.04 1545 279 1545 C279 1547.97 279 1550.94 279 1554 C277.61361328 1554.01933594 277.61361328 1554.01933594 276.19921875 1554.0390625 C272.69469673 1554.68435165 272.69469673 1554.68435165 271.26953125 1558.1484375 C270.76458523 1559.55050091 270.28026944 1560.96009928 269.8125 1562.375 C267.1952287 1569.49594742 263.98016544 1575.96609589 260.125 1582.5 C259.63620361 1583.33063965 259.14740723 1584.1612793 258.64379883 1585.01708984 C255.19735839 1590.80264161 255.19735839 1590.80264161 254 1592 C252.02 1592 250.04 1592 248 1592 C248 1595.96 248 1599.92 248 1604 C246.02 1604 244.04 1604 242 1604 C242 1606.31 242 1608.62 242 1611 C240.02 1611.33 238.04 1611.66 236 1612 C236.03480469 1612.61746094 236.06960938 1613.23492188 236.10546875 1613.87109375 C236.35042991 1621.53487873 235.10358017 1627.44567488 231.1875 1634.0625 C228.33492412 1636.58906721 226.69967316 1636.1564664 223 1636 C222.97873047 1637.11181641 222.97873047 1637.11181641 222.95703125 1638.24609375 C222.22230393 1654.46966726 215.75675176 1680.24324824 204 1692 C202.02 1692 200.04 1692 198 1692 C198 1697.28 198 1702.56 198 1708 C196.02 1708.33 194.04 1708.66 192 1709 C191.01 1718.9 190.02 1728.8 189 1739 C186.69 1739 184.38 1739 182 1739 C182.33 1739.99 182.66 1740.98 183 1742 C184.30426088 1754.54097 180.56374658 1766.21726123 175.56396484 1777.484375 C172.31087275 1785.08131209 171.07123153 1792.84843816 170 1801 C168.02 1801.33 166.04 1801.66 164 1802 C164.01571045 1802.7113208 164.0314209 1803.4226416 164.04760742 1804.15551758 C164.10991915 1807.37443104 164.14897867 1810.59321768 164.1875 1813.8125 C164.22520508 1815.49182617 164.22520508 1815.49182617 164.26367188 1817.20507812 C164.27333984 1818.27822266 164.28300781 1819.35136719 164.29296875 1820.45703125 C164.3086792 1821.44678955 164.32438965 1822.43654785 164.34057617 1823.45629883 C163.93441288 1826.48985823 163.14202729 1826.95242431 161 1829 C160.25714967 1831.46580945 160.25714967 1831.46580945 159.90234375 1834.25390625 C159.74056641 1835.27291016 159.57878906 1836.29191406 159.41210938 1837.34179688 C159.25548828 1838.40462891 159.09886719 1839.46746094 158.9375 1840.5625 C158.62055887 1842.66907655 158.29667795 1844.7746243 157.96484375 1846.87890625 C157.8268335 1847.8129126 157.68882324 1848.74691895 157.54663086 1849.70922852 C157 1852 157 1852 155 1854 C154.50991674 1856.15552224 154.50991674 1856.15552224 154.2890625 1858.65625 C154.12277344 1860.06777344 154.12277344 1860.06777344 153.953125 1861.5078125 C153.73785348 1863.47088374 153.52677256 1865.43442 153.3203125 1867.3984375 C152.74336118 1872.23696106 151.98546899 1876.39042654 149.99609375 1880.85546875 C147.33846115 1886.98874838 146.97443602 1893.20710593 146.4375 1899.8125 C146.23927907 1902.19498764 146.0300608 1904.57659196 145.80859375 1906.95703125 C145.72407959 1907.99835205 145.63956543 1909.03967285 145.55249023 1910.11254883 C145 1913 145 1913 143.50878906 1915.39599609 C141.56101306 1918.75764316 141.32399887 1921.9141165 141.05078125 1925.70703125 C140.98843796 1926.43242599 140.92609467 1927.15782074 140.86186218 1927.90519714 C140.66679444 1930.20682284 140.48940126 1932.50941405 140.3125 1934.8125 C140.18280782 1936.37965432 140.05196065 1937.94671352 139.91992188 1939.51367188 C139.59990213 1943.34147615 139.29571808 1947.17024479 139 1951 C136.69 1951 134.38 1951 132 1951 C132.03552979 1951.91700684 132.07105957 1952.83401367 132.10766602 1953.77880859 C132.23796297 1957.22656596 132.36206954 1960.67443686 132.48217773 1964.12255859 C132.53509062 1965.60637104 132.59037037 1967.09010126 132.64819336 1968.57373047 C133.48651548 1990.19515145 133.48651548 1990.19515145 130.99658203 1994.89331055 C129.70981632 1997.61342355 129.59474237 1999.91807828 129.40234375 2002.91796875 C129.28439453 2004.6644873 129.28439453 2004.6644873 129.1640625 2006.44628906 C129.05191406 2008.29818848 129.05191406 2008.29818848 128.9375 2010.1875 C128.81181641 2012.0761377 128.81181641 2012.0761377 128.68359375 2014.00292969 C128.32580939 2019.449358 127.99633998 2024.89634482 127.72265625 2030.34765625 C127.68342041 2031.10731689 127.64418457 2031.86697754 127.60375977 2032.6496582 C127.50770055 2034.59412268 127.42513635 2036.53924114 127.34375 2038.484375 C126.84307104 2043.60495526 125.53509737 2048.32869187 123.96899414 2053.22021484 C122.90380746 2057.37522118 122.5757733 2061.19523363 122.40234375 2065.4609375 C122.36315323 2066.25094147 122.32396271 2067.04094543 122.28358459 2067.85488892 C122.16048027 2070.36129352 122.04840015 2072.86802841 121.9375 2075.375 C121.82112822 2077.87469491 121.70234935 2080.37424392 121.58070374 2082.87368774 C121.50595876 2084.42184285 121.43445905 2085.97015968 121.3669281 2087.51864624 C121.26593433 2089.68102071 121.14097557 2091.83987373 121 2094 C120.92762619 2095.15523163 120.92762619 2095.15523163 120.85379028 2096.33380127 C120.54476814 2100.03019078 120.20892006 2102.59823065 118.4765625 2105.9296875 C116.37045359 2110.30905682 116.46900461 2114.31946928 116.375 2119.125 C116.34305542 2120.17114975 116.31111084 2121.2172995 116.27819824 2122.29515076 C116.17246291 2125.86318815 116.08667803 2129.43145257 116 2133 C115.92653995 2135.56913249 115.85161899 2138.13822355 115.77539062 2140.70727539 C115.60169954 2146.62770176 115.43845565 2152.54835222 115.28125 2158.46923828 C114.8060997 2176.35156096 114.30362629 2194.23312382 113.79180908 2212.11443138 C113.59704192 2218.94120213 113.41013757 2225.76812992 113.22956085 2232.59529018 C113.11319063 2236.94548337 112.99093819 2241.29549906 112.86741638 2245.64549446 C112.81117534 2247.66926458 112.75732451 2249.69310295 112.70619202 2251.71700859 C111.80283509 2287.29755366 111.80283509 2287.29755366 107.625 2303 C107.40948486 2303.85811279 107.19396973 2304.71622559 106.97192383 2305.6003418 C105.21798459 2312.47214277 103.23543862 2319.26870718 101 2326 C99.02 2326 97.04 2326 95 2326 C95 2328.31 95 2330.62 95 2333 C64.64 2333 34.28 2333 3 2333 C2.01 2328.71 1.02 2324.42 0 2320 C-2.31 2320 -4.62 2320 -7 2320 C-9.21156335 2313.50422431 -10.46573819 2307.62052829 -10.625 2300.76953125 C-10.6569899 2299.86568192 -10.6889798 2298.96183258 -10.72193909 2298.03059387 C-10.82731022 2294.95817245 -10.91350025 2291.88550649 -11 2288.8125 C-11.07298629 2286.57401816 -11.1471717 2284.33557517 -11.22241211 2282.09716797 C-11.39473423 2276.87800546 -11.55777174 2271.65861987 -11.71435547 2266.43896484 C-12.04721387 2255.35080552 -12.40137138 2244.26332937 -12.75390625 2233.17578125 C-13.18934737 2219.47489554 -13.62087923 2205.77391515 -14.04063988 2192.07253933 C-14.27389256 2184.48237707 -14.51727079 2176.89257631 -14.76683998 2169.30293369 C-14.93176408 2164.25143407 -15.07609182 2159.19996317 -15.20654297 2154.14746094 C-15.2712241 2152.0436017 -15.3364239 2149.93975829 -15.40234375 2147.8359375 C-15.427911 2146.48962753 -15.427911 2146.48962753 -15.45399475 2145.11611938 C-15.37982285 2140.94087236 -15.37982285 2140.94087236 -17.48753357 2137.60731506 C-19.62007994 2135.34103409 -19.48928277 2133.63547579 -19.66064453 2130.56274414 C-19.7251178 2129.48952911 -19.78959106 2128.41631409 -19.85601807 2127.31057739 C-19.9035321 2126.21808685 -19.95104614 2125.12559631 -20 2124 C-20.04445251 2123.01619354 -20.08890503 2122.03238708 -20.13470459 2121.01876831 C-20.25280759 2118.01153695 -20.34383765 2115.0044093 -20.4296875 2111.99609375 C-20.50321256 2109.77015927 -20.57745133 2107.54424827 -20.65234375 2105.31835938 C-20.76651132 2101.85552364 -20.87626354 2098.39278121 -20.97412109 2094.92944336 C-21.07122334 2091.55525886 -21.18637337 2088.18209209 -21.3046875 2084.80859375 C-21.32981415 2083.76803329 -21.3549408 2082.72747284 -21.38082886 2081.65538025 C-21.41741608 2080.69330154 -21.4540033 2079.73122284 -21.49169922 2078.73999023 C-21.53047684 2077.47190773 -21.53047684 2077.47190773 -21.57003784 2076.1782074 C-22.09009865 2073.54355626 -23.04793779 2072.76742807 -25 2071 C-25.50830078 2068.5300293 -25.50830078 2068.5300293 -25.6953125 2065.57421875 C-25.77064209 2064.47754883 -25.84597168 2063.38087891 -25.92358398 2062.25097656 C-25.99005127 2061.0750293 -26.05651855 2059.89908203 -26.125 2058.6875 C-26.20500244 2057.48448242 -26.28500488 2056.28146484 -26.36743164 2055.04199219 C-26.74183203 2049.21901015 -27.03851441 2043.39795609 -27.23828125 2037.56640625 C-27.27356934 2036.5813208 -27.30885742 2035.59623535 -27.34521484 2034.58129883 C-27.40509119 2032.74429887 -27.45178235 2030.90680372 -27.48291016 2029.0690918 C-27.64499371 2023.66752667 -28.74259717 2019.9800719 -31 2015 C-31.49477729 2012.31208069 -31.86991714 2009.76928116 -32.125 2007.0625 C-32.20572754 2006.30541748 -32.28645508 2005.54833496 -32.36962891 2004.76831055 C-32.82919805 2000.09072032 -33.07413413 1995.4325091 -33.203125 1990.734375 C-33.23390137 1989.66952881 -33.26467773 1988.60468262 -33.29638672 1987.50756836 C-33.34780924 1985.41761031 -33.38141331 1983.32711856 -33.39501953 1981.23657227 C-33.41677246 1980.26776123 -33.43852539 1979.2989502 -33.4609375 1978.30078125 C-33.46915527 1977.44653564 -33.47737305 1976.59229004 -33.48583984 1975.7121582 C-34.07308816 1972.61446514 -35.48403016 1970.52837303 -37.10183716 1967.86170959 C-38.61946525 1964.71597405 -38.49325763 1961.50648651 -38.390625 1958.09765625 C-38.38213531 1957.01380898 -38.38213531 1957.01380898 -38.37347412 1955.9080658 C-38.35128257 1953.62550414 -38.30112549 1951.34457802 -38.25 1949.0625 C-38.22991244 1947.50458014 -38.21166564 1945.9466354 -38.1953125 1944.38867188 C-38.1514753 1940.5918285 -38.08257421 1936.79619043 -38 1933 C-39.98 1933 -41.96 1933 -44 1933 C-44.07516846 1931.90010742 -44.15033691 1930.80021484 -44.2277832 1929.66699219 C-44.51061016 1925.58082814 -44.81111733 1921.49612284 -45.11694336 1917.41162109 C-45.24676275 1915.64471598 -45.37180479 1913.87745302 -45.49194336 1912.10986328 C-45.66561703 1909.56693761 -45.85651689 1907.02580034 -46.05078125 1904.484375 C-46.10091873 1903.69569031 -46.15105621 1902.90700562 -46.20271301 1902.09442139 C-46.55022621 1897.79394923 -47.1149011 1895.22538775 -50 1892 C-50.6953125 1888.96875 -50.6953125 1888.96875 -51.125 1885.5 C-51.28484375 1884.26121094 -51.4446875 1883.02242187 -51.609375 1881.74609375 C-52.05836644 1877.44026585 -52.32553248 1873.14321209 -52.4609375 1868.81640625 C-53.05569563 1865.70901052 -54.40218049 1863.67572183 -56.03320312 1861.00561523 C-57.88622881 1857.16152281 -58.10509495 1852.94953095 -58.5625 1848.75 C-58.76041297 1846.97261387 -58.96958612 1845.19643603 -59.19140625 1843.421875 C-59.31817749 1842.25543457 -59.31817749 1842.25543457 -59.44750977 1841.06542969 C-59.83062182 1838.91280299 -59.83062182 1838.91280299 -61.49780273 1837.57714844 C-63.65690529 1835.31031884 -63.56700636 1833.42718446 -63.84375 1830.34375 C-63.95589844 1829.23902344 -64.06804687 1828.13429688 -64.18359375 1826.99609375 C-64.39453125 1824.66536458 -64.60546875 1822.33463542 -64.81640625 1820.00390625 C-64.92855469 1818.89917969 -65.04070312 1817.79445313 -65.15625 1816.65625 C-65.29256836 1815.13741211 -65.29256836 1815.13741211 -65.43164062 1813.58789062 C-66.07468422 1810.65994296 -66.91932369 1810.02244649 -69 1808 C-69.34057617 1805.9152832 -69.34057617 1805.9152832 -69.29296875 1803.55078125 C-69.28330078 1802.70322266 -69.27363281 1801.85566406 -69.26367188 1800.98242188 C-69.23853516 1800.10134766 -69.21339844 1799.22027344 -69.1875 1798.3125 C-69.17396484 1797.41982422 -69.16042969 1796.52714844 -69.14648438 1795.60742188 C-69.11114079 1793.40433834 -69.06180493 1791.20247418 -69 1789 C-70.98 1789 -72.96 1789 -75 1789 C-79.95779564 1773.8618764 -81.2791088 1760.83167137 -81 1745 C-83.31 1745 -85.62 1745 -88 1745 C-88.20753906 1743.77667969 -88.41507813 1742.55335937 -88.62890625 1741.29296875 C-92.08390254 1721.95313261 -99.17319628 1705.27007826 -107.78540039 1687.73461914 C-111.30516034 1680.56262537 -114.71396692 1673.36662849 -117.8125 1666 C-118.1314624 1665.24783203 -118.4504248 1664.49566406 -118.77905273 1663.72070312 C-121.13727891 1658.01040314 -122.1366188 1653.33936071 -122.0625 1647.1875 C-122.05347656 1646.21167969 -122.04445313 1645.23585938 -122.03515625 1644.23046875 C-122.01775391 1643.12638672 -122.01775391 1643.12638672 -122 1642 C-123.98 1642 -125.96 1642 -128 1642 C-128 1637.71 -128 1633.42 -128 1629 C-129.98 1629 -131.96 1629 -134 1629 C-134 1625.04 -134 1621.08 -134 1617 C-136.31 1617 -138.62 1617 -141 1617 C-141 1612.71 -141 1608.42 -141 1604 C-142.98 1604 -144.96 1604 -147 1604 C-147 1602.02 -147 1600.04 -147 1598 C-148.98 1598 -150.96 1598 -153 1598 C-153 1594.04 -153 1590.08 -153 1586 C-154.98 1586 -156.96 1586 -159 1586 C-161.70071112 1579.72019113 -163.70024676 1573.71539173 -165 1567 C-167.31 1567 -169.62 1567 -172 1567 C-172 1562.71 -172 1558.42 -172 1554 C-173.2375 1553.855625 -174.475 1553.71125 -175.75 1553.5625 C-178.62481941 1553.2271044 -181.16071698 1552.70982076 -184 1552 C-184 1547.71 -184 1543.42 -184 1539 C-186.31 1539 -188.62 1539 -191 1539 C-191 1536.69 -191 1534.38 -191 1532 C-191.928125 1531.82597656 -192.85625 1531.65195313 -193.8125 1531.47265625 C-197 1530 -197 1530 -198.6875 1526.55859375 C-199.38364726 1524.49215661 -200.00786628 1522.41120624 -200.6328125 1520.32226562 C-201.34952898 1518.03763109 -201.34952898 1518.03763109 -203 1515 C-206.08117065 1513.90627966 -206.08117065 1513.90627966 -209 1514 C-209 1512.02 -209 1510.04 -209 1508 C-211.31 1508 -213.62 1508 -216 1508 C-216 1505.69 -216 1503.38 -216 1501 C-217.98 1501 -219.96 1501 -222 1501 C-222.061875 1499.63875 -222.061875 1499.63875 -222.125 1498.25 C-222.6781558 1494.7409677 -222.6781558 1494.7409677 -225.9375 1493.125 C-229.23265836 1490.83856359 -229.49509771 1490.41090732 -230.375 1486.75 C-230.58125 1485.5125 -230.7875 1484.275 -231 1483 C-232.98 1483 -234.96 1483 -237 1483 C-237 1480.69 -237 1478.38 -237 1476 C-239.31 1476 -241.62 1476 -244 1476 C-244 1474.02 -244 1472.04 -244 1470 C-245.98 1470 -247.96 1470 -250 1470 C-250 1468.02 -250 1466.04 -250 1464 C-251.98 1464 -253.96 1464 -256 1464 C-256 1462.02 -256 1460.04 -256 1458 C-257.98 1458 -259.96 1458 -262 1458 C-262 1455.69 -262 1453.38 -262 1451 C-264.31 1451 -266.62 1451 -269 1451 C-269 1449.02 -269 1447.04 -269 1445 C-274.94 1443.515 -274.94 1443.515 -281 1442 C-281 1440.02 -281 1438.04 -281 1436 C-282.98 1436 -284.96 1436 -287 1436 C-287 1433.69 -287 1431.38 -287 1429 C-289.31 1429 -291.62 1429 -294 1429 C-294.05470459 1428.07622559 -294.10940918 1427.15245117 -294.16577148 1426.20068359 C-294.68599035 1422.86474963 -294.68599035 1422.86474963 -297.31665039 1421.21728516 C-298.31688232 1420.74597168 -299.31711426 1420.2746582 -300.34765625 1419.7890625 C-301.42724609 1419.26699219 -302.50683594 1418.74492188 -303.61914062 1418.20703125 C-304.75544922 1417.68496094 -305.89175781 1417.16289063 -307.0625 1416.625 C-308.20267578 1416.07972656 -309.34285156 1415.53445313 -310.51757812 1414.97265625 C-313.33621886 1413.6282 -316.16305257 1412.30526814 -319 1411 C-319 1408.69 -319 1406.38 -319 1404 C-319.9075 1403.938125 -320.815 1403.87625 -321.75 1403.8125 C-327.41188722 1402.98705032 -333.10715042 1400.94016454 -338 1398 C-339.88683414 1394.46708504 -340.44889008 1390.94962107 -341 1387 C-344.96 1386.67 -348.92 1386.34 -353 1386 C-353 1383.69 -353 1381.38 -353 1379 C-355.97 1379 -358.94 1379 -362 1379 C-362 1377.02 -362 1375.04 -362 1373 C-365.3 1373 -368.6 1373 -372 1373 C-372 1371.02 -372 1369.04 -372 1367 C-375.96 1367 -379.92 1367 -384 1367 C-384 1365.02 -384 1363.04 -384 1361 C-387.3 1361 -390.6 1361 -394 1361 C-394 1358.69 -394 1356.38 -394 1354 C-396.97 1354 -399.94 1354 -403 1354 C-403 1352.02 -403 1350.04 -403 1348 C-407.29 1348 -411.58 1348 -416 1348 C-416 1346.02 -416 1344.04 -416 1342 C-416.70382812 1341.97421875 -417.40765625 1341.9484375 -418.1328125 1341.921875 C-435.47816828 1340.92553603 -449.92936515 1333.80409517 -465.06640625 1325.8828125 C-474.52661729 1320.95428256 -484.1004667 1317.26003879 -494.22851562 1313.92382812 C-497.17818052 1312.94060649 -500.11248844 1311.91849976 -503.046875 1310.890625 C-513.37925053 1307.30605608 -523.42445574 1304.14862275 -534.24609375 1302.47265625 C-537 1302 -537 1302 -538 1301 C-538.04080783 1299.00041636 -538.04254356 1296.99954746 -538 1295 C-538.85722656 1295.17917969 -539.71445312 1295.35835937 -540.59765625 1295.54296875 C-550.79314275 1296.91251171 -565.6984122 1293.6507939 -575 1289 C-575 1287.02 -575 1285.04 -575 1283 C-576.17433594 1283.04640625 -577.34867188 1283.0928125 -578.55859375 1283.140625 C-591.56161171 1283.49584665 -602.68687693 1281.55683774 -615.06640625 1277.76171875 C-616.44006771 1277.34102676 -617.81376591 1276.92045473 -619.1875 1276.5 C-619.86876953 1276.28915771 -620.55003906 1276.07831543 -621.25195312 1275.86108398 C-628.19984819 1273.78835909 -635.27189251 1272.56391008 -642.42651367 1271.43164062 C-643.30927979 1271.28662109 -644.1920459 1271.14160156 -645.1015625 1270.9921875 C-646.26679443 1270.81212158 -646.26679443 1270.81212158 -647.45556641 1270.62841797 C-650 1270 -650 1270 -653.33959961 1268.49731445 C-657.19376981 1266.92073699 -660.32873415 1266.41118914 -664.46484375 1266.05078125 C-665.14301651 1265.98843796 -665.82118927 1265.92609467 -666.51991272 1265.86186218 C-668.65830177 1265.66778578 -670.79766765 1265.48987417 -672.9375 1265.3125 C-674.39918415 1265.18271295 -675.86077436 1265.05186319 -677.32226562 1264.91992188 C-680.88050875 1264.60100219 -684.43981451 1264.29654969 -688 1264 C-688 1262.02 -688 1260.04 -688 1258 C-698.23 1258 -708.46 1258 -719 1258 C-719 1255.69 -719 1253.38 -719 1251 C-731.21 1251 -743.42 1251 -756 1251 C-756 1249.02 -756 1247.04 -756 1245 C-756.63449066 1245.00444122 -757.26898132 1245.00888245 -757.92269897 1245.01345825 C-764.50833898 1245.0576008 -771.09393717 1245.08782852 -777.6796875 1245.10986328 C-780.13966579 1245.11993983 -782.59963206 1245.13360131 -785.05957031 1245.15087891 C-788.58922285 1245.17505461 -792.11871747 1245.1864664 -795.6484375 1245.1953125 C-797.30629776 1245.21079636 -797.30629776 1245.21079636 -798.99765015 1245.22659302 C-800.01855743 1245.22674408 -801.03946472 1245.22689514 -802.09130859 1245.22705078 C-802.99287689 1245.231492 -803.89444519 1245.23593323 -804.82333374 1245.24050903 C-807 1245 -807 1245 -809 1243 C-813.95265614 1242.05639762 -818.92573627 1241.7689095 -823.953125 1241.53515625 C-825.47527194 1241.45660324 -826.99740701 1241.37781986 -828.51953125 1241.29882812 C-830.87992045 1241.17980664 -833.24036578 1241.0629592 -835.60107422 1240.95043945 C-855.86972184 1239.97243584 -855.86972184 1239.97243584 -865.19750977 1236.97119141 C-869.74008718 1235.81097484 -873.9996574 1235.56546522 -878.66796875 1235.40234375 C-880.04206657 1235.34355797 -880.04206657 1235.34355797 -881.44392395 1235.28358459 C-884.35818543 1235.16025871 -887.27273911 1235.04833384 -890.1875 1234.9375 C-897.45926497 1234.64507303 -904.73017769 1234.33738923 -912 1234 C-913.28600098 1233.94215332 -914.57200195 1233.88430664 -915.89697266 1233.82470703 C-917.48904541 1233.72778564 -917.48904541 1233.72778564 -919.11328125 1233.62890625 C-920.41906128 1233.55458374 -920.41906128 1233.55458374 -921.7512207 1233.47875977 C-924 1233 -924 1233 -925.74867249 1231.48937988 C-928.73976489 1229.51060388 -930.69980432 1229.65067434 -934.27001953 1229.69116211 C-935.55170013 1229.69774338 -936.83338074 1229.70432465 -938.15390015 1229.71110535 C-939.56353873 1229.7331121 -940.97317615 1229.75519381 -942.3828125 1229.77734375 C-943.85453153 1229.7889104 -945.32626396 1229.79887093 -946.79800415 1229.80732727 C-949.93702142 1229.82727204 -953.07582468 1229.85511856 -956.21472168 1229.88903809 C-964.46322332 1229.97530345 -972.71205101 1229.99366321 -980.9609375 1230.01171875 C-981.78410965 1230.01382481 -982.6072818 1230.01593086 -983.45539856 1230.01810074 C-1013.86158739 1230.08678421 -1044.14852205 1228.71898084 -1074.4375 1226.0625 C-1075.3608313 1225.98318237 -1076.2841626 1225.90386475 -1077.23547363 1225.82214355 C-1099.29847647 1223.88616313 -1099.29847647 1223.88616313 -1105 1221 C-1105.74259349 1218.68970915 -1106.411438 1216.354248 -1107 1214 C-1109.27144836 1213.08071049 -1111.38433606 1212.63253229 -1113.80859375 1212.2890625 C-1117.02538704 1210.39683115 -1117.30527442 1207.95349908 -1118.38627052 1204.49179268 C-1119.30906246 1200.74518071 -1119.39629455 1197.2012796 -1119.34057617 1193.35913086 C-1119.34123329 1192.14283997 -1119.34123329 1192.14283997 -1119.34190369 1190.90197754 C-1119.33983507 1188.25601019 -1119.31659659 1185.61069863 -1119.29296875 1182.96484375 C-1119.28736592 1181.11682989 -1119.28309907 1179.26881155 -1119.28010559 1177.42079163 C-1119.26871092 1172.58252423 -1119.23929062 1167.74453169 -1119.20599365 1162.90637207 C-1119.1751762 1157.95910356 -1119.16157541 1153.01179018 -1119.14648438 1148.06445312 C-1119.11441529 1138.37618205 -1119.06328474 1128.68811398 -1119 1119 C-1116.75676041 1117.86584574 -1114.51221815 1116.73440974 -1112.2668457 1115.60449219 C-1111.63488533 1115.28463348 -1111.00292496 1114.96477478 -1110.35181427 1114.63522339 C-1088.76757645 1103.79099413 -1064.54526175 1102.81377751 -1040.85893059 1102.98596573 C-1037.66047364 1103.00819029 -1034.46207753 1103.02213492 -1031.26356506 1103.03366089 C-1022.17896299 1103.06708731 -1013.09446382 1103.10924561 -1004.01000977 1103.17138672 C-998.43301715 1103.20895121 -992.85612424 1103.23202493 -987.27902412 1103.24569321 C-985.15745804 1103.25375543 -983.03590562 1103.26737545 -980.91441154 1103.28662491 C-977.96096124 1103.31299241 -975.00799638 1103.32098598 -972.05444336 1103.32470703 C-971.17706009 1103.3370639 -970.29967682 1103.34942078 -969.39570618 1103.3621521 C-965.01833346 1103.54192961 -965.01833346 1103.54192961 -961.3758955 1101.50474548 C-960.92184999 1101.00817947 -960.46780447 1100.51161346 -960 1100 C-958.02316284 1099.57003784 -958.02316284 1099.57003784 -955.74169922 1099.49169922 C-954.88085724 1099.45506668 -954.02001526 1099.41843414 -953.13308716 1099.38069153 C-952.19971527 1099.3556102 -951.26634338 1099.33052887 -950.3046875 1099.3046875 C-949.33207977 1099.26731979 -948.35947205 1099.22995209 -947.35739136 1099.19145203 C-945.27490963 1099.11340167 -943.19217005 1099.04200162 -941.10925293 1098.97659302 C-937.87723647 1098.87507025 -934.64628209 1098.75613528 -931.41503906 1098.63256836 C-922.4212336 1098.29440435 -913.42652795 1098.00514698 -904.4296875 1097.76171875 C-903.26711426 1097.72643066 -902.10454102 1097.69114258 -900.90673828 1097.65478516 C-898.86119898 1097.59498517 -896.81521879 1097.54826009 -894.76904297 1097.51708984 C-893.45250732 1097.47962646 -893.45250732 1097.47962646 -892.109375 1097.44140625 C-891.37686523 1097.42795166 -890.64435547 1097.41449707 -889.88964844 1097.40063477 C-887.88864964 1097.1650992 -887.88864964 1097.1650992 -886.61401367 1095.51586914 C-884.24417085 1093.29013112 -882.2726687 1093.48927954 -879.06640625 1093.3046875 C-877.27033936 1093.19169312 -877.27033936 1093.19169312 -875.43798828 1093.07641602 C-873.51962158 1092.97671509 -873.51962158 1092.97671509 -871.5625 1092.875 C-870.26038574 1092.79499756 -868.95827148 1092.71499512 -867.61669922 1092.63256836 C-861.70618811 1092.27767562 -855.796053 1091.97910763 -849.87890625 1091.76171875 C-848.98034912 1091.72643066 -848.08179199 1091.69114258 -847.15600586 1091.65478516 C-845.52314535 1091.59524804 -843.88974896 1091.54840573 -842.25610352 1091.51708984 C-837.19863961 1091.34444214 -833.6671764 1090.09754709 -829 1088 C-823.54014582 1087.00640722 -818.12470576 1086.76270454 -812.59375 1086.5703125 C-810.77992361 1086.49669015 -808.9661221 1086.42245268 -807.15234375 1086.34765625 C-804.32193837 1086.2341649 -801.49160224 1086.12470684 -798.66064453 1086.02587891 C-795.90854302 1085.92794785 -793.15757071 1085.81294579 -790.40625 1085.6953125 C-789.14814514 1085.65762253 -789.14814514 1085.65762253 -787.86462402 1085.61917114 C-782.52730736 1085.37437905 -778.82349132 1084.27642096 -774 1082 C-767.39527033 1080.51239668 -760.35714559 1080.84821427 -753.625 1080.875 C-752.17867187 1080.86919922 -752.17867187 1080.86919922 -750.703125 1080.86328125 C-744.08589406 1080.87215153 -737.57853482 1081.29406581 -731 1082 C-731 1079.69 -731 1077.38 -731 1075 C-730.07662842 1074.92483154 -729.15325684 1074.84966309 -728.2019043 1074.7722168 C-724.77356506 1074.48664777 -721.34672542 1074.18897914 -717.92016602 1073.88305664 C-716.4375111 1073.75319261 -714.95442531 1073.62815317 -713.47094727 1073.50805664 C-711.33738409 1073.33448588 -709.20597728 1073.14356581 -707.07421875 1072.94921875 C-705.79119873 1072.83924561 -704.50817871 1072.72927246 -703.1862793 1072.6159668 C-699.83004222 1071.96714401 -699.13548115 1071.47598511 -697 1069 C-694.32579732 1068.4769142 -691.82464345 1068.11934513 -689.125 1067.875 C-688.37065674 1067.79499756 -687.61631348 1067.71499512 -686.83911133 1067.63256836 C-681.11616616 1067.04329055 -675.38561296 1066.66959539 -669.63671875 1066.44140625 C-666.60534419 1065.93393169 -665.38039169 1064.87372197 -663 1063 C-660.73046875 1062.33984375 -660.73046875 1062.33984375 -658.1875 1061.9375 C-657.23230469 1061.78023437 -656.27710938 1061.62296875 -655.29296875 1061.4609375 C-652.88292282 1061.12358825 -650.4679149 1060.82118097 -648.05078125 1060.5390625 C-647.37958252 1060.45922119 -646.70838379 1060.37937988 -646.0168457 1060.29711914 C-644.07525813 1060.07125476 -642.13138607 1059.86529996 -640.1875 1059.66015625 C-636.69776524 1058.93740481 -636.35663812 1058.39252601 -634 1056 C-631.43489182 1055.17529131 -628.99574351 1054.51121844 -626.375 1053.9375 C-625.62226807 1053.76831055 -624.86953613 1053.59912109 -624.09399414 1053.42480469 C-610.75272136 1050.54485436 -597.62054289 1049.67002722 -584 1050 C-584 1048.02 -584 1046.04 -584 1044 C-582.89116455 1043.72961914 -581.7823291 1043.45923828 -580.63989258 1043.18066406 C-543.16457828 1034.00063584 -505.16615057 1024.1842037 -470.51831055 1006.79492188 C-461.45124918 1002.24625624 -454.36622809 999.40764411 -444 1000 C-444 998.02 -444 996.04 -444 994 C-436.74 993.01 -429.48 992.02 -422 991 C-422 989.02 -422 987.04 -422 985 C-417.71 985 -413.42 985 -409 985 C-409 983.02 -409 981.04 -409 979 C-405.04 979 -401.08 979 -397 979 C-397.165 977.948125 -397.33 976.89625 -397.5 975.8125 C-397 972 -397 972 -395.32421875 970.45703125 C-390.91252718 967.70678111 -387.08692605 965.851034 -381.8125 965.9375 C-380.554375 965.958125 -379.29625 965.97875 -378 966 C-378 964.02 -378 962.04 -378 960 C-374.04 960 -370.08 960 -366 960 C-366 958.02 -366 956.04 -366 954 C-362.7 954 -359.4 954 -356 954 C-356 951.69 -356 949.38 -356 947 C-353.03 947 -350.06 947 -347 947 C-347 945.02 -347 943.04 -347 941 C-345.27398621 940.18082358 -343.5440353 939.36993984 -341.8125 938.5625 C-340.84957031 938.11003906 -339.88664062 937.65757812 -338.89453125 937.19140625 C-336.23368414 936.09618578 -333.83215245 935.45045204 -331 935 C-331.20625 933.989375 -331.4125 932.97875 -331.625 931.9375 C-331 928 -331 928 -329.3359375 926.29296875 C-326.6347686 924.36420768 -323.86697701 922.67412207 -321 921 C-320.05205566 920.42983154 -320.05205566 920.42983154 -319.08496094 919.84814453 C-317.02454508 918.61080485 -314.95303548 917.39499398 -312.875 916.1875 C-312.21886719 915.80223145 -311.56273437 915.41696289 -310.88671875 915.02001953 C-306.33486488 912.4567625 -302.11438372 911.07641261 -297 910 C-297 907.69 -297 905.38 -297 903 C-295.92878906 902.63648438 -294.85757813 902.27296875 -293.75390625 901.8984375 C-292.35629993 901.39192246 -290.95918932 900.88403817 -289.5625 900.375 C-288.85544922 900.13910156 -288.14839844 899.90320312 -287.41992188 899.66015625 C-285.09027347 898.85043253 -285.09027347 898.85043253 -282 897 C-281.67 895.02 -281.34 893.04 -281 891 C-275.06 889.515 -275.06 889.515 -269 888 C-269 886.02 -269 884.04 -269 882 C-266.69 882 -264.38 882 -262 882 C-261.814375 880.1746875 -261.814375 880.1746875 -261.625 878.3125 C-261.21108694 874.93520941 -260.45426549 872.10243305 -259 869 C-257.02 869 -255.04 869 -253 869 C-253 867.02 -253 865.04 -253 863 C-241.26213592 857 -241.26213592 857 -237 857 C-237 854.69 -237 852.38 -237 850 C-235.02 850 -233.04 850 -231 850 C-230.86722656 849.30132813 -230.73445313 848.60265625 -230.59765625 847.8828125 C-230.42105469 846.97273438 -230.24445312 846.06265625 -230.0625 845.125 C-229.88847656 844.22007812 -229.71445313 843.31515625 -229.53515625 842.3828125 C-229 840 -229 840 -228 838 C-226.02 838 -224.04 838 -222 838 C-222 836.02 -222 834.04 -222 832 C-220.02 831.67 -218.04 831.34 -216 831 C-215.773125 829.865625 -215.54625 828.73125 -215.3125 827.5625 C-212.51037274 816.7326568 -204.78945618 807.78945618 -197 800 C-195.02 800 -193.04 800 -191 800 C-191 796.04 -191 792.08 -191 788 C-188.69 788 -186.38 788 -184 788 C-184 786.02 -184 784.04 -184 782 C-182.02 782 -180.04 782 -178 782 C-177.84217041 781.39559082 -177.68434082 780.79118164 -177.52172852 780.16845703 C-175.69920508 773.6164569 -173.15899062 767.85076364 -169.9375 761.875 C-169.45506836 760.97499268 -168.97263672 760.07498535 -168.47558594 759.14770508 C-166.9998854 756.42257488 -165.50315761 753.71006521 -164 751 C-163.5457666 750.16807129 -163.0915332 749.33614258 -162.62353516 748.47900391 C-161.36343147 746.19556019 -160.06622462 743.93895717 -158.75 741.6875 C-158.37480225 741.00606934 -157.99960449 740.32463867 -157.61303711 739.62255859 C-156.484375 737.76171875 -156.484375 737.76171875 -154 735 C-150.203125 734.58203125 -150.203125 734.58203125 -147 735 C-147 730.71 -147 726.42 -147 722 C-144.69 722 -142.38 722 -140 722 C-139.83757812 720.54207031 -139.83757812 720.54207031 -139.671875 719.0546875 C-139.0277118 714.57482524 -137.69541331 710.4034595 -136.25 706.125 C-135.85337158 704.93898193 -135.85337158 704.93898193 -135.44873047 703.72900391 C-133.50773882 698.09188094 -131.18581768 693.05982807 -128 688 C-126.02 688 -124.04 688 -122 688 C-120.515 675.625 -120.515 675.625 -119 663 C-116.69 663 -114.38 663 -112 663 C-111.96132812 662.16082031 -111.96132812 662.16082031 -111.921875 661.3046875 C-110.59861592 642.59861592 -110.59861592 642.59861592 -106 638 C-104.00041636 637.95919217 -101.99954746 637.95745644 -100 638 C-99.96003906 637.02546875 -99.92007813 636.0509375 -99.87890625 635.046875 C-99.14311242 623.74650142 -96.21560371 613.70833619 -92.58764648 603.01464844 C-89.80716176 594.74867007 -87.58280846 586.49495831 -85.625 578 C-83.40141733 568.50999638 -80.46276722 559.7302137 -76.6875 550.75 C-67.26785508 528.11422401 -61.46979575 503.30413883 -58.17602539 479.02636719 C-57.66037131 475.30301564 -57.24707502 472.47302705 -55.4921875 469.11328125 C-52.82282344 463.54395362 -52.84188054 457.29568416 -52.27148438 451.20507812 C-51.71926653 446.03252873 -50.96094509 441.52484178 -49 436.69140625 C-46.30865462 429.84748814 -45.96870246 422.90496934 -45.4375 415.625 C-45.24282194 412.96960405 -45.03038091 410.31753998 -44.80859375 407.6640625 C-44.72407959 406.50342285 -44.63956543 405.3427832 -44.55249023 404.14697266 C-44 401 -44 401 -42.50878906 398.56518555 C-40.54451479 395.22560143 -40.32310263 392.07344151 -40.05078125 388.29296875 C-39.98843796 387.56757401 -39.92609467 386.84217926 -39.86186218 386.09480286 C-39.66679444 383.79317716 -39.48940126 381.49058595 -39.3125 379.1875 C-39.18280782 377.62034568 -39.05196065 376.05328648 -38.91992188 374.48632812 C-38.59990213 370.65852385 -38.29571808 366.82975521 -38 363 C-35.69 363 -33.38 363 -31 363 C-31.03552979 362.02764404 -31.07105957 361.05528809 -31.10766602 360.0534668 C-31.2394853 356.39516033 -31.36211515 352.73659045 -31.48217773 349.07788086 C-31.53506698 347.50390342 -31.59034386 345.93000411 -31.64819336 344.35620117 C-32.50709367 320.86714487 -32.50709367 320.86714487 -29.99658203 316.09106445 C-28.67938176 313.32726721 -28.59163277 310.95029589 -28.40234375 307.8984375 C-28.28439453 306.09197754 -28.28439453 306.09197754 -28.1640625 304.24902344 C-28.05191406 302.33138184 -28.05191406 302.33138184 -27.9375 300.375 C-27.81181641 298.41868652 -27.81181641 298.41868652 -27.68359375 296.42285156 C-27.27328099 289.94600058 -26.91622133 283.46824636 -26.60791016 276.98583984 C-26.2471918 269.51195132 -25.77962347 262.45686959 -22.97094727 255.42285156 C-21.65125812 250.77059062 -21.55336807 246.2997785 -21.40234375 241.484375 C-21.34355797 239.96786346 -21.34355797 239.96786346 -21.28358459 238.42071533 C-21.15994147 235.19738986 -21.04810867 231.9737968 -20.9375 228.75 C-20.82134331 225.54059782 -20.70262892 222.33131958 -20.58070374 219.12213135 C-20.50564586 217.12987991 -20.43415952 215.1374894 -20.3669281 213.1449585 C-19.75120346 196.22515987 -19.75120346 196.22515987 -17.4765625 192.51538086 C-15.11393556 188.49055524 -15.46226965 184.34259114 -15.375 179.75390625 C-15.34310074 178.683647 -15.31120148 177.61338776 -15.27833557 176.51069641 C-15.20946754 174.13204243 -15.14732556 171.75318703 -15.09085083 169.37420654 C-14.99825739 165.48938785 -14.88773254 161.60542163 -14.77319336 157.72119141 C-14.46510182 147.14119067 -14.19482214 136.5602178 -13.92215729 125.97925568 C-13.57266536 112.4181069 -13.2169996 98.85717725 -12.84362221 85.29666233 C-12.65397395 78.37456915 -12.47783668 71.45229639 -12.31169224 64.5296011 C-12.20367747 60.14160981 -12.08437839 55.75397416 -11.96229362 51.36635399 C-11.90739237 49.30943987 -11.85714659 47.25239537 -11.81192207 45.19524574 C-11.40668857 26.95936142 -8.66217707 17.32435414 0 0 Z " fill="#000000" transform="translate(1509,396)"/>
<path d="M0 0 C0.66 0 1.32 0 2 0 C1.67 0.99 1.34 1.98 1 3 C0.88027381 5.59994859 0.81472759 8.17516735 0.79467773 10.77612305 C0.78477814 11.56660034 0.77487854 12.35707764 0.76467896 13.17150879 C0.73308607 15.78488162 0.70831526 18.39827263 0.68359375 21.01171875 C0.66302231 22.82347588 0.64202579 24.63522823 0.62062073 26.44697571 C0.56541965 31.21611664 0.51600169 35.98530074 0.46777344 40.7545166 C0.4175441 45.62088871 0.36186551 50.4871981 0.30664062 55.35351562 C0.19908306 64.90229018 0.09763272 74.45111918 0 84 C-0.33 84 -0.66 84 -1 84 C-1.02312312 73.19541915 -1.04091493 62.39084414 -1.05181217 51.58624363 C-1.05704107 46.5697753 -1.06413883 41.55332385 -1.07543945 36.53686523 C-1.0862681 31.69990306 -1.09227679 26.86295716 -1.09487724 22.02598381 C-1.09673153 20.17631715 -1.10035222 18.32665143 -1.10573006 16.47699165 C-1.1129402 13.89552986 -1.11399095 11.31413618 -1.11352539 8.73266602 C-1.11712067 7.96014999 -1.12071594 7.18763397 -1.12442017 6.39170837 C-1.11405216 1.11405216 -1.11405216 1.11405216 0 0 Z " fill="#4F4F4F" transform="translate(391,1514)"/>
<path d="M0 0 C2.31 0 4.62 0 7 0 C7 0.33 7 0.66 7 1 C5.02 1 3.04 1 1 1 C1 4.96 1 8.92 1 13 C0.13375 13.20625 -0.7325 13.4125 -1.625 13.625 C-5.92117706 15.37529436 -7.89010473 17.59392423 -11 21 C-11.66 20.67 -12.32 20.34 -13 20 C-11.98094797 18.64930382 -10.93365675 17.31988374 -9.875 16 C-9.29492188 15.2575 -8.71484375 14.515 -8.1171875 13.75 C-6 12 -6 12 0 12 C0 8.04 0 4.08 0 0 Z " fill="#6A6A6A" transform="translate(1318,1184)"/>
<path d="M0 0 C0.99 0.33 1.98 0.66 3 1 C2.34 1.66 1.68 2.32 1 3 C0.35232207 5.57061311 0.35232207 5.57061311 0 8 C-3.3 8 -6.6 8 -10 8 C-10 7.67 -10 7.34 -10 7 C-7.03 7 -4.06 7 -1 7 C-1.020625 6.030625 -1.04125 5.06125 -1.0625 4.0625 C-1 1 -1 1 0 0 Z " fill="#5A5A5A" transform="translate(1163,1336)"/>
<path d="M0 0 C0.99 0.33 1.98 0.66 3 1 C0.69 3.31 -1.62 5.62 -4 8 C-4.66 7.67 -5.32 7.34 -6 7 C-4.02 4.69 -2.04 2.38 0 0 Z " fill="#363636" transform="translate(1311,1197)"/>
<path d="M0 0 C0.66 0.33 1.32 0.66 2 1 C0.7934375 2.0828125 0.7934375 2.0828125 -0.4375 3.1875 C-3.02292072 6.02515689 -3.68042813 7.27166147 -4 11 C-4.33 11 -4.66 11 -5 11 C-5.3125 7.75 -5.3125 7.75 -5 4 C-2.5 1.5625 -2.5 1.5625 0 0 Z " fill="#363636" transform="translate(1183,1320)"/>
<path d="M0 0 C0.66 0.33 1.32 0.66 2 1 C1.360625 1.556875 0.72125 2.11375 0.0625 2.6875 C-2.19680987 5.22066561 -2.63149047 6.68341424 -3 10 C-3.33 10 -3.66 10 -4 10 C-4.25 6.6875 -4.25 6.6875 -4 3 C-2 1.0625 -2 1.0625 0 0 Z " fill="#4E4E4E" transform="translate(1116,1365)"/>
</svg>
