<?xml version="1.0" encoding="UTF-8"?>
<svg id="_Слой_1" data-name="Слой 1" xmlns="http://www.w3.org/2000/svg" viewBox="0 0 26.07 26.44">
  <defs>
    <style>
      .cls-1 {
        fill: #f9f9f9;
      }
    </style>
  </defs>
  <path class="cls-1" d="M8.07,1.07c3.15-.15,6.83-.11,9.98.04,4.58.23,7.25,2.49,7.46,7.22.18,3.8.22,7.69-.06,11.48-.36,2.76-1.89,4.94-4.57,5.83-.98.32-1.75.35-2.76.44-3.33.28-6.94.11-10.29,0-4.7-.16-7.04-2.83-7.28-7.4-.17-3.1-.19-6.77-.06-9.89C.68,3.83,3.09,1.31,8.07,1.07ZM9.15,3.3c-1.47.06-3.4.12-4.59,1.07-1.7,1.36-1.71,3.16-1.8,5.17-.13,3-.25,6.8.06,9.77.51,5,4.74,4.49,8.54,4.54,2.02.03,4.04.08,6.06,0,4.01-.16,5.57-1.39,5.79-5.46.17-3.1.19-6.38,0-9.48-.11-1.71-.16-3.16-1.57-4.37-1.17-1.01-2.32-1.04-3.77-1.14-2.79-.2-5.92-.2-8.72-.1Z"/>
  <path class="cls-1" d="M17.54,8.96c3.42,3.36,2.11,9.23-2.44,10.75-5.08,1.69-9.91-3.08-8.23-8.17,1.49-4.5,7.28-5.91,10.67-2.58ZM16,16.52c2.14-2.19,1.24-6.02-1.71-6.91-3.38-1.03-6.42,2.21-5.17,5.52,1.05,2.79,4.8,3.52,6.88,1.39Z"/>
  <path class="cls-1" d="M19.32,5.41c2.04-.38,2.58,2.24,1,2.88-1.32.54-2.63-.88-1.93-2.16.16-.28.61-.67.93-.73Z"/>
</svg>