<?xml version="1.0" encoding="UTF-8"?>
<svg id="_Слой_1" data-name="Слой 1" xmlns="http://www.w3.org/2000/svg" viewBox="0 0 33.33 26.44">
  <defs>
    <style>
      .cls-1 {
        fill: #f9f9f9;
      }
    </style>
  </defs>
  <path class="cls-1" d="M16.13.2c7.05-.34,12.89,4.78,13.56,11.78.56,5.84-2.83,11.39-8.33,13.42-2.57.95-6.23,1.22-8.71-.08-.46-.24-.89-.6-1.33-.82-.05-.03-.13-.07-.18-.07-.16,0-.55.42-.7.54-1,.77-3.1,1.69-4.32,1.13-.85-.39-.66-1.48-.75-2.26-.21-1.97-.9-3.86-1.3-5.79-.58-2.77-.77-5.88.04-8.62C5.68,4.14,10.65.46,16.13.2ZM21.34,8.54c-3.35-3.39-8.81-2.19-10.5,2.25-.81,2.14-.8,5.81.07,7.93.1.24.37.86.67.85.26-.01.76-.38.98-.54.16-.12.6-.56.77-.57.14,0,.77.38.95.46,3.83,1.75,8.3-.9,8.89-4.99.28-1.99-.43-3.98-1.82-5.39Z"/>
</svg>