<?xml version="1.0" encoding="UTF-8"?>
<svg id="_Слой_1" data-name="Слой 1" xmlns="http://www.w3.org/2000/svg" viewBox="0 0 16.59 29.37">
  <defs>
    <style>
      .cls-1 {
        fill: #f9f9f9;
      }
    </style>
  </defs>
  <path class="cls-1" d="M11.44,21.3c1.49-.34,2.92-.93,4.21-1.74.98-.65,1.24-1.97.59-2.95-.63-.94-1.88-1.22-2.85-.65-2.98,1.87-6.77,1.87-9.76,0-.99-.62-2.3-.33-2.93.66,0,0,0,0,0,0-.62.99-.33,2.3.66,2.93h0c1.29.82,2.72,1.41,4.21,1.74l-4.05,4.05c-.83.81-.84,2.14-.03,2.97l.04.04c.4.41.95.62,1.49.62s1.09-.21,1.49-.62l4-3.98,3.98,3.99c.84.81,2.19.79,3-.05.79-.82.79-2.13,0-2.95l-4.05-4.06ZM8.51,15.39c4,0,7.24-3.25,7.25-7.25,0-4-3.25-7.25-7.25-7.25S1.26,4.15,1.26,8.15c0,4,3.25,7.24,7.25,7.25h0ZM8.51,5.15c1.66,0,3,1.35,3,3,0,1.66-1.34,3-3,3-1.66,0-3-1.34-3-3,0-1.66,1.35-3,3-3h0Z"/>
</svg>