<?xml version="1.0" encoding="UTF-8"?>
<svg id="_Слой_1" data-name="Слой 1" xmlns="http://www.w3.org/2000/svg" viewBox="0 0 33.33 26.44">
  <defs>
    <style>
      .cls-1 {
        fill: #f9f9f9;
      }
    </style>
  </defs>
  <path class="cls-1" d="M27.88,25.81h-5.61l-4.35-6.5h-9.67v6.5H3.2V5.75h18.74c3.81.19,5.23,2.07,5.37,5.75.12,3.03.16,6.52-3.29,7.55-.13.04-.95.2-.95.25l4.81,6.52ZM8.25,14.84h12.87c.16,0,.61-.17.74-.27.23-.17.37-.63.39-.91.05-.55.06-2.31-.12-2.77-.1-.25-.26-.45-.51-.55-.09-.04-.57-.17-.65-.17h-12.73v4.67Z"/>
  <path class="cls-1" d="M28.55.9c3.72-.45,3.89,5.2.32,5.14-3.19-.06-3.35-4.77-.32-5.14Z"/>
</svg>