<?xml version="1.0" standalone="no"?>
<!DOCTYPE svg PUBLIC "-//W3C//DTD SVG 20010904//EN"
 "http://www.w3.org/TR/2001/REC-SVG-20010904/DTD/svg10.dtd">
<svg version="1.0" xmlns="http://www.w3.org/2000/svg"
 width="1600.000000pt" height="1600.000000pt" viewBox="0 0 1600.000000 1600.000000"
 preserveAspectRatio="xMidYMid meet">

<g transform="translate(0.000000,1600.000000) scale(0.100000,-0.100000)"
fill="#000000" stroke="none">
<path d="M13448 14263 c-16 -2 -28 -11 -28 -19 0 -10 -13 -14 -45 -14 -33 0
-45 -4 -45 -15 0 -10 -10 -15 -30 -15 -20 0 -30 -5 -30 -15 0 -10 -10 -15 -30
-15 -18 0 -33 -6 -36 -15 -4 -8 -12 -15 -20 -15 -8 0 -14 -7 -14 -15 0 -9 -9
-15 -21 -15 -22 0 -99 -69 -99 -89 0 -6 -7 -11 -15 -11 -8 0 -15 -7 -15 -15 0
-8 -7 -15 -15 -15 -8 0 -15 -7 -15 -15 0 -8 -6 -15 -14 -15 -8 0 -17 -13 -21
-30 -4 -16 -13 -30 -21 -30 -8 0 -14 -6 -14 -14 0 -7 -7 -19 -15 -26 -9 -7
-15 -29 -15 -51 0 -28 -4 -39 -15 -39 -10 0 -15 -10 -15 -30 0 -20 -5 -30 -15
-30 -11 0 -15 -12 -15 -45 0 -31 -5 -47 -15 -51 -13 -5 -15 -36 -15 -189 0
-150 3 -186 15 -199 8 -8 15 -28 15 -45 0 -21 5 -31 15 -31 10 0 15 -10 15
-34 0 -19 7 -41 15 -50 8 -8 15 -26 15 -40 0 -16 6 -26 15 -26 8 0 15 -9 15
-20 0 -11 7 -20 15 -20 9 0 15 -9 15 -22 0 -23 39 -68 58 -68 6 0 12 -12 14
-27 2 -22 9 -29 31 -31 15 -2 27 -9 27 -18 0 -8 7 -14 15 -14 8 0 15 -6 15
-12 0 -20 83 -88 108 -88 13 0 22 -6 22 -15 0 -10 10 -15 30 -15 20 0 30 -5
30 -15 0 -10 10 -15 29 -15 16 0 31 -6 35 -15 4 -11 21 -15 61 -15 40 0 57 -4
61 -15 5 -13 35 -15 184 -15 149 0 179 2 184 15 4 10 19 15 49 15 24 0 52 7
63 15 10 8 31 15 45 15 15 0 29 7 33 15 3 8 17 15 31 15 14 0 28 7 31 15 4 8
12 15 20 15 8 0 14 7 14 15 0 8 8 15 19 15 20 0 71 43 71 60 0 5 7 10 15 10 9
0 18 7 21 15 4 8 12 15 20 15 8 0 14 7 14 15 0 8 7 15 15 15 8 0 15 6 15 14 0
8 7 16 15 20 8 3 15 17 15 31 0 16 6 25 15 25 8 0 15 6 15 14 0 8 7 16 15 20
9 3 15 18 15 36 0 20 5 30 15 30 10 0 15 10 15 30 0 20 5 30 15 30 10 0 15 10
15 30 0 17 7 33 18 39 15 9 17 32 17 264 0 229 -2 257 -17 274 -10 11 -18 32
-18 46 0 17 -5 27 -15 27 -8 0 -15 9 -15 20 0 11 -7 20 -15 20 -11 0 -15 11
-15 39 0 25 -5 41 -15 45 -8 3 -15 12 -15 21 0 8 -7 15 -15 15 -8 0 -15 7 -15
14 0 26 -104 134 -137 142 -12 4 -23 12 -23 20 0 8 -7 14 -15 14 -8 0 -15 7
-15 15 0 8 -6 15 -14 15 -8 0 -16 7 -20 15 -3 8 -16 15 -30 15 -13 0 -26 7
-30 15 -3 9 -18 15 -36 15 -20 0 -30 5 -30 15 0 11 -11 15 -41 15 -28 0 -46 6
-55 18 -11 15 -35 17 -226 18 -117 1 -225 0 -240 -3z"/>
<path d="M1716 12935 c-8 -8 -30 -15 -50 -15 -19 0 -38 -4 -41 -10 -3 -5 -28
-20 -55 -32 -28 -13 -50 -29 -50 -35 0 -7 -7 -13 -15 -13 -8 0 -15 -7 -15 -15
0 -8 -7 -15 -16 -15 -9 0 -18 -9 -21 -20 -3 -11 -12 -20 -19 -20 -8 0 -14 -7
-14 -15 0 -8 -7 -15 -15 -15 -10 0 -15 -10 -15 -30 0 -20 -5 -30 -15 -30 -10
0 -15 -10 -15 -30 0 -20 -5 -30 -15 -30 -13 0 -15 -569 -15 -5060 0 -4491 2
-5060 15 -5060 10 0 15 -10 15 -30 0 -18 6 -33 15 -36 8 -4 15 -17 15 -30 0
-14 7 -27 15 -30 8 -4 15 -12 15 -20 0 -8 7 -14 15 -14 8 0 15 -7 15 -15 0 -8
9 -15 20 -15 11 0 20 -7 20 -15 0 -8 7 -15 15 -15 8 0 15 -7 15 -15 0 -8 5
-15 10 -15 6 0 19 -9 30 -20 11 -11 28 -20 38 -20 9 0 26 -7 36 -15 17 -13
210 -15 1467 -15 1273 0 1449 2 1463 15 8 8 23 15 34 15 22 0 72 40 72 58 0 7
7 12 15 12 8 0 15 7 15 15 0 8 9 15 20 15 11 0 27 12 37 28 10 15 30 38 45 52
21 18 28 34 28 61 0 24 5 39 15 43 9 3 15 18 15 36 0 20 5 30 15 30 13 0 15
161 15 1390 l0 1390 1981 0 c1346 0 1987 -3 2000 -10 10 -6 19 -17 19 -26 0
-8 7 -17 15 -20 8 -4 15 -12 15 -20 0 -8 7 -14 15 -14 8 0 15 -9 15 -20 0 -11
9 -29 20 -40 11 -11 20 -24 20 -30 0 -5 7 -10 15 -10 9 0 15 -9 15 -25 0 -14
7 -28 15 -31 8 -4 15 -12 15 -20 0 -8 7 -14 15 -14 8 0 15 -6 15 -14 0 -7 7
-19 15 -26 8 -7 15 -19 15 -27 0 -7 14 -27 30 -43 17 -16 30 -37 30 -46 0 -9
16 -32 35 -51 19 -19 35 -43 35 -53 0 -11 7 -20 15 -20 8 0 15 -6 15 -14 0 -8
7 -16 15 -20 8 -3 15 -12 15 -19 0 -8 7 -20 15 -27 8 -7 15 -21 15 -31 0 -11
7 -19 15 -19 8 0 15 -7 15 -15 0 -8 7 -15 15 -15 10 0 15 -10 15 -30 0 -20 5
-30 15 -30 8 0 15 -7 15 -15 0 -8 7 -15 15 -15 8 0 15 -9 15 -20 0 -11 9 -28
20 -37 11 -10 20 -23 20 -30 0 -7 7 -13 15 -13 8 0 15 -9 15 -20 0 -11 7 -23
15 -26 8 -4 15 -15 15 -25 0 -10 7 -19 15 -19 8 0 15 -7 15 -15 0 -8 7 -15 15
-15 10 0 15 -10 15 -30 0 -20 5 -30 15 -30 8 0 15 -7 15 -15 0 -9 7 -18 15
-21 8 -4 15 -14 15 -24 0 -10 16 -35 35 -56 19 -20 35 -43 35 -51 0 -7 7 -16
15 -19 8 -4 15 -12 15 -20 0 -8 7 -14 15 -14 8 0 15 -7 15 -15 0 -9 7 -18 15
-21 9 -4 15 -19 15 -35 0 -19 5 -29 15 -29 8 0 15 -7 15 -15 0 -8 7 -15 15
-15 10 0 15 -10 15 -30 0 -20 5 -30 15 -30 8 0 15 -7 15 -15 0 -8 7 -15 15
-15 8 0 15 -9 15 -20 0 -11 9 -28 20 -37 11 -10 20 -23 20 -30 0 -7 7 -13 15
-13 8 0 15 -7 15 -15 0 -8 7 -15 15 -15 10 0 15 -10 15 -30 0 -20 5 -30 15
-30 8 0 15 -7 15 -15 0 -8 7 -15 15 -15 10 0 15 -10 15 -30 0 -20 5 -30 15
-30 8 0 15 -7 15 -15 0 -9 7 -18 15 -21 8 -4 15 -15 15 -27 0 -11 16 -35 35
-54 19 -19 35 -41 35 -49 0 -8 7 -17 15 -20 8 -4 15 -12 15 -20 0 -8 7 -14 15
-14 8 0 15 -7 15 -15 0 -8 7 -15 15 -15 10 0 15 -10 15 -30 0 -18 6 -33 15
-36 8 -4 15 -12 15 -20 0 -8 7 -14 15 -14 10 0 15 -10 15 -30 0 -20 5 -30 15
-30 8 0 15 -7 15 -15 0 -8 6 -15 14 -15 8 0 17 -12 20 -26 4 -14 20 -38 35
-53 16 -16 32 -38 36 -50 3 -11 11 -21 16 -21 5 0 9 -9 9 -20 0 -11 4 -20 9
-20 10 0 34 -38 47 -73 3 -9 13 -17 20 -17 8 0 14 -7 14 -15 0 -8 7 -15 15
-15 9 0 15 -9 15 -25 0 -15 14 -39 35 -61 19 -19 35 -44 35 -55 0 -10 7 -19
15 -19 8 0 15 -9 15 -20 0 -12 14 -34 30 -50 17 -16 30 -32 30 -35 0 -8 44
-69 53 -73 4 -2 7 -10 7 -17 0 -8 6 -18 13 -22 7 -4 18 -20 24 -35 8 -17 20
-28 32 -28 13 0 21 -9 26 -30 5 -25 11 -30 36 -30 16 0 29 -5 29 -11 0 -18 44
-59 63 -59 10 0 25 -7 33 -15 23 -23 3215 -23 3238 0 8 8 24 15 35 15 11 0 24
6 28 13 4 6 27 25 51 41 23 16 42 33 42 37 0 5 7 9 15 9 9 0 18 12 22 30 3 17
12 30 19 30 8 0 14 7 14 15 0 8 7 15 15 15 10 0 15 10 15 29 0 16 6 31 15 35
22 8 22 437 0 456 -8 7 -15 25 -15 41 0 19 -5 29 -15 29 -8 0 -15 7 -15 15 0
8 -7 15 -15 15 -8 0 -15 8 -15 18 0 10 -16 33 -35 52 -19 19 -35 41 -35 48 0
6 -7 12 -15 12 -8 0 -15 7 -15 15 0 8 -6 15 -14 15 -8 0 -17 11 -20 25 -4 14
-11 25 -16 25 -6 0 -10 9 -10 20 0 11 -7 20 -15 20 -8 0 -15 7 -15 15 0 9 -7
18 -15 21 -8 4 -15 14 -15 23 0 9 -13 31 -30 49 -16 18 -30 37 -30 41 0 14
-36 41 -53 41 -12 0 -17 9 -17 30 0 20 -5 30 -15 30 -8 0 -15 9 -15 20 0 11
-7 20 -15 20 -8 0 -15 7 -15 15 0 8 -7 15 -15 15 -10 0 -15 10 -15 30 0 20 -5
30 -15 30 -8 0 -15 7 -15 15 0 8 -6 15 -14 15 -8 0 -16 10 -20 23 -3 12 -26
44 -51 70 -25 26 -45 52 -45 58 0 5 -7 9 -15 9 -8 0 -15 7 -15 15 0 8 -7 15
-15 15 -10 0 -15 10 -15 30 0 20 -5 30 -15 30 -8 0 -15 7 -15 15 0 8 -7 15
-15 15 -9 0 -15 9 -15 25 0 14 -7 28 -15 31 -8 4 -15 11 -15 17 0 5 -16 25
-35 44 -19 19 -35 40 -35 47 0 8 -7 16 -15 20 -8 3 -15 12 -15 21 0 8 -7 15
-15 15 -8 0 -15 7 -15 15 0 8 -7 15 -15 15 -8 0 -15 7 -15 15 0 8 -7 15 -15
15 -10 0 -15 10 -15 29 0 16 -6 31 -15 35 -8 3 -15 12 -15 21 0 8 -7 15 -15
15 -8 0 -15 7 -15 15 0 8 -7 15 -15 15 -9 0 -15 9 -15 21 0 21 -42 69 -61 69
-5 0 -9 8 -9 18 0 10 -13 32 -30 50 -16 18 -30 40 -30 48 0 8 -7 14 -15 14 -8
0 -15 7 -15 15 0 8 -6 15 -12 15 -7 0 -22 20 -33 45 -11 25 -25 45 -32 45 -7
0 -13 7 -13 15 0 8 -6 15 -14 15 -8 0 -17 13 -21 30 -4 16 -13 30 -21 30 -8 0
-14 7 -14 15 0 9 -7 18 -15 21 -8 4 -15 10 -15 15 0 12 -38 49 -50 49 -5 0
-10 14 -10 30 0 20 -5 30 -15 30 -8 0 -15 7 -15 15 0 8 -7 15 -15 15 -8 0 -15
6 -15 14 0 8 -7 16 -15 20 -8 3 -15 14 -15 24 0 21 -43 72 -60 72 -5 0 -10 8
-10 19 0 10 -7 24 -15 31 -8 7 -15 19 -15 26 0 8 -7 14 -15 14 -8 0 -15 7 -15
15 0 8 -7 15 -15 15 -8 0 -15 7 -15 15 0 8 -4 15 -9 15 -9 0 -28 29 -50 78 -6
12 -15 22 -21 22 -5 0 -10 7 -10 15 0 8 -6 15 -14 15 -8 0 -17 14 -21 30 -4
17 -13 30 -21 30 -8 0 -14 7 -14 15 0 8 -7 15 -15 15 -8 0 -15 6 -15 14 0 8
-7 16 -15 20 -8 3 -15 12 -15 21 0 8 7 15 15 15 8 0 15 7 15 15 0 11 11 15 40
15 27 0 43 5 46 15 4 9 19 15 35 15 17 0 32 6 35 15 4 9 19 15 35 15 19 0 29
5 29 15 0 9 9 15 25 15 14 0 28 7 31 15 4 8 17 15 29 15 13 0 27 5 31 11 3 6
22 17 40 25 19 8 34 19 34 24 0 6 7 10 15 10 8 0 15 7 15 15 0 10 10 15 30 15
20 0 30 5 30 15 0 8 8 15 19 15 10 0 24 7 31 15 7 8 19 15 27 15 7 0 16 7 19
15 4 8 12 15 20 15 8 0 14 6 14 14 0 7 8 17 18 20 41 15 102 66 102 86 0 6 7
10 15 10 8 0 15 7 15 15 0 8 8 15 18 15 21 0 52 29 52 48 0 7 7 12 15 12 8 0
15 6 15 14 0 8 11 17 25 20 15 4 27 16 31 31 3 14 10 25 15 25 15 0 49 39 49
55 0 8 7 15 15 15 8 0 15 7 15 15 0 8 7 15 15 15 8 0 15 7 15 15 0 8 6 15 14
15 8 0 17 13 21 30 4 16 13 30 21 30 8 0 14 6 14 14 0 8 7 16 15 20 8 3 15 16
15 30 0 13 7 26 15 30 8 3 15 12 15 21 0 8 7 15 15 15 10 0 15 10 15 30 0 20
5 30 15 30 8 0 15 6 15 14 0 8 7 16 15 20 9 3 15 18 15 36 0 16 4 30 9 30 5 0
14 13 21 29 6 16 18 32 26 35 8 3 14 15 14 26 0 12 7 28 15 36 8 9 15 31 15
50 0 24 5 34 15 34 8 0 15 8 15 19 0 10 7 24 15 31 10 8 15 30 15 61 0 37 4
49 15 49 10 0 15 10 15 34 0 21 6 36 15 40 11 4 15 21 15 60 0 39 4 55 15 60
11 4 15 21 15 61 0 40 4 55 14 55 8 0 17 16 21 38 4 20 11 42 16 49 6 6 13 51
16 100 4 58 11 91 19 96 10 6 14 30 14 81 0 56 4 75 15 80 12 4 15 33 15 169
0 134 3 167 15 177 13 11 15 132 15 975 0 843 -2 964 -15 975 -12 10 -15 42
-15 171 0 127 -3 161 -15 173 -10 9 -15 34 -15 68 0 29 -6 62 -14 73 -7 11
-16 58 -19 104 -4 46 -11 89 -16 95 -5 6 -12 26 -16 44 -4 18 -13 32 -21 32
-10 0 -14 13 -14 45 0 33 -4 45 -15 45 -12 0 -15 13 -15 60 0 45 -4 62 -15 66
-9 4 -15 19 -15 35 0 19 -5 29 -15 29 -11 0 -15 12 -15 49 0 27 -6 56 -13 63
-7 7 -16 21 -20 31 -3 9 -11 17 -17 17 -5 0 -10 11 -10 25 0 31 -31 94 -47 95
-6 0 -14 14 -18 30 -4 17 -13 30 -21 30 -9 0 -14 11 -14 30 0 18 -6 33 -15 36
-8 4 -15 12 -15 20 0 8 -7 14 -15 14 -10 0 -15 10 -15 29 0 16 -6 36 -13 43
-7 7 -16 21 -20 31 -3 9 -11 17 -16 17 -5 0 -12 11 -15 24 -3 13 -17 31 -31
40 -14 9 -25 22 -25 30 0 16 -45 66 -60 66 -5 0 -10 7 -10 15 0 8 -7 15 -15
15 -10 0 -15 10 -15 30 0 20 -5 30 -15 30 -8 0 -15 7 -15 15 0 8 -7 15 -15 15
-8 0 -15 7 -15 15 0 8 -7 15 -15 15 -8 0 -15 5 -15 11 0 15 -74 89 -89 89 -6
0 -11 7 -11 15 0 8 -7 15 -15 15 -8 0 -15 7 -15 15 0 8 -6 15 -12 15 -7 1 -24
14 -38 30 -14 17 -34 30 -47 30 -13 0 -23 4 -23 9 0 14 -45 61 -59 61 -6 0
-11 4 -11 9 0 5 -13 14 -30 21 -16 7 -30 16 -30 21 0 5 -7 9 -15 9 -8 0 -15 7
-15 15 0 10 -10 15 -30 15 -20 0 -30 5 -30 15 0 8 -7 15 -15 15 -8 0 -15 7
-15 15 0 10 -10 15 -30 15 -20 0 -30 5 -30 15 0 8 -9 15 -19 15 -10 0 -21 7
-25 15 -3 8 -12 15 -19 15 -8 0 -24 9 -37 20 -13 11 -31 20 -40 20 -10 0 -20
7 -24 15 -3 8 -16 15 -30 15 -13 0 -26 7 -30 15 -3 9 -18 15 -36 15 -20 0 -30
5 -30 15 0 10 -10 15 -29 15 -16 0 -34 7 -41 15 -7 8 -28 15 -46 15 -24 0 -34
5 -34 15 0 10 -11 15 -35 15 -24 0 -35 5 -35 15 0 11 -12 15 -45 15 -32 0 -45
4 -45 14 0 10 -17 17 -55 21 -30 4 -60 13 -66 21 -6 8 -30 14 -53 14 -22 0
-50 7 -60 15 -12 9 -42 15 -79 15 -39 0 -63 5 -73 15 -11 11 -37 15 -90 15
-57 0 -76 4 -80 15 -5 12 -27 15 -114 15 -87 0 -109 3 -114 15 -4 13 -34 15
-179 15 -143 0 -177 3 -187 15 -11 13 -556 15 -4791 15 -4233 0 -4779 -2
-4793 -15z m8996 -3216 c2 -5 24 -13 48 -16 25 -4 50 -12 57 -19 10 -10 13
-132 13 -562 l0 -549 -22 -11 c-13 -6 -72 -13 -133 -17 -60 -4 -114 -11 -120
-16 -5 -5 -1112 -9 -2837 -9 l-2828 0 0 605 0 605 2909 0 c2048 0 2910 -3
2913 -11z"/>
</g>
</svg>
