<?xml version="1.0" encoding="UTF-8"?>
<svg id="_Слой_1" data-name="Слой 1" xmlns="http://www.w3.org/2000/svg" viewBox="0 0 28.56 26.44">
  <defs>
    <style>
      .cls-1 {
        fill: #1a171b;
      }
    </style>
  </defs>
  <path class="cls-1" d="M24.79,3.26c.84-.09,1.52.15,1.75,1.01.24.92-.2,3-.35,4.03-.67,4.8-1.54,9.58-2.19,14.39-.95,4.38-3.85,1.82-6.07.34-1.91-1.27-3.84-2.51-5.72-3.82-1.19-1.15-.26-2.08.64-2.95,2.09-2.02,4.75-4.08,6.65-6.22.22-.24.95-1.01.39-1.24-.29-.12-.54.05-.78.19-3.34,1.86-6.48,4.7-9.79,6.67-1.23.73-2.08,1.09-3.54.76-1.02-.23-4.47-1.04-5.16-1.59-.58-.46-.4-1.03.12-1.44,4.84-2.28,9.78-4.41,14.72-6.48,2.65-1.11,5.55-2.44,8.24-3.36.34-.12.74-.26,1.09-.3Z"/>
</svg>