<?xml version="1.0" encoding="UTF-8"?>
<svg id="_Слой_1" data-name="Слой 1" xmlns="http://www.w3.org/2000/svg" viewBox="0 0 33.33 24.67">
  <defs>
    <style>
      .cls-1 {
        fill: #1a171b;
      }
    </style>
  </defs>
  <path class="cls-1" d="M5.84,2.6c.09,3.87.83,8.11,3.28,11.21,1.09,1.38,2.61,2.62,4.36,2.99V2.6h5.29v8.06c.88.02,1.8-.42,2.55-.86,2.52-1.48,4.47-4.43,5.27-7.21h5.29c-.73,4.24-3.54,7.97-7.14,10.21,3.23,1.72,5.93,4.4,7.46,7.74.29.62.62,1.41.79,2.07.05.19.21.45.02.57h-5.63c-.27-.37-.36-.86-.56-1.29-1.51-3.28-4.36-5.74-8.05-6.1v7.27c-.15.19-.49.14-.72.13-2.26-.12-4.48-.35-6.61-1.12C3.27,19.11.28,10.69.21,2.6h5.63Z"/>
</svg>