<?xml version="1.0" encoding="UTF-8"?>
<svg id="_Слой_1" data-name="Слой 1" xmlns="http://www.w3.org/2000/svg" viewBox="0 0 29.78 21.22">
  <defs>
    <style>
      .cls-1 {
        fill: #f9f9f9;
      }
    </style>
  </defs>
  <path class="cls-1" d="M13.46.71c2.69-.03,5.39.02,8.07.15,1.38.07,3.1.09,4.42.42,2.46.62,2.76,2.85,2.97,5.01.27,2.78.27,5.74.02,8.52-.2,2.24-.46,4.61-3.03,5.25-1.47.36-3.37.37-4.9.44-4.39.19-8.82.19-13.21-.04-1.26-.07-2.78-.09-4-.41-2.7-.69-2.84-3.44-3.02-5.77-.21-2.74-.2-5.7.11-8.43.18-1.61.39-3.18,1.87-4.11,1.24-.78,3.59-.78,5.06-.86,1.87-.1,3.75-.15,5.63-.17ZM12.04,6.4v8.54l7.39-4.26-7.39-4.28Z"/>
</svg>