<?xml version="1.0" encoding="UTF-8"?>
<svg id="_Слой_1" data-name="Слой 1" xmlns="http://www.w3.org/2000/svg" viewBox="0 0 258.37 252.18">
  <defs>
    <style>
      .cls-1 {
        fill: #f9f9f9;
      }
    </style>
  </defs>
  <path class="cls-1" d="M66.43,247.86c-7.18,0-30.81-1.6-47-21.46-11.32-13.88-13-29.26-13-37.19v-118.85c.39-6.92,3.24-30.78,23.94-47.14,13.62-10.76,28.5-13,36.16-13.38h.44s59.66-.01,59.66-.01c4.97,0,9,4.03,9,9s-4.03,9-9,9h-59.43c-5.57.3-16.11,1.96-25.67,9.52-14.57,11.51-16.78,28.46-17.1,33.77v118.1c0,5.54,1.16,16.26,8.95,25.81,12.27,15.05,31.62,14.89,33.79,14.83h.21s117.2-.96,117.2-.96c5.79-.33,14.27-1.97,22.14-7.79,15.93-11.77,16.85-31.46,16.87-35.29v-61.51c0-4.97,4.03-9,9-9s9,4.03,9,9v61.57c-.03,5.39-1.35,32.84-24.17,49.71-11.55,8.54-23.82,10.86-32.07,11.3h-.41s-117.31.97-117.31.97c-.32,0-.72.02-1.18.02Z"/>
  <path class="cls-1" d="M124.01,140.71c-2.3,0-4.61-.88-6.36-2.64-3.52-3.51-3.52-9.21,0-12.73L230.52,12.46c3.52-3.52,9.21-3.51,12.73,0,3.52,3.51,3.52,9.21,0,12.73l-112.87,112.88c-1.76,1.76-4.06,2.64-6.36,2.64Z"/>
  <path class="cls-1" d="M239.27,93.69c-4.97,0-9-4.03-9-9V27.82h-64.02c-4.97,0-9-4.03-9-9s4.03-9,9-9h73.02c4.97,0,9,4.03,9,9v65.86c0,4.97-4.03,9-9,9Z"/>
</svg>