<?xml version="1.0" standalone="no"?>
<!DOCTYPE svg PUBLIC "-//W3C//DTD SVG 20010904//EN"
 "http://www.w3.org/TR/2001/REC-SVG-20010904/DTD/svg10.dtd">
<svg version="1.0" xmlns="http://www.w3.org/2000/svg"
 width="1600.000000pt" height="1600.000000pt" viewBox="0 0 1600.000000 1600.000000"
 preserveAspectRatio="xMidYMid meet">

<g transform="translate(0.000000,1600.000000) scale(0.100000,-0.100000)"
fill="#000000" stroke="none">
<path d="M6395 13763 c-119 -3 -151 -7 -158 -18 -7 -13 -76 -15 -487 -15 -420
0 -480 -2 -480 -15 0 -13 -43 -15 -324 -15 -279 0 -325 -2 -330 -15 -5 -13
-47 -15 -300 -15 -249 0 -297 -2 -310 -15 -12 -12 -51 -15 -225 -15 -169 0
-212 -3 -224 -14 -11 -11 -54 -15 -191 -18 -121 -2 -179 -7 -184 -15 -5 -8
-56 -13 -156 -15 -108 -2 -151 -6 -154 -15 -2 -9 -34 -13 -109 -13 -69 0 -116
-5 -136 -14 -18 -8 -72 -17 -122 -20 -64 -4 -93 -10 -101 -21 -9 -11 -32 -15
-98 -15 -68 0 -88 -3 -92 -15 -5 -11 -22 -15 -70 -15 -50 0 -64 -3 -64 -15 0
-12 -13 -15 -60 -15 -47 0 -60 -3 -60 -15 0 -11 -12 -15 -45 -15 -31 0 -47 -5
-51 -15 -4 -10 -20 -15 -45 -15 -26 0 -42 -5 -45 -15 -4 -9 -19 -15 -35 -15
-17 0 -32 -6 -35 -15 -4 -8 -17 -15 -30 -15 -14 0 -27 -6 -30 -14 -3 -8 -20
-17 -39 -20 -18 -4 -38 -13 -45 -21 -7 -8 -19 -15 -26 -15 -8 0 -14 -7 -14
-15 0 -10 -10 -15 -30 -15 -18 0 -33 -6 -36 -15 -4 -8 -17 -15 -30 -15 -14 0
-27 -7 -30 -15 -4 -8 -12 -15 -19 -15 -7 0 -15 -7 -19 -15 -3 -8 -17 -15 -31
-15 -16 0 -25 -6 -25 -15 0 -8 -5 -15 -10 -15 -14 0 -72 -41 -83 -57 -4 -7
-15 -13 -22 -13 -8 0 -15 -7 -15 -15 0 -8 -7 -15 -15 -15 -9 0 -18 -7 -21 -15
-4 -8 -15 -15 -25 -15 -11 0 -22 -7 -25 -15 -4 -8 -12 -15 -20 -15 -8 0 -14
-7 -14 -15 0 -8 -7 -15 -15 -15 -8 0 -15 -7 -15 -15 0 -8 -7 -15 -15 -15 -8 0
-15 -7 -15 -15 0 -8 -5 -15 -12 -15 -13 0 -88 -76 -88 -90 0 -6 -7 -10 -15
-10 -8 0 -15 -7 -15 -15 0 -8 -7 -15 -15 -15 -8 0 -15 -7 -15 -15 0 -8 -7 -15
-15 -15 -8 0 -15 -7 -15 -15 0 -8 -7 -15 -15 -15 -8 0 -15 -7 -15 -15 0 -9 -7
-18 -15 -21 -8 -4 -15 -14 -15 -25 0 -10 -9 -23 -20 -29 -11 -6 -20 -17 -20
-25 0 -8 -7 -15 -15 -15 -8 0 -15 -6 -15 -14 0 -8 -7 -16 -15 -20 -8 -3 -15
-17 -15 -31 0 -16 -6 -25 -15 -25 -8 0 -15 -7 -15 -15 0 -8 -7 -15 -15 -15
-10 0 -15 -10 -15 -30 0 -20 -5 -30 -15 -30 -8 0 -15 -9 -15 -20 0 -11 -7 -20
-15 -20 -10 0 -15 -10 -15 -30 0 -20 -5 -30 -15 -30 -9 0 -15 -9 -15 -25 0
-14 -8 -29 -20 -35 -11 -6 -20 -21 -20 -34 0 -13 -7 -26 -15 -30 -8 -3 -15
-16 -15 -30 0 -13 -7 -26 -15 -30 -9 -3 -15 -18 -15 -36 0 -20 -5 -30 -15 -30
-11 0 -15 -11 -15 -40 0 -27 -5 -43 -15 -46 -9 -4 -15 -19 -15 -35 0 -17 -6
-32 -15 -35 -10 -4 -15 -20 -15 -49 0 -26 -6 -47 -15 -55 -9 -8 -15 -30 -15
-60 0 -31 -5 -50 -14 -53 -7 -3 -15 -27 -19 -59 -3 -29 -12 -66 -21 -83 -9
-16 -16 -55 -16 -85 0 -32 -7 -63 -15 -74 -10 -13 -15 -44 -15 -92 0 -55 -4
-73 -15 -78 -12 -4 -15 -26 -15 -106 0 -80 -3 -102 -15 -106 -12 -5 -15 -28
-15 -119 0 -88 -3 -115 -15 -125 -12 -10 -15 -40 -15 -150 0 -113 -3 -139 -15
-144 -13 -4 -15 -35 -15 -190 0 -154 -2 -185 -15 -190 -13 -5 -15 -44 -15
-266 0 -167 -4 -260 -10 -260 -7 0 -10 -512 -10 -1515 0 -1003 3 -1515 10
-1515 6 0 10 -93 10 -259 0 -218 2 -261 15 -271 12 -10 15 -45 15 -191 0 -152
2 -179 15 -179 13 0 15 -23 15 -144 0 -115 3 -146 15 -156 12 -10 15 -37 15
-120 0 -83 3 -110 15 -120 11 -9 15 -35 15 -107 0 -74 3 -95 15 -99 12 -5 15
-24 15 -84 0 -57 4 -83 15 -94 10 -9 15 -34 15 -73 0 -37 6 -67 16 -81 9 -13
18 -50 21 -83 4 -40 10 -59 19 -59 10 0 14 -15 14 -55 0 -40 4 -57 15 -61 10
-4 15 -20 15 -50 0 -30 5 -46 15 -50 8 -4 15 -18 15 -34 0 -15 7 -33 15 -40 8
-7 15 -28 15 -47 0 -21 6 -36 15 -39 9 -4 15 -19 15 -35 0 -19 5 -29 15 -29
10 0 15 -10 15 -29 0 -16 6 -31 15 -35 8 -3 15 -14 15 -23 0 -10 9 -26 20 -36
11 -9 20 -28 20 -42 0 -16 6 -25 15 -25 10 0 15 -10 15 -30 0 -20 5 -30 15
-30 8 0 15 -6 15 -14 0 -8 7 -16 15 -20 8 -3 15 -17 15 -31 0 -16 6 -25 15
-25 8 0 15 -7 15 -15 0 -8 4 -15 10 -15 5 0 13 -12 16 -26 4 -14 29 -49 55
-77 27 -29 49 -58 49 -65 0 -7 7 -15 15 -18 8 -4 15 -12 15 -20 0 -8 7 -14 15
-14 8 0 15 -7 15 -15 0 -8 7 -15 15 -15 8 0 15 -5 15 -10 0 -6 13 -24 30 -40
16 -16 30 -34 30 -40 0 -5 7 -10 15 -10 8 0 15 -7 15 -15 0 -8 6 -15 14 -15 8
0 16 -7 20 -15 3 -8 12 -15 21 -15 8 0 15 -7 15 -15 0 -8 7 -15 15 -15 8 0 15
-7 15 -15 0 -8 7 -15 15 -15 8 0 15 -7 15 -15 0 -8 7 -15 15 -15 9 0 18 -6 21
-14 3 -8 16 -17 30 -20 13 -4 24 -13 24 -21 0 -8 6 -15 14 -15 8 0 16 -7 20
-15 3 -8 12 -15 20 -15 7 0 16 -7 20 -15 3 -8 17 -15 31 -15 16 0 25 -6 25
-15 0 -8 6 -15 14 -15 8 0 16 -7 20 -15 3 -8 17 -15 31 -15 16 0 25 -6 25 -15
0 -8 7 -15 15 -15 9 0 18 -7 21 -15 4 -9 19 -15 35 -15 18 0 29 -5 29 -14 0
-8 13 -17 29 -21 16 -3 32 -13 35 -21 3 -8 16 -14 30 -14 13 0 26 -7 30 -15 3
-8 16 -15 29 -15 14 0 30 -7 37 -15 7 -8 25 -15 40 -15 15 0 33 -7 40 -15 7
-8 25 -15 40 -15 16 0 30 -7 34 -15 3 -10 19 -15 45 -15 25 0 41 -5 45 -15 4
-10 20 -15 50 -15 30 0 46 -5 50 -15 4 -11 21 -15 60 -15 40 0 57 -4 64 -16 6
-11 29 -18 78 -21 38 -3 72 -11 76 -17 4 -6 46 -13 95 -15 53 -2 96 -9 108
-17 13 -9 49 -14 110 -14 63 -1 96 -5 109 -15 15 -11 49 -15 132 -15 87 0 114
-3 124 -15 10 -12 42 -15 166 -15 130 0 154 -2 154 -15 0 -13 27 -15 184 -15
154 0 185 -2 190 -15 4 -13 38 -15 220 -15 181 0 215 -2 220 -15 5 -13 46 -15
287 -15 256 0 283 -2 295 -17 11 -16 42 -18 336 -22 227 -2 325 -7 330 -15 5
-8 141 -12 484 -14 401 -2 479 -5 491 -17 22 -22 3404 -22 3423 0 10 12 87 15
501 17 353 2 492 6 497 14 5 8 102 13 329 15 288 4 323 6 340 22 18 15 48 17
301 17 244 0 282 2 282 15 0 13 31 15 219 15 182 0 222 3 235 15 12 12 47 15
186 15 142 0 172 2 176 15 5 12 32 15 155 15 124 0 151 3 155 15 5 12 30 15
140 15 110 0 136 3 140 15 5 12 25 15 93 15 60 1 92 5 105 15 14 10 45 15 97
15 56 0 80 4 89 15 7 8 29 15 50 15 58 0 100 11 100 26 0 10 16 14 59 14 43 0
60 4 65 15 4 10 20 15 51 15 33 0 45 4 45 15 0 11 11 15 40 15 27 0 43 5 46
15 4 9 19 15 35 15 17 0 32 6 35 15 4 8 18 15 34 15 15 0 33 7 40 15 7 8 23
15 36 15 12 0 29 7 38 15 8 8 18 15 23 15 5 0 32 16 62 35 29 19 59 35 67 35
8 0 14 7 14 15 0 10 10 15 30 15 20 0 30 5 30 15 0 8 7 15 15 15 8 0 15 7 15
15 0 10 10 15 30 15 20 0 30 5 30 15 0 8 7 15 15 15 9 0 18 7 21 15 4 8 12 15
19 15 6 0 21 8 33 18 12 9 32 26 46 37 14 11 25 26 26 33 0 6 7 12 15 12 8 0
15 7 15 15 0 8 7 15 15 15 8 0 15 7 15 15 0 8 5 15 11 15 15 0 98 67 124 100
11 14 28 33 38 42 9 10 17 25 17 33 0 8 7 15 15 15 8 0 15 7 15 15 0 8 7 15
15 15 8 0 15 7 15 15 0 8 7 15 15 15 8 0 15 7 15 15 0 8 6 15 13 15 12 1 57
63 57 80 0 4 7 10 15 14 8 3 15 12 15 21 0 8 7 15 15 15 10 0 15 10 15 30 0
20 5 30 15 30 8 0 15 6 15 14 0 8 7 16 15 20 8 3 15 17 15 31 0 16 6 25 15 25
9 0 15 9 15 25 0 13 6 28 13 32 13 9 30 33 49 73 7 14 18 31 25 38 7 7 13 24
13 36 0 13 7 29 15 36 8 7 15 25 15 40 0 16 7 30 15 34 9 3 15 18 15 35 0 16
6 31 15 35 10 3 15 19 15 46 0 29 4 40 15 40 11 0 15 12 15 50 0 38 4 50 15
50 12 0 15 13 15 60 0 44 4 60 14 60 13 0 26 48 26 102 0 14 5 28 12 30 7 3
14 32 16 74 3 38 11 78 18 89 9 12 14 47 14 96 0 59 3 78 15 83 12 4 15 25 15
99 0 72 4 98 15 107 12 10 15 37 15 119 1 77 5 111 15 125 12 15 15 52 15 157
0 112 3 138 15 143 13 4 15 35 15 190 0 154 2 185 15 190 13 5 15 44 15 266 0
167 4 260 10 260 7 0 10 518 10 1534 0 1013 -3 1537 -10 1541 -6 4 -10 100
-10 254 0 209 -2 251 -15 261 -12 10 -15 44 -15 187 0 145 -2 175 -15 179 -12
5 -15 31 -15 145 0 117 -2 139 -15 139 -13 0 -15 20 -15 120 0 98 -3 122 -15
126 -12 5 -15 26 -15 99 0 73 -3 94 -15 99 -11 4 -15 23 -15 80 0 53 -4 79
-15 90 -10 9 -15 34 -15 73 0 33 -6 67 -14 78 -7 11 -16 45 -20 77 -5 35 -13
58 -22 62 -9 4 -14 20 -14 50 0 26 -6 51 -15 60 -9 9 -15 33 -15 60 0 34 -4
46 -15 46 -10 0 -15 11 -15 35 0 24 -5 35 -15 35 -11 0 -15 12 -15 45 0 33 -4
45 -15 45 -10 0 -15 10 -15 30 0 18 -6 33 -15 36 -8 4 -15 17 -15 30 0 14 -7
27 -15 30 -8 4 -15 17 -15 30 0 14 -6 27 -14 30 -8 3 -18 19 -21 35 -4 16 -13
29 -21 29 -9 0 -14 11 -14 29 0 16 -6 31 -15 35 -8 3 -15 12 -15 21 0 8 -7 15
-15 15 -10 0 -15 10 -15 30 0 20 -5 30 -15 30 -8 0 -15 7 -15 15 0 8 -7 15
-15 15 -9 0 -15 9 -15 25 0 14 -7 28 -15 31 -8 4 -15 12 -15 20 0 8 -7 14 -15
14 -8 0 -15 6 -15 13 0 8 -9 22 -20 32 -11 10 -20 24 -20 32 0 7 -7 16 -15 19
-8 4 -15 12 -15 20 0 8 -7 14 -15 14 -8 0 -15 7 -15 15 0 8 -7 15 -15 15 -8 0
-15 7 -15 15 0 8 -7 15 -15 15 -8 0 -15 7 -15 15 0 8 -7 15 -15 15 -8 0 -15 4
-15 10 0 14 -75 90 -88 90 -7 0 -12 7 -12 15 0 8 -7 15 -15 15 -8 0 -15 7 -15
15 0 8 -7 15 -15 15 -8 0 -15 7 -15 15 0 8 -6 15 -14 15 -8 0 -16 7 -20 15 -3
8 -17 15 -31 15 -16 0 -25 6 -25 15 0 8 -7 15 -15 15 -8 0 -15 7 -15 15 0 8
-7 15 -15 15 -9 0 -18 6 -21 14 -3 8 -19 18 -35 21 -16 4 -29 13 -29 21 0 8
-6 14 -14 14 -8 0 -16 7 -20 15 -3 8 -17 15 -31 15 -16 0 -25 6 -25 15 0 8 -9
15 -19 15 -10 0 -21 7 -25 15 -3 8 -15 15 -26 15 -11 0 -23 7 -26 15 -4 9 -19
15 -35 15 -19 0 -29 5 -29 15 0 10 -10 15 -30 15 -20 0 -30 5 -30 15 0 8 -8
15 -17 15 -10 0 -31 9 -48 20 -16 11 -40 20 -51 20 -12 0 -27 7 -34 15 -7 8
-25 15 -40 15 -16 0 -30 7 -34 15 -3 10 -19 15 -45 15 -25 0 -41 5 -45 15 -4
10 -20 15 -50 15 -30 0 -46 5 -50 15 -4 11 -21 15 -61 15 -40 0 -57 4 -61 15
-5 11 -24 15 -80 15 -59 0 -74 3 -74 15 0 12 -17 15 -91 15 -72 0 -94 3 -103
16 -9 11 -37 17 -111 21 -56 3 -103 11 -107 17 -4 7 -54 12 -125 14 -75 3
-121 8 -125 15 -5 8 -59 13 -162 15 -119 3 -157 7 -167 18 -9 11 -46 14 -181
14 -137 0 -172 3 -184 15 -13 12 -53 15 -230 15 -182 0 -216 2 -220 15 -5 13
-45 15 -274 15 -226 0 -270 2 -280 15 -11 13 -61 15 -342 15 -283 0 -329 2
-334 15 -5 13 -69 15 -485 15 -394 0 -479 2 -479 13 0 11 -47 15 -227 20 -216
7 -2794 6 -3108 0z m1687 -1295 c4 -10 175 -14 802 -16 686 -2 801 -4 819 -17
18 -13 89 -15 465 -15 381 0 446 -2 458 -15 13 -13 65 -15 342 -15 272 -1 330
-3 346 -15 16 -12 69 -15 297 -15 237 0 278 -2 283 -15 4 -13 38 -15 220 -15
181 0 215 -2 220 -15 4 -13 33 -15 175 -15 141 0 170 -2 175 -15 4 -12 31 -15
156 -15 120 0 150 -3 150 -14 0 -17 51 -26 150 -26 50 0 81 -6 94 -15 14 -10
45 -15 102 -15 64 0 83 -3 88 -15 4 -11 21 -15 64 -15 41 0 64 -5 72 -15 8 -9
30 -15 60 -15 33 0 50 -5 54 -15 4 -10 20 -15 51 -15 33 0 45 -4 45 -15 0 -10
10 -15 30 -15 20 0 30 -5 30 -15 0 -10 10 -15 30 -15 20 0 30 -5 30 -15 0 -10
10 -15 30 -15 19 0 30 -5 30 -14 0 -8 9 -17 19 -21 11 -3 22 -12 25 -20 3 -8
12 -15 21 -15 8 0 15 -4 15 -10 0 -5 11 -12 25 -16 14 -3 25 -12 25 -20 0 -8
7 -14 15 -14 8 0 15 -7 15 -15 0 -8 7 -15 15 -15 8 0 15 -7 15 -15 0 -8 7 -15
15 -15 8 0 15 -7 15 -15 0 -8 7 -15 15 -15 8 0 15 -7 15 -15 0 -8 7 -15 15
-15 8 0 15 -7 15 -16 0 -9 9 -18 20 -21 13 -4 20 -14 20 -29 0 -14 7 -27 15
-30 8 -4 15 -12 15 -20 0 -8 7 -14 15 -14 10 0 15 -10 15 -30 0 -20 5 -30 15
-30 9 0 15 -9 15 -25 0 -14 7 -28 15 -31 8 -4 15 -17 15 -30 0 -14 7 -27 15
-30 9 -4 15 -19 15 -35 0 -17 6 -32 15 -35 10 -4 15 -20 15 -44 0 -21 6 -43
14 -49 8 -7 16 -38 18 -73 3 -41 10 -65 21 -73 13 -9 17 -28 17 -72 0 -42 5
-64 15 -73 11 -9 15 -34 15 -96 0 -68 3 -84 15 -84 12 0 15 -18 15 -105 0 -85
3 -107 15 -111 12 -5 15 -30 15 -140 0 -110 3 -136 15 -140 12 -5 15 -34 15
-170 0 -132 3 -165 14 -171 12 -7 15 -52 18 -251 2 -166 7 -245 14 -250 8 -5
13 -175 17 -597 4 -459 8 -597 18 -622 11 -27 11 -39 1 -65 -10 -25 -14 -225
-19 -853 -4 -673 -8 -824 -19 -840 -11 -15 -14 -72 -14 -258 0 -199 -3 -241
-15 -253 -12 -13 -15 -47 -15 -178 0 -133 -3 -166 -15 -176 -12 -10 -15 -40
-15 -152 0 -114 -3 -140 -15 -144 -12 -5 -15 -27 -15 -111 0 -79 -4 -108 -15
-119 -11 -11 -15 -38 -15 -95 0 -58 -4 -85 -15 -95 -10 -11 -15 -36 -15 -85 0
-56 -4 -73 -20 -89 -14 -14 -20 -33 -20 -66 0 -27 -6 -51 -15 -60 -8 -9 -15
-33 -15 -54 0 -24 -5 -40 -15 -44 -10 -3 -15 -19 -15 -46 0 -29 -4 -40 -15
-40 -10 0 -15 -10 -15 -30 0 -20 -5 -30 -15 -30 -9 0 -15 -9 -15 -25 0 -14 -7
-28 -15 -31 -8 -4 -15 -13 -15 -20 0 -8 -7 -17 -15 -20 -9 -4 -15 -19 -15 -35
0 -19 -5 -29 -15 -29 -8 0 -15 -7 -15 -15 0 -8 -4 -15 -9 -15 -12 0 -181 -169
-181 -181 0 -5 -7 -9 -15 -9 -8 0 -15 -7 -15 -15 0 -8 -7 -15 -15 -15 -8 0
-15 -7 -15 -15 0 -10 -10 -15 -29 -15 -16 0 -31 -6 -35 -15 -3 -8 -12 -15 -21
-15 -8 0 -15 -7 -15 -15 0 -10 -10 -15 -30 -15 -20 0 -30 -5 -30 -15 0 -10
-10 -15 -30 -15 -20 0 -30 -5 -30 -15 0 -11 -11 -15 -40 -15 -22 0 -42 -6 -47
-14 -4 -7 -28 -16 -53 -19 -24 -3 -46 -11 -48 -16 -2 -6 -16 -11 -31 -11 -62
0 -121 -13 -121 -26 0 -11 -21 -14 -90 -14 -71 0 -92 -3 -96 -15 -5 -12 -27
-15 -115 -15 -90 0 -109 -3 -109 -15 0 -13 -23 -15 -144 -15 -115 0 -148 -3
-160 -15 -12 -12 -46 -15 -180 -15 -133 0 -167 -3 -173 -14 -7 -12 -50 -15
-232 -18 -168 -2 -225 -6 -229 -15 -3 -10 -67 -13 -277 -13 -224 0 -276 -3
-288 -14 -12 -12 -77 -15 -362 -18 -268 -2 -349 -6 -353 -15 -3 -10 -67 -13
-276 -13 -412 0 -666 -10 -666 -27 0 -11 -142 -13 -830 -13 -731 0 -830 -2
-830 -15 0 -11 -12 -15 -50 -15 -38 0 -50 4 -50 15 0 13 -96 15 -806 15 -726
0 -808 2 -818 16 -11 14 -67 16 -472 21 -319 4 -461 9 -466 17 -5 8 -112 12
-344 14 -278 2 -339 6 -351 18 -12 11 -62 14 -281 14 -219 1 -270 3 -286 15
-16 12 -60 15 -224 15 -167 0 -206 3 -218 15 -13 12 -48 15 -185 15 -142 0
-171 2 -175 15 -5 12 -31 15 -149 15 -114 0 -145 3 -155 15 -10 12 -37 15
-120 15 -87 0 -109 3 -114 15 -4 12 -26 15 -106 15 -80 0 -100 3 -100 14 0 10
-17 16 -57 21 -32 3 -70 13 -85 21 -14 7 -44 14 -66 14 -23 0 -45 6 -52 15 -7
9 -29 15 -51 15 -28 0 -39 4 -39 15 0 10 -10 15 -30 15 -20 0 -30 5 -30 15 0
10 -10 15 -30 15 -20 0 -30 5 -30 15 0 10 -10 15 -30 15 -20 0 -30 5 -30 15 0
8 -9 15 -20 15 -11 0 -20 7 -20 15 0 8 -9 15 -20 15 -11 0 -20 4 -20 8 0 5
-11 15 -25 22 -14 7 -25 19 -25 27 0 7 -7 13 -15 13 -8 0 -15 7 -15 15 0 8 -7
15 -15 15 -8 0 -15 7 -15 15 0 8 -7 15 -15 15 -8 0 -15 7 -15 15 0 8 -7 15
-15 15 -8 0 -15 7 -15 15 0 8 -6 15 -14 15 -8 0 -16 7 -20 15 -3 8 -12 15 -21
15 -10 0 -15 10 -15 30 0 20 -5 30 -15 30 -8 0 -15 7 -15 15 0 9 -7 18 -15 21
-8 4 -15 17 -15 30 0 12 -6 27 -12 31 -14 9 -42 63 -53 101 -3 12 -11 22 -16
22 -5 0 -9 13 -9 29 0 16 -6 31 -15 35 -10 3 -15 19 -15 46 0 27 -5 43 -15 46
-10 4 -15 21 -15 55 0 48 -16 99 -32 99 -4 0 -8 32 -8 70 0 54 -4 72 -15 76
-12 5 -15 25 -15 89 0 61 -4 86 -15 95 -12 10 -15 36 -15 117 0 83 -3 105 -15
109 -12 5 -15 31 -15 145 0 115 -3 141 -15 145 -13 5 -15 34 -15 174 0 137 -3
170 -15 180 -13 10 -15 50 -15 242 0 179 -3 237 -14 261 -12 26 -15 127 -18
573 -2 432 -6 544 -16 557 -10 12 -12 37 -8 94 11 142 24 761 25 1233 1 392 4
468 16 484 12 16 15 66 15 272 0 215 2 253 15 258 13 4 15 34 15 181 0 147 2
177 15 181 12 5 15 30 15 134 0 101 3 130 15 140 11 10 15 35 15 110 0 75 4
100 15 110 11 9 15 33 15 90 0 60 3 79 15 84 11 4 15 23 15 81 0 57 3 75 14
75 15 0 26 43 26 105 0 29 5 45 15 49 10 3 15 19 15 45 0 25 5 41 15 45 9 3
15 18 15 35 0 16 6 31 15 35 8 3 15 16 15 29 0 14 7 30 15 37 8 7 15 20 15 30
0 10 7 20 15 24 8 3 15 17 15 31 0 16 6 25 15 25 8 0 15 7 15 15 0 9 7 18 15
21 8 4 15 17 15 29 0 15 8 26 20 30 11 3 20 13 20 21 0 8 7 14 15 14 8 0 15 7
15 15 0 8 7 15 15 15 8 0 15 7 15 15 0 8 7 15 15 15 8 0 15 7 15 15 0 8 7 15
15 15 8 0 15 7 15 15 0 8 7 15 15 15 8 0 15 7 15 15 0 8 7 15 15 15 8 0 15 6
15 14 0 8 13 17 29 21 16 3 32 13 35 21 3 8 12 14 21 14 8 0 15 7 15 15 0 8 9
15 20 15 11 0 23 7 26 15 4 8 15 15 25 15 10 0 19 7 19 15 0 10 10 15 29 15
16 0 34 7 41 15 7 8 27 15 45 15 20 0 35 6 39 15 3 10 19 15 46 15 27 0 43 5
46 15 5 11 22 15 63 15 35 0 65 6 77 15 12 9 43 14 90 15 46 0 77 5 90 15 12
9 43 14 85 15 98 0 159 10 159 26 0 11 28 14 140 14 118 0 140 2 140 15 0 13
27 15 184 15 154 0 185 2 190 15 4 13 39 15 221 15 184 0 215 2 215 15 0 13
39 15 289 15 244 0 290 2 301 15 11 13 62 15 345 15 283 0 334 2 345 15 11 13
75 15 470 15 392 0 459 2 470 15 11 13 122 15 833 17 645 2 821 6 825 16 2 8
28 12 82 12 54 0 80 -4 82 -12z"/>
<path d="M6397 10513 c-4 -3 -7 -1151 -7 -2550 l0 -2543 45 0 c33 0 45 4 45
15 0 8 9 15 19 15 11 0 26 7 35 15 8 8 19 15 24 15 5 0 17 9 27 20 10 11 26
20 37 20 10 0 18 7 18 15 0 10 10 15 30 15 20 0 30 5 30 15 0 9 9 15 25 15 14
0 28 7 31 15 4 8 13 15 20 15 8 0 17 7 20 15 4 9 19 15 35 15 19 0 29 5 29 15
0 9 9 15 25 15 14 0 28 6 31 14 3 8 16 17 29 20 12 3 37 19 55 36 18 16 43 30
56 30 15 0 24 6 24 15 0 9 9 15 25 15 14 0 28 7 31 15 4 8 12 15 19 15 7 0 18
7 25 15 7 8 21 15 31 15 11 0 19 7 19 15 0 10 10 15 30 15 17 0 30 4 30 10 0
5 23 19 50 32 28 13 50 28 50 34 0 6 14 14 30 18 18 3 30 12 30 21 0 10 10 15
30 15 20 0 30 5 30 15 0 9 9 15 25 15 14 0 28 7 31 15 4 8 15 15 25 15 10 0
19 7 19 15 0 10 10 15 30 15 20 0 30 5 30 15 0 9 9 15 25 15 14 0 28 7 31 15
4 8 12 15 19 15 7 0 18 7 25 15 7 8 21 15 32 15 10 0 21 6 24 14 3 8 19 18 35
21 16 4 29 13 29 21 0 9 11 14 30 14 20 0 30 5 30 15 0 8 7 15 15 15 8 0 15 7
15 15 0 10 10 15 30 15 18 0 33 6 36 15 4 8 17 15 30 15 12 0 27 6 31 13 4 7
27 21 50 32 24 11 43 26 43 33 0 6 11 12 25 12 14 0 28 6 31 14 3 8 19 18 36
21 16 4 32 13 34 20 3 7 16 16 30 19 13 4 24 11 24 16 0 6 9 10 20 10 11 0 20
7 20 15 0 10 10 15 30 15 20 0 30 5 30 15 0 9 9 15 25 15 14 0 28 7 31 15 4 8
14 15 24 15 10 0 20 7 24 15 3 8 17 15 31 15 16 0 25 6 25 15 0 9 9 15 25 15
13 0 28 6 32 13 4 7 20 18 36 24 15 7 27 17 27 23 0 5 9 10 20 10 11 0 20 7
20 15 0 10 10 15 30 15 20 0 30 5 30 15 0 10 10 15 30 15 19 0 30 5 30 14 0 8
11 17 25 20 14 4 25 11 25 16 0 6 9 10 19 10 10 0 21 7 25 15 3 8 17 15 30 15
14 0 29 6 33 13 4 6 26 21 47 32 22 11 41 28 44 37 3 12 14 18 33 18 19 0 29
5 29 15 0 10 10 15 30 15 18 0 33 6 36 15 4 8 15 15 25 15 11 0 22 7 25 15 4
8 15 15 25 15 10 0 19 7 19 15 0 10 10 15 30 15 20 0 30 5 30 15 0 9 9 15 25
15 13 0 28 6 32 13 4 6 29 23 56 37 26 13 47 30 47 37 0 8 12 13 30 13 20 0
30 5 30 15 0 10 10 15 30 15 20 0 30 5 30 15 0 8 9 15 20 15 11 0 23 7 26 15
4 8 17 15 30 15 15 0 24 6 24 15 0 9 9 15 25 15 13 0 28 6 32 13 4 7 27 21 50
32 24 11 43 25 43 31 0 7 16 15 35 18 21 4 35 13 35 21 0 9 10 15 25 15 14 0
28 7 31 15 4 8 14 15 24 15 10 0 23 7 30 15 7 8 19 15 26 15 8 0 14 7 14 15 0
10 10 15 30 15 20 0 30 5 30 15 0 9 9 15 23 15 13 0 28 5 34 11 13 13 47 33
81 48 12 6 22 15 22 20 0 5 14 12 30 16 17 4 30 13 30 21 0 9 11 14 30 14 20
0 30 5 30 15 0 8 9 15 20 15 11 0 20 7 20 15 0 10 10 15 30 15 20 0 30 5 30
15 0 10 10 15 30 15 17 0 30 5 30 13 0 6 23 22 50 35 47 21 50 25 50 60 0 38
-1 39 -66 72 -16 8 -33 20 -37 27 -4 7 -19 13 -32 13 -16 0 -25 6 -25 15 0 10
-10 15 -30 15 -20 0 -30 5 -30 15 0 8 -9 15 -20 15 -11 0 -20 7 -20 15 0 10
-10 15 -30 15 -20 0 -30 5 -30 15 0 10 -10 15 -30 15 -20 0 -30 5 -30 15 0 8
-9 15 -19 15 -11 0 -35 14 -53 31 -18 16 -45 33 -60 36 -16 3 -28 12 -28 19 0
9 -11 14 -30 14 -20 0 -30 5 -30 15 0 8 -9 15 -20 15 -11 0 -20 4 -20 10 0 5
-11 12 -24 16 -14 3 -27 12 -30 20 -3 8 -16 14 -30 14 -13 0 -26 7 -30 15 -3
9 -18 15 -36 15 -20 0 -30 5 -30 15 0 8 -7 15 -15 15 -8 0 -15 7 -15 15 0 8
-8 15 -18 15 -11 0 -29 9 -42 20 -13 11 -31 20 -40 20 -10 0 -20 7 -24 15 -3
8 -14 15 -24 15 -11 0 -25 7 -32 15 -7 8 -18 15 -25 15 -7 0 -15 7 -19 15 -3
8 -17 15 -31 15 -16 0 -25 6 -25 15 0 10 -10 15 -30 15 -20 0 -30 5 -30 15 0
8 -9 15 -19 15 -10 0 -21 7 -25 15 -3 8 -17 15 -31 15 -15 0 -25 6 -25 14 0 8
-13 17 -29 21 -16 3 -32 13 -35 21 -3 8 -17 14 -31 14 -16 0 -25 6 -25 15 0 8
-9 15 -20 15 -11 0 -20 4 -20 9 0 5 -14 14 -30 20 -16 5 -30 15 -30 20 0 6
-13 11 -30 11 -20 0 -30 5 -30 15 0 8 -9 15 -20 15 -11 0 -20 4 -20 10 0 5
-11 12 -24 16 -14 3 -27 12 -30 20 -3 8 -17 14 -31 14 -16 0 -25 6 -25 15 0 8
-9 15 -20 15 -11 0 -28 8 -38 18 -10 9 -35 26 -57 37 -22 11 -44 26 -48 33 -4
6 -19 12 -32 12 -16 0 -25 6 -25 15 0 10 -10 15 -30 15 -20 0 -30 5 -30 15 0
8 -9 15 -19 15 -10 0 -21 7 -25 15 -3 8 -17 15 -31 15 -16 0 -25 6 -25 15 0
10 -10 15 -30 15 -19 0 -30 5 -30 14 0 8 -13 17 -29 21 -16 3 -32 13 -35 21
-3 8 -10 14 -16 14 -6 0 -18 7 -26 15 -9 8 -24 15 -35 15 -10 0 -19 7 -19 15
0 10 -10 15 -30 15 -20 0 -30 5 -30 15 0 8 -9 15 -19 15 -10 0 -21 7 -25 15
-3 8 -14 15 -25 15 -10 0 -21 7 -25 15 -3 8 -17 15 -31 15 -14 0 -28 7 -31 15
-4 9 -19 15 -35 15 -17 0 -29 5 -29 13 0 13 -59 57 -77 57 -6 0 -13 7 -17 15
-3 8 -16 15 -30 15 -13 0 -26 7 -30 15 -3 8 -14 15 -25 15 -11 0 -26 7 -35 15
-8 8 -19 15 -24 15 -6 0 -12 7 -16 15 -3 8 -17 15 -31 15 -16 0 -25 6 -25 15
0 10 -10 15 -30 15 -20 0 -30 5 -30 15 0 8 -9 15 -20 15 -11 0 -20 4 -20 9 0
5 -8 12 -19 16 -10 3 -29 14 -41 25 -13 11 -31 20 -40 20 -10 0 -20 7 -24 15
-3 8 -17 15 -31 15 -16 0 -25 6 -25 15 0 8 -9 15 -19 15 -10 0 -21 7 -25 15
-3 8 -17 15 -31 15 -16 0 -25 6 -25 15 0 10 -10 15 -30 15 -20 0 -30 5 -30 15
0 8 -8 15 -19 15 -10 0 -24 7 -31 15 -7 8 -18 15 -25 15 -7 0 -15 7 -19 15 -3
8 -14 15 -24 15 -10 0 -27 9 -37 20 -10 11 -29 20 -42 20 -14 0 -23 6 -23 15
0 8 -8 15 -19 15 -10 0 -24 7 -31 15 -7 8 -18 15 -25 15 -7 0 -15 7 -19 15 -3
8 -16 15 -30 15 -13 0 -26 7 -30 15 -3 8 -16 15 -30 15 -13 0 -26 7 -30 15 -3
8 -12 15 -20 15 -7 0 -16 7 -20 15 -3 8 -17 15 -31 15 -16 0 -25 6 -25 15 0 8
-9 15 -20 15 -11 0 -28 9 -37 20 -10 11 -27 20 -39 20 -12 0 -24 7 -28 15 -3
8 -12 15 -20 15 -7 0 -16 7 -20 15 -3 8 -17 15 -31 15 -16 0 -25 6 -25 15 0
10 -10 15 -30 15 -20 0 -30 5 -30 15 0 8 -8 15 -19 15 -10 0 -24 7 -31 15 -7
8 -19 15 -27 15 -7 0 -16 7 -19 15 -4 9 -19 15 -35 15 -18 0 -29 5 -29 14 0
20 -67 35 -83 19z"/>
</g>
</svg>
