<?xml version="1.0" encoding="UTF-8"?>
<svg id="_Слой_1" data-name="Слой 1" xmlns="http://www.w3.org/2000/svg" viewBox="0 0 190 75.96">
  <defs>
    <style>
      .cls-1 {
        fill: #677a86;
      }
    </style>
  </defs>
  <g>
    <path class="cls-1" d="M0,39.18v-19.77h8.42c1.3,0,2.43.24,3.4.71.97.47,1.71,1.1,2.23,1.89.52.79.78,1.66.78,2.6s-.25,1.8-.76,2.53c-.51.72-1.14,1.23-1.89,1.51.9.3,1.74.89,2.5,1.75.76.87,1.14,1.91,1.14,3.13,0,1.02-.28,1.96-.83,2.82-.56.87-1.35,1.55-2.39,2.06-1.04.51-2.24.76-3.61.76H0ZM8.19,27.23c.72,0,1.28-.2,1.71-.61.42-.4.64-.93.64-1.57s-.22-1.17-.65-1.58c-.43-.41-1-.62-1.69-.62h-3.95v4.38h3.95ZM8.75,35.7c.81,0,1.47-.25,1.99-.75.52-.5.78-1.12.78-1.85s-.26-1.38-.78-1.88c-.52-.5-1.18-.75-1.99-.75h-4.52v5.22h4.52Z"/>
    <path class="cls-1" d="M23.67,39.18h-3.76v-19.77h4.24v12.76h.11l9.57-12.76h3.73v19.77h-4.24v-12.79h-.08l-9.57,12.79Z"/>
    <path class="cls-1" d="M47.16,39.18h-4.24v-19.77h4.24v7.77h8.47v-7.77h4.24v19.77h-4.24v-8.05h-8.47v8.05Z"/>
    <path class="cls-1" d="M69.3,38.22c-1.64-.92-2.92-2.17-3.85-3.74-.93-1.57-1.4-3.3-1.4-5.18s.47-3.61,1.4-5.2c.93-1.58,2.22-2.83,3.85-3.74,1.64-.91,3.46-1.37,5.48-1.37s3.84.46,5.46,1.37c1.63.91,2.91,2.16,3.85,3.74.94,1.58,1.41,3.31,1.41,5.2s-.47,3.61-1.41,5.18c-.94,1.57-2.23,2.82-3.87,3.74-1.64.92-3.46,1.38-5.45,1.38s-3.84-.46-5.48-1.38ZM78.03,34.86c.98-.56,1.75-1.34,2.32-2.32.56-.98.85-2.06.85-3.25s-.28-2.27-.85-3.25c-.56-.98-1.34-1.76-2.32-2.33-.98-.57-2.06-.86-3.25-.86s-2.27.28-3.26.85c-.99.56-1.77,1.34-2.33,2.33-.56.99-.85,2.08-.85,3.26s.29,2.27.86,3.25c.57.98,1.35,1.75,2.33,2.32.98.56,2.06.85,3.25.85s2.27-.28,3.25-.85Z"/>
    <path class="cls-1" d="M105,35.22h2.68v8.19h-4.24v-4.24h-12.23v4.24h-4.24v-8.19h1.13c.49-.4.96-1.04,1.43-1.95.46-.9.85-2.02,1.16-3.36.31-1.34.48-2.81.52-4.43l.14-6.07h13.64v15.81ZM100.76,35.22v-11.86h-5.34l-.06,2.12c-.04,1.62-.2,3.1-.48,4.45-.28,1.35-.63,2.47-1.03,3.36-.4.89-.82,1.54-1.26,1.93h8.16Z"/>
    <path class="cls-1" d="M126.04,39.18h-14.83v-19.77h14.54v3.81h-10.31v4.01h8.05v3.67h-8.05v4.46h10.59v3.81Z"/>
    <path class="cls-1" d="M132.73,19.41h14.06v19.77h-4.24v-15.81h-5.76l-.06,2.12c-.08,3.67-.39,6.54-.93,8.6-.55,2.06-1.29,3.5-2.23,4.31-.94.81-2.12,1.21-3.53,1.21-.4,0-.8-.05-1.2-.16-.4-.1-.73-.22-.97-.35v-3.87c.53.19,1,.28,1.41.28.66,0,1.22-.26,1.68-.79.46-.53.84-1.52,1.13-2.99.29-1.47.47-3.55.52-6.24l.11-6.07Z"/>
    <path class="cls-1" d="M155.91,39.18h-3.76v-19.77h4.24v12.76h.11l9.57-12.76h3.73v19.77h-4.24v-12.79h-.08l-9.57,12.79Z"/>
    <path class="cls-1" d="M190,39.18h-14.83v-19.77h14.54v3.81h-10.31v4.01h8.05v3.67h-8.05v4.46h10.59v3.81Z"/>
  </g>
  <g>
    <path class="cls-1" d="M5.25,70.77c-1.64-.92-2.92-2.17-3.85-3.74-.93-1.57-1.4-3.3-1.4-5.18s.47-3.61,1.4-5.2c.93-1.58,2.22-2.83,3.85-3.74,1.64-.91,3.46-1.37,5.48-1.37,1.9,0,3.57.38,5,1.13,1.43.75,2.59,1.65,3.47,2.68l-2.85,2.54c-.73-.73-1.54-1.33-2.41-1.79-.88-.46-1.94-.69-3.21-.69-1.19,0-2.27.28-3.26.85-.99.56-1.77,1.34-2.33,2.33-.56.99-.85,2.08-.85,3.26s.28,2.27.85,3.25c.56.98,1.34,1.75,2.33,2.32.99.56,2.08.85,3.26.85,1.28,0,2.37-.23,3.26-.69.89-.46,1.72-1.08,2.47-1.85l2.88,2.54c-.92,1.07-2.11,1.99-3.57,2.75-1.46.76-3.14,1.14-5.04,1.14-2.01,0-3.84-.46-5.48-1.38Z"/>
    <path class="cls-1" d="M37.62,71.73h-14.83v-19.77h14.54v3.81h-10.31v4.01h8.05v3.67h-8.05v4.46h10.59v3.81Z"/>
    <path class="cls-1" d="M46.09,71.73h-4.24v-19.77h13.27v3.95h-9.04v15.81Z"/>
    <path class="cls-1" d="M61.45,70.77c-1.64-.92-2.92-2.17-3.85-3.74-.93-1.57-1.4-3.3-1.4-5.18s.47-3.61,1.4-5.2c.93-1.58,2.22-2.83,3.85-3.74,1.64-.91,3.46-1.37,5.48-1.37s3.84.46,5.46,1.37c1.63.91,2.91,2.16,3.85,3.74.94,1.58,1.41,3.31,1.41,5.2s-.47,3.61-1.41,5.18c-.94,1.57-2.23,2.82-3.87,3.74-1.64.92-3.46,1.38-5.45,1.38s-3.84-.46-5.48-1.38ZM70.18,67.41c.98-.56,1.75-1.34,2.32-2.32.56-.98.85-2.06.85-3.25s-.28-2.27-.85-3.25c-.56-.98-1.34-1.76-2.32-2.33-.98-.57-2.06-.86-3.25-.86s-2.27.28-3.26.85c-.99.56-1.77,1.34-2.33,2.33-.56.99-.85,2.08-.85,3.26s.29,2.27.86,3.25c.57.98,1.35,1.75,2.33,2.32.98.56,2.06.85,3.25.85s2.27-.28,3.25-.85Z"/>
    <path class="cls-1" d="M97.15,67.77h2.68v8.19h-4.24v-4.24h-12.23v4.24h-4.24v-8.19h1.13c.49-.4.96-1.04,1.43-1.95.46-.9.85-2.02,1.16-3.36.31-1.34.48-2.81.52-4.43l.14-6.07h13.64v15.81ZM92.91,67.77v-11.86h-5.34l-.06,2.12c-.04,1.62-.2,3.1-.48,4.45-.28,1.35-.63,2.47-1.03,3.36-.4.89-.82,1.54-1.26,1.93h8.16Z"/>
    <path class="cls-1" d="M107.59,71.73h-4.24v-19.77h4.24v7.77h8.47v-7.77h4.24v19.77h-4.24v-8.05h-8.47v8.05Z"/>
    <path class="cls-1" d="M140.72,51.96v19.77h-4.24v-6.78h-3.45l-4.04,6.78h-4.66l4.55-7.4c-1.17-.53-2.09-1.31-2.77-2.34-.68-1.04-1.02-2.21-1.02-3.53,0-1.22.29-2.33.88-3.32.58-.99,1.4-1.77,2.44-2.33,1.04-.56,2.23-.85,3.54-.85h8.75ZM136.48,61.14v-5.37h-4.38c-.81,0-1.47.25-1.99.76-.52.51-.78,1.15-.78,1.92s.26,1.41.78,1.92c.52.51,1.18.76,1.99.76h4.38Z"/>
  </g>
  <g>
    <path class="cls-1" d="M3.11,6.03c-.63-.03-1.19-.17-1.66-.41-.47-.25-.83-.56-1.08-.96-.25-.39-.37-.83-.37-1.31s.12-.91.37-1.31c.25-.39.61-.71,1.08-.96.47-.25,1.02-.38,1.66-.41v-.67h.81v.67c.63.03,1.18.17,1.65.41.47.25.83.56,1.08.96.25.39.37.83.37,1.31s-.12.91-.37,1.31c-.25.39-.61.71-1.08.96-.47.25-1.02.38-1.65.41v.86h-.81v-.86ZM3.11,1.44c-.47.02-.87.12-1.21.3s-.61.4-.79.68c-.18.28-.27.59-.27.93s.09.64.27.93c.18.28.44.51.79.68s.75.27,1.21.3V1.44ZM3.92,5.26c.47-.02.87-.12,1.21-.3s.6-.4.78-.68c.18-.28.27-.59.27-.93s-.09-.65-.27-.93c-.18-.28-.44-.51-.78-.68s-.74-.27-1.21-.3v3.82Z"/>
    <path class="cls-1" d="M13.53,6.7h-4.63V.19h4.53v.77h-3.7v1.97h2.95v.77h-2.95v2.23h3.79v.77Z"/>
    <path class="cls-1" d="M20.22,5.93h.93v2.17h-.84v-1.4h-4.88v1.4h-.84v-2.17h.37c.17-.16.35-.41.52-.75.17-.35.31-.78.43-1.3.11-.52.18-1.1.19-1.73l.05-1.96h4.07v5.74ZM19.38,5.93V.96h-2.42l-.03,1.18c-.02.63-.08,1.2-.19,1.72-.11.52-.24.96-.4,1.31-.16.35-.31.6-.47.76h3.51Z"/>
    <path class="cls-1" d="M27.51,6.7h-4.63V.19h4.53v.77h-3.7v1.97h2.95v.77h-2.95v2.23h3.79v.77Z"/>
    <path class="cls-1" d="M29.42,6.7V.19h2.51c.41,0,.78.09,1.11.27.33.18.59.43.77.75.19.32.28.66.28,1.04s-.09.72-.28,1.04-.44.56-.77.74c-.33.18-.7.27-1.11.27h-1.68v2.39h-.84ZM31.93,3.54c.38,0,.69-.12.94-.37s.38-.55.38-.92-.13-.67-.38-.92c-.25-.25-.57-.37-.94-.37h-1.68v2.58h1.68Z"/>
    <path class="cls-1" d="M35.57,6.7h-.87L37.34.19h.91l2.63,6.52h-.89l-.71-1.75h-3.02l-.7,1.75ZM37.77,1.17l-1.19,3h2.4l-1.19-3h-.02Z"/>
    <path class="cls-1" d="M43.42.19h4.2v6.52h-.84V.96h-2.56l-.03,1.18c-.03,1.24-.13,2.2-.29,2.88-.16.68-.38,1.14-.64,1.4s-.61.38-1.01.38c-.22,0-.41-.04-.59-.13v-.77c.19.06.36.09.51.09.23,0,.43-.1.59-.3s.3-.58.41-1.14c.11-.56.17-1.36.2-2.41l.06-1.96Z"/>
    <path class="cls-1" d="M50,6.7V.19h.84v2.39h1.68c.41,0,.78.09,1.11.27.33.18.59.43.77.74s.28.66.28,1.04-.09.73-.28,1.04-.44.57-.77.75c-.33.18-.7.27-1.11.27h-2.51ZM52.52,5.93c.38,0,.69-.12.94-.37.25-.25.38-.56.38-.92s-.13-.67-.38-.92-.57-.37-.94-.37h-1.68v2.58h1.68Z"/>
    <path class="cls-1" d="M57.38,6.7h-.84V.19h.84v2.82h3.46V.19h.84v6.52h-.84v-2.91h-3.46v2.91Z"/>
    <path class="cls-1" d="M65.32,6.35c-.52-.3-.93-.7-1.23-1.22-.3-.51-.45-1.08-.45-1.69s.15-1.18.45-1.69c.3-.51.71-.92,1.23-1.22.52-.3,1.09-.45,1.72-.45s1.2.15,1.72.45c.52.3.93.7,1.23,1.22s.45,1.08.45,1.69-.15,1.18-.45,1.69c-.3.51-.71.92-1.23,1.22-.52.3-1.09.45-1.72.45s-1.2-.15-1.72-.45ZM68.33,5.68c.39-.23.7-.54.93-.94s.34-.83.34-1.3-.11-.9-.34-1.3-.54-.71-.93-.94c-.39-.23-.82-.34-1.29-.34s-.9.11-1.29.34c-.39.23-.7.54-.93.94s-.34.83-.34,1.3.11.9.34,1.3.54.71.93.94c.39.23.82.34,1.29.34s.9-.11,1.29-.34Z"/>
    <path class="cls-1" d="M77.01,6.7h-4.63V.19h4.53v.77h-3.7v1.97h2.95v.77h-2.95v2.23h3.79v.77Z"/>
    <path class="cls-1" d="M82.78,6.35c-.52-.3-.93-.7-1.23-1.22-.3-.51-.45-1.08-.45-1.69s.15-1.18.45-1.69c.3-.51.71-.92,1.23-1.22.52-.3,1.09-.45,1.72-.45s1.2.15,1.72.45c.52.3.93.7,1.23,1.22s.45,1.08.45,1.69-.15,1.18-.45,1.69c-.3.51-.71.92-1.23,1.22-.52.3-1.09.45-1.72.45s-1.2-.15-1.72-.45ZM85.78,5.68c.39-.23.7-.54.93-.94s.34-.83.34-1.3-.11-.9-.34-1.3-.54-.71-.93-.94c-.39-.23-.82-.34-1.29-.34s-.9.11-1.29.34c-.39.23-.7.54-.93.94s-.34.83-.34,1.3.11.9.34,1.3.54.71.93.94c.39.23.82.34,1.29.34s.9-.11,1.29-.34Z"/>
    <path class="cls-1" d="M91.75,6.7h-.84V.96h-2.01V.19h4.87v.77h-2.02v5.74Z"/>
    <path class="cls-1" d="M95.4,6.7V.19h2.51c.41,0,.78.09,1.11.27.33.18.59.43.77.75.19.32.28.66.28,1.04s-.09.72-.28,1.04-.44.56-.77.74c-.33.18-.7.27-1.11.27h-1.68v2.39h-.84ZM97.91,3.54c.38,0,.69-.12.94-.37s.38-.55.38-.92-.13-.67-.38-.92c-.25-.25-.57-.37-.94-.37h-1.68v2.58h1.68Z"/>
    <path class="cls-1" d="M101.55,6.7h-.87l2.63-6.52h.91l2.63,6.52h-.89l-.71-1.75h-3.02l-.7,1.75ZM103.75,1.17l-1.19,3h2.4l-1.19-3h-.02Z"/>
    <path class="cls-1" d="M109.52,6.35c-.52-.3-.93-.7-1.23-1.22-.3-.51-.45-1.08-.45-1.69s.15-1.18.45-1.69c.3-.51.71-.92,1.23-1.22.52-.3,1.09-.45,1.72-.45.59,0,1.11.13,1.57.38s.82.56,1.08.9l-.6.47c-.22-.27-.5-.51-.84-.7-.34-.19-.74-.29-1.22-.29s-.9.11-1.29.34c-.39.23-.7.54-.93.94s-.34.83-.34,1.3.11.9.34,1.3.54.71.93.94c.39.23.82.34,1.29.34s.89-.1,1.24-.3c.35-.2.64-.44.87-.73l.6.48c-.27.35-.64.66-1.11.92s-1,.39-1.59.39c-.63,0-1.2-.15-1.72-.45Z"/>
    <path class="cls-1" d="M116.43.19h4.2v6.52h-.84V.96h-2.56l-.03,1.18c-.03,1.24-.13,2.2-.29,2.88-.16.68-.38,1.14-.64,1.4s-.61.38-1.01.38c-.22,0-.41-.04-.59-.13v-.77c.19.06.36.09.51.09.23,0,.43-.1.59-.3s.3-.58.41-1.14c.11-.56.17-1.36.2-2.41l.06-1.96Z"/>
    <path class="cls-1" d="M127.64,6.7h-4.63V.19h4.53v.77h-3.7v1.97h2.95v.77h-2.95v2.23h3.79v.77Z"/>
    <path class="cls-1" d="M129.54,6.7V.19h2.55c.37,0,.69.08.98.23.29.15.51.36.67.61.16.26.24.54.24.85s-.08.6-.25.83c-.16.23-.36.4-.57.49.17.06.35.17.53.31s.32.33.44.56c.12.23.18.48.18.75,0,.34-.09.65-.27.94-.18.29-.43.51-.74.68-.32.17-.68.26-1.08.26h-2.67ZM132.09,2.9c.32,0,.58-.09.77-.27.19-.18.28-.42.28-.72s-.09-.53-.28-.71c-.19-.18-.45-.27-.77-.27h-1.71v1.97h1.71ZM132.22,5.96c.38,0,.68-.11.91-.33s.34-.5.34-.84-.11-.62-.34-.85c-.23-.22-.53-.34-.91-.34h-1.83v2.35h1.83Z"/>
    <path class="cls-1" d="M137.53,6.35c-.52-.3-.93-.7-1.23-1.22-.3-.51-.45-1.08-.45-1.69s.15-1.18.45-1.69c.3-.51.71-.92,1.23-1.22.52-.3,1.09-.45,1.72-.45s1.2.15,1.72.45c.52.3.93.7,1.23,1.22s.45,1.08.45,1.69-.15,1.18-.45,1.69c-.3.51-.71.92-1.23,1.22-.52.3-1.09.45-1.72.45s-1.2-.15-1.72-.45ZM140.53,5.68c.39-.23.7-.54.93-.94s.34-.83.34-1.3-.11-.9-.34-1.3-.54-.71-.93-.94c-.39-.23-.82-.34-1.29-.34s-.9.11-1.29.34c-.39.23-.7.54-.93.94s-.34.83-.34,1.3.11.9.34,1.3.54.71.93.94c.39.23.82.34,1.29.34s.9-.11,1.29-.34Z"/>
    <path class="cls-1" d="M149.21,6.7h-4.63V.19h4.53v.77h-3.7v1.97h2.95v.77h-2.95v2.23h3.79v.77Z"/>
    <path class="cls-1" d="M154.57,6.7h-.84V.19h.76l2.59,3.39h.02l2.6-3.39h.74v6.52h-.84V1.65h-.03l-2.49,3.24-2.48-3.24h-.04v5.06Z"/>
    <path class="cls-1" d="M167.45,6.7h-4.63V.19h4.53v.77h-3.7v1.97h2.95v.77h-2.95v2.23h3.79v.77Z"/>
    <path class="cls-1" d="M174.15,5.93h.93v2.17h-.84v-1.4h-4.88v1.4h-.84v-2.17h.37c.17-.16.35-.41.52-.75.17-.35.31-.78.43-1.3.11-.52.18-1.1.19-1.73l.05-1.96h4.07v5.74ZM173.31,5.93V.96h-2.42l-.03,1.18c-.02.63-.08,1.2-.19,1.72-.11.52-.24.96-.4,1.31-.16.35-.31.6-.47.76h3.51Z"/>
    <path class="cls-1" d="M177.57,6.7h-.76V.19h.84v5.12h.03l3.8-5.12h.75v6.52h-.84V1.58h-.02l-3.8,5.12Z"/>
    <path class="cls-1" d="M184.68,6.7h-.87l2.63-6.52h.91l2.63,6.52h-.89l-.71-1.75h-3.02l-.7,1.75ZM186.88,1.17l-1.19,3h2.4l-1.19-3h-.02Z"/>
  </g>
</svg>