<?xml version="1.0" standalone="no"?>
<!DOCTYPE svg PUBLIC "-//W3C//DTD SVG 20010904//EN"
 "http://www.w3.org/TR/2001/REC-SVG-20010904/DTD/svg10.dtd">
<svg version="1.0" xmlns="http://www.w3.org/2000/svg"
 width="1600.000000pt" height="1597.000000pt" viewBox="0 0 1600.000000 1597.000000"
 preserveAspectRatio="xMidYMid meet">

<g transform="translate(0.000000,1597.000000) scale(0.100000,-0.100000)"
fill="#000000" stroke="none">
<path d="M7770 13931 c0 -11 -5 -23 -10 -26 -6 -4 -20 -25 -32 -48 -20 -40
-22 -58 -25 -377 -4 -262 -8 -342 -19 -367 -10 -22 -14 -74 -14 -188 0 -126
-3 -159 -15 -171 -12 -12 -15 -43 -15 -142 -1 -96 -4 -132 -15 -146 -12 -15
-15 -52 -15 -157 0 -112 -3 -138 -15 -143 -12 -4 -15 -25 -15 -95 0 -70 -3
-90 -15 -95 -12 -4 -15 -24 -15 -90 0 -65 -3 -85 -15 -90 -12 -4 -15 -25 -15
-96 0 -70 -3 -90 -14 -90 -10 0 -16 -19 -21 -62 -4 -35 -12 -66 -18 -70 -6 -3
-12 -32 -15 -65 -3 -32 -9 -61 -15 -64 -5 -4 -12 -31 -15 -60 -3 -30 -11 -63
-18 -74 -8 -11 -14 -36 -14 -56 0 -20 -7 -42 -15 -49 -9 -8 -15 -29 -15 -55 0
-29 -5 -45 -15 -49 -11 -4 -15 -21 -15 -61 0 -42 -3 -55 -15 -55 -10 0 -15
-10 -15 -29 0 -16 -6 -31 -15 -35 -10 -4 -15 -20 -15 -51 0 -32 -4 -45 -14
-45 -9 0 -17 -15 -21 -39 -4 -22 -13 -45 -21 -52 -8 -6 -14 -22 -14 -34 0 -13
-7 -25 -15 -29 -9 -3 -15 -18 -15 -35 0 -16 -6 -31 -15 -35 -8 -3 -15 -16 -15
-29 0 -14 -7 -30 -15 -37 -8 -7 -15 -20 -15 -30 0 -10 -7 -20 -15 -24 -8 -3
-15 -17 -15 -31 0 -15 -7 -33 -15 -41 -8 -9 -15 -24 -15 -35 0 -10 -7 -19 -15
-19 -10 0 -15 -10 -15 -30 0 -20 -5 -30 -15 -30 -8 0 -15 -9 -15 -20 0 -11 -9
-28 -20 -37 -11 -10 -20 -23 -20 -30 0 -7 -4 -13 -10 -13 -5 0 -12 -11 -16
-24 -3 -14 -12 -27 -20 -30 -8 -3 -14 -19 -14 -36 0 -20 -5 -30 -15 -30 -8 0
-15 -7 -15 -15 0 -8 -7 -15 -15 -15 -8 0 -15 -6 -15 -14 0 -8 -7 -16 -15 -20
-8 -3 -15 -17 -15 -31 0 -16 -6 -25 -15 -25 -8 0 -15 -7 -15 -15 0 -8 -7 -15
-15 -15 -8 0 -15 -7 -15 -15 0 -9 -6 -18 -14 -21 -8 -3 -18 -19 -21 -35 -4
-16 -13 -29 -21 -29 -8 0 -14 -7 -14 -15 0 -8 -7 -15 -15 -15 -8 0 -15 -7 -15
-15 0 -8 -7 -15 -15 -15 -8 0 -15 -7 -15 -15 0 -8 -7 -15 -15 -15 -8 0 -15 -6
-15 -12 -1 -7 -14 -24 -30 -38 -17 -13 -30 -30 -30 -37 0 -7 -7 -13 -15 -13
-8 0 -15 -7 -15 -15 0 -8 -7 -15 -15 -15 -8 0 -15 -7 -15 -15 0 -8 -7 -15 -15
-15 -8 0 -15 -7 -15 -15 0 -8 -7 -15 -15 -15 -9 0 -18 -7 -21 -15 -4 -8 -12
-15 -20 -15 -8 0 -14 -7 -14 -15 0 -8 -7 -15 -15 -15 -8 0 -15 -7 -15 -15 0
-8 -7 -15 -15 -15 -8 0 -15 -7 -15 -15 0 -8 -7 -15 -15 -15 -8 0 -15 -7 -15
-15 0 -8 -7 -15 -15 -15 -8 0 -15 -5 -15 -10 0 -6 -12 -16 -27 -23 -16 -6 -32
-17 -36 -24 -4 -7 -15 -13 -22 -13 -8 0 -15 -7 -15 -15 0 -8 -7 -15 -15 -15
-8 0 -15 -7 -15 -15 0 -9 -9 -15 -25 -15 -14 0 -28 -7 -31 -15 -4 -8 -12 -15
-20 -15 -8 0 -14 -6 -14 -12 0 -7 -23 -23 -50 -36 -28 -12 -50 -27 -50 -32 0
-6 -6 -10 -14 -10 -8 0 -21 -6 -28 -13 -7 -7 -21 -16 -30 -20 -10 -3 -18 -13
-18 -22 0 -10 -10 -15 -30 -15 -20 0 -30 -5 -30 -15 0 -10 -10 -15 -30 -15
-20 0 -30 -5 -30 -15 0 -10 -10 -15 -30 -15 -18 0 -33 -6 -36 -15 -4 -8 -17
-15 -30 -15 -14 0 -27 -7 -30 -15 -4 -8 -12 -15 -19 -15 -7 0 -18 -7 -25 -15
-7 -8 -28 -15 -46 -15 -24 0 -34 -5 -34 -15 0 -10 -10 -15 -30 -15 -18 0 -33
-6 -36 -15 -4 -8 -17 -15 -31 -15 -16 0 -27 -7 -30 -20 -4 -16 -14 -20 -49
-20 -32 0 -44 -4 -44 -15 0 -11 -12 -15 -45 -15 -31 0 -47 -5 -51 -15 -4 -8
-18 -15 -34 -15 -16 0 -35 -7 -44 -15 -9 -9 -33 -15 -60 -15 -34 0 -46 -4 -46
-15 0 -11 -12 -15 -45 -15 -31 0 -47 -5 -51 -15 -4 -10 -20 -15 -48 -15 -23 0
-51 -7 -62 -15 -11 -8 -41 -15 -71 -15 -32 0 -57 -6 -67 -15 -8 -8 -30 -15
-48 -15 -48 0 -78 -10 -78 -26 0 -11 -18 -14 -74 -14 -56 0 -75 -4 -80 -15 -4
-12 -24 -15 -91 -15 -67 0 -87 -3 -91 -15 -5 -12 -24 -15 -85 -15 -64 0 -79
-3 -79 -15 0 -12 -19 -15 -108 -15 -80 0 -113 -4 -128 -15 -14 -11 -49 -14
-137 -15 -95 0 -119 -3 -123 -15 -5 -12 -31 -15 -143 -15 -99 0 -142 -4 -156
-14 -15 -10 -79 -15 -243 -19 -122 -3 -228 -10 -235 -15 -7 -6 -134 -12 -301
-14 -257 -4 -289 -6 -298 -21 -5 -9 -16 -17 -23 -17 -8 0 -15 -7 -15 -15 0 -8
-7 -15 -15 -15 -13 0 -15 -32 -15 -230 0 -165 3 -230 11 -230 7 0 18 -8 25
-17 11 -16 38 -19 201 -25 103 -3 226 -11 273 -16 47 -6 168 -11 270 -12 146
0 189 -4 204 -15 16 -12 54 -15 172 -15 126 0 153 -3 158 -15 4 -12 30 -15
138 -15 101 -1 138 -4 152 -15 15 -11 48 -15 127 -15 86 0 108 -3 113 -15 4
-12 25 -15 95 -15 70 0 90 -3 95 -15 4 -12 25 -15 95 -15 70 0 90 -3 95 -15 4
-11 21 -15 58 -15 31 -1 69 -9 93 -20 22 -11 59 -19 82 -20 23 0 43 -5 45 -12
3 -7 32 -14 71 -16 40 -3 71 -10 78 -18 6 -8 30 -14 54 -14 26 0 48 -6 55 -15
7 -8 29 -15 50 -15 21 0 43 -7 50 -15 8 -9 30 -15 60 -15 33 0 50 -5 54 -15 3
-10 19 -15 46 -15 29 0 40 -4 40 -15 0 -10 10 -15 34 -15 18 0 39 -7 46 -15 7
-8 27 -15 45 -15 18 0 44 -9 58 -20 14 -11 34 -20 45 -20 11 0 22 -7 26 -15 3
-8 17 -15 31 -15 14 0 28 -7 31 -15 4 -10 20 -15 50 -15 32 0 44 -4 44 -15 0
-8 9 -15 20 -15 11 0 20 -4 20 -9 0 -5 14 -14 30 -20 17 -5 30 -15 30 -20 0
-6 13 -11 29 -11 16 0 34 -7 41 -15 7 -8 21 -15 31 -15 11 0 19 -7 19 -15 0
-10 10 -15 30 -15 20 0 30 -5 30 -15 0 -9 12 -18 30 -22 17 -3 30 -12 30 -19
0 -8 6 -14 14 -14 8 0 16 -7 20 -15 3 -8 16 -15 30 -15 13 0 26 -7 30 -15 3
-8 10 -15 16 -15 6 0 18 -7 26 -15 9 -8 24 -15 35 -15 10 0 19 -7 19 -15 0 -8
7 -15 15 -15 8 0 15 -7 15 -15 0 -10 10 -15 30 -15 20 0 30 -5 30 -15 0 -8 7
-15 15 -15 8 0 15 -5 15 -11 0 -14 47 -59 61 -59 5 0 9 -4 9 -9 0 -10 38 -34
73 -47 9 -3 17 -13 17 -20 0 -8 7 -14 15 -14 8 0 15 -7 15 -15 0 -8 7 -15 15
-15 8 0 15 -7 15 -15 0 -8 7 -15 15 -15 8 0 15 -7 15 -15 0 -8 7 -15 15 -15 8
0 15 -7 15 -16 0 -9 9 -18 20 -21 11 -3 20 -12 20 -19 0 -8 7 -14 15 -14 8 0
15 -7 15 -15 0 -8 7 -15 15 -15 8 0 15 -7 15 -15 0 -8 7 -15 15 -15 8 0 15 -7
15 -15 0 -8 7 -15 15 -15 8 0 15 -7 15 -15 0 -8 6 -15 14 -15 8 0 16 -10 20
-23 3 -13 17 -36 31 -51 14 -15 25 -30 25 -33 0 -9 50 -53 61 -53 5 0 9 -11 9
-25 0 -14 7 -28 15 -31 8 -4 15 -12 15 -20 0 -8 7 -14 15 -14 8 0 15 -9 15
-19 0 -11 7 -26 15 -35 8 -8 15 -19 15 -24 0 -6 7 -12 15 -16 8 -3 15 -12 15
-20 0 -7 7 -16 15 -20 8 -3 15 -15 15 -26 0 -11 6 -23 14 -26 8 -3 18 -19 21
-35 4 -16 13 -29 21 -29 8 0 14 -10 14 -25 0 -14 7 -28 15 -31 8 -4 15 -13 15
-20 0 -8 7 -17 15 -20 9 -4 15 -19 15 -35 0 -19 5 -29 15 -29 10 0 15 -10 15
-30 0 -20 5 -30 15 -30 10 0 15 -10 15 -30 0 -20 5 -30 15 -30 10 0 15 -10 15
-29 0 -16 6 -31 15 -35 8 -3 15 -18 15 -33 0 -16 6 -37 14 -48 7 -11 16 -32
20 -47 3 -16 11 -28 16 -28 5 0 12 -16 16 -35 3 -19 12 -39 20 -46 8 -6 14
-26 14 -44 0 -18 7 -38 15 -45 8 -7 15 -28 15 -46 0 -24 5 -34 15 -34 11 0 15
-12 15 -44 0 -26 6 -48 15 -56 9 -7 15 -29 15 -55 0 -26 6 -48 15 -55 9 -7 15
-29 15 -52 0 -25 5 -41 15 -44 11 -5 15 -21 15 -59 0 -34 5 -59 15 -69 9 -9
15 -33 15 -63 0 -27 6 -58 14 -69 8 -11 18 -49 22 -83 4 -38 12 -65 20 -68 10
-4 14 -28 14 -89 0 -66 3 -86 15 -90 12 -5 15 -24 15 -85 0 -64 3 -79 15 -79
12 0 15 -18 15 -99 0 -75 4 -101 15 -111 12 -10 15 -40 15 -147 0 -110 3 -135
15 -139 12 -5 15 -31 15 -144 0 -107 3 -140 14 -149 12 -10 15 -50 18 -187 2
-115 7 -177 14 -182 8 -5 13 -111 16 -347 l5 -340 27 -45 c14 -25 29 -53 32
-62 6 -16 25 -18 219 -18 193 0 213 2 228 18 10 10 17 24 17 30 0 7 6 12 14
12 19 0 26 45 26 174 0 73 4 116 12 124 8 8 13 101 16 314 3 209 8 305 16 310
7 5 12 60 14 155 3 106 7 152 18 167 10 15 14 53 14 139 0 92 3 122 15 133 12
12 15 43 15 140 0 102 3 126 15 130 12 5 15 25 15 94 0 69 3 89 15 94 11 4 15
23 15 80 0 56 4 75 15 80 12 4 15 24 15 90 0 63 3 85 14 89 9 4 17 28 22 64 3
32 13 67 20 78 8 11 14 41 14 66 0 27 5 49 12 51 6 2 13 31 16 66 2 35 10 66
18 73 8 6 14 30 14 54 0 29 5 45 15 49 10 4 15 20 15 51 0 33 4 45 15 45 11 0
15 12 15 44 0 30 5 46 15 50 10 3 15 19 15 46 0 29 4 40 15 40 11 0 15 11 15
36 0 21 8 47 20 61 11 14 20 32 20 40 0 8 7 21 15 29 8 9 15 24 15 33 0 10 7
24 15 31 9 7 15 29 15 51 0 28 4 39 15 39 10 0 15 10 15 30 0 20 5 30 15 30
10 0 15 10 15 30 0 20 5 30 15 30 10 0 15 10 15 30 0 20 5 30 15 30 8 0 15 8
15 19 0 10 7 24 15 31 8 7 15 21 15 31 0 11 7 19 15 19 8 0 15 9 15 20 0 11 9
28 20 37 11 10 20 28 20 40 0 14 6 23 15 23 8 0 15 7 15 15 0 9 7 18 15 21 9
4 15 19 15 35 0 19 5 29 15 29 8 0 15 7 15 15 0 8 7 15 15 15 8 0 15 6 15 14
0 7 7 19 15 26 8 7 15 21 15 31 0 11 7 19 15 19 8 0 15 7 15 15 0 8 6 15 13
15 12 0 23 17 49 73 7 15 18 27 25 27 7 0 13 7 13 15 0 8 7 15 15 15 8 0 15 7
15 15 0 8 7 15 15 15 8 0 15 7 15 15 0 8 7 15 15 15 8 0 15 5 15 10 0 6 45 55
100 110 55 55 104 100 110 100 6 0 10 7 10 15 0 8 7 15 15 15 8 0 15 7 15 15
0 8 7 15 15 15 8 0 15 7 15 15 0 8 7 15 15 15 8 0 15 7 15 15 0 8 4 15 9 15
14 0 91 52 91 62 0 4 7 8 15 8 8 0 15 7 15 15 0 8 7 15 15 15 8 0 15 7 15 15
0 10 10 15 30 15 20 0 30 5 30 15 0 8 7 15 15 15 8 0 15 7 15 15 0 9 9 15 25
15 14 0 28 7 31 15 4 8 13 15 20 15 8 0 17 7 20 15 4 8 17 15 30 15 14 0 27 6
30 14 3 8 19 18 35 21 16 4 29 13 29 21 0 8 7 14 15 14 8 0 15 7 15 15 0 10
10 15 30 15 18 0 33 6 36 15 4 9 19 15 35 15 19 0 29 5 29 15 0 10 10 15 30
15 20 0 30 5 30 15 0 10 10 15 30 15 20 0 30 5 30 15 0 10 10 15 34 15 19 0
41 7 50 15 8 8 24 15 35 15 11 0 26 7 35 15 8 8 21 15 29 15 8 0 24 9 37 20
13 11 37 20 55 20 20 0 35 6 39 15 3 10 19 15 45 15 25 0 41 5 45 15 3 9 18
15 36 15 20 0 30 5 30 15 0 12 13 15 60 15 45 0 62 4 66 15 4 10 20 15 50 15
32 0 44 4 44 15 0 11 12 15 49 15 31 0 55 6 65 15 9 10 34 15 69 15 36 0 59 5
67 15 8 10 30 15 61 15 30 0 53 6 63 16 11 10 42 18 91 21 45 4 79 11 86 19 8
10 38 14 99 14 69 0 89 3 94 15 4 12 23 15 85 15 57 0 84 4 95 15 11 11 39 15
118 15 76 0 109 4 124 15 14 11 50 14 145 15 94 0 130 4 145 15 15 11 53 14
165 15 111 0 149 3 158 14 8 10 70 14 274 19 153 3 274 10 290 16 17 6 98 11
199 11 160 0 170 1 175 19 3 12 15 21 32 23 l26 3 3 228 c2 197 0 227 -13 227
-8 0 -15 7 -15 15 0 10 -10 15 -26 15 -15 0 -32 8 -39 17 -12 16 -42 18 -292
21 -165 3 -283 8 -290 14 -7 6 -113 12 -243 16 -176 4 -233 8 -241 18 -9 11
-44 14 -141 14 -102 0 -133 3 -144 15 -12 12 -41 15 -129 15 -80 0 -121 4
-141 15 -20 10 -59 15 -125 15 -77 0 -98 3 -103 15 -4 12 -24 15 -90 15 -65 0
-85 3 -90 15 -4 12 -23 15 -85 15 -61 0 -80 3 -85 15 -4 11 -22 15 -72 15 -50
0 -70 4 -79 16 -6 9 -32 18 -61 21 -27 3 -58 12 -69 19 -11 8 -43 14 -72 14
-32 0 -57 6 -67 15 -8 8 -32 15 -54 15 -26 0 -42 5 -46 15 -4 10 -20 15 -50
15 -30 0 -46 5 -50 15 -4 11 -21 15 -61 15 -42 0 -55 3 -55 15 0 11 -11 15
-40 15 -27 0 -43 5 -46 15 -4 9 -19 15 -40 15 -24 0 -34 5 -34 15 0 11 -12 15
-45 15 -33 0 -45 4 -45 15 0 8 -12 18 -27 21 -15 4 -34 13 -41 21 -7 7 -22 13
-33 13 -11 0 -27 7 -35 15 -9 8 -31 15 -50 15 -24 0 -34 5 -34 15 0 10 -10 15
-30 15 -20 0 -30 5 -30 15 0 8 -7 15 -16 15 -8 0 -22 7 -30 15 -9 8 -28 15
-44 15 -16 0 -30 7 -34 15 -3 8 -12 15 -21 15 -8 0 -15 7 -15 15 0 10 -10 15
-30 15 -20 0 -30 5 -30 15 0 8 -12 18 -26 21 -14 4 -40 19 -57 35 -17 16 -40
29 -50 29 -9 0 -20 7 -23 15 -4 8 -12 15 -19 15 -7 0 -15 7 -19 15 -3 8 -17
15 -31 15 -16 0 -25 6 -25 15 0 8 -7 15 -15 15 -8 0 -15 7 -15 15 0 8 -8 15
-19 15 -10 0 -24 7 -31 15 -7 8 -19 15 -26 15 -8 0 -14 7 -14 16 0 9 -9 18
-20 21 -11 3 -20 12 -20 19 0 8 -7 14 -15 14 -8 0 -15 7 -15 15 0 8 -6 15 -14
15 -8 0 -16 7 -20 15 -3 8 -12 15 -21 15 -8 0 -15 4 -15 10 0 5 -11 12 -25 16
-14 3 -25 12 -25 20 0 8 -7 14 -15 14 -8 0 -15 7 -15 15 0 8 -7 15 -15 15 -8
0 -15 7 -15 15 0 8 -6 15 -14 15 -8 0 -18 9 -21 20 -3 11 -13 20 -21 20 -8 0
-14 7 -14 15 0 8 -7 15 -15 15 -8 0 -15 7 -15 15 0 8 -7 15 -15 15 -8 0 -15 5
-15 10 0 14 -38 68 -67 97 -13 12 -23 27 -23 33 0 5 -7 10 -15 10 -8 0 -15 5
-15 11 0 15 -42 59 -57 59 -7 0 -13 11 -13 25 0 14 -7 28 -15 31 -8 4 -15 12
-15 20 0 8 -7 14 -15 14 -9 0 -15 9 -15 25 0 14 -7 28 -15 31 -8 4 -15 12 -15
20 0 8 -7 14 -15 14 -8 0 -15 9 -15 19 0 11 -6 26 -13 33 -7 7 -16 21 -20 31
-3 9 -11 17 -17 17 -5 0 -10 5 -10 12 0 19 -44 78 -57 78 -8 0 -13 13 -13 30
0 20 -5 30 -15 30 -10 0 -15 10 -15 29 0 16 -6 31 -15 35 -8 3 -15 17 -15 31
0 14 -7 28 -15 31 -8 4 -15 17 -15 30 0 14 -7 27 -15 30 -9 4 -15 19 -15 35 0
19 -5 29 -15 29 -10 0 -15 10 -15 29 0 16 -7 34 -15 41 -8 7 -15 20 -15 29 0
9 -6 25 -14 36 -7 11 -17 35 -21 53 -3 18 -13 32 -21 32 -10 0 -14 13 -14 44
0 30 -5 46 -15 50 -9 3 -15 18 -15 39 0 19 -7 40 -15 47 -8 7 -15 27 -15 45 0
18 -7 38 -15 45 -9 8 -15 30 -15 57 0 30 -5 45 -15 49 -10 4 -15 20 -15 50 0
32 -4 44 -15 44 -11 0 -15 13 -15 53 0 31 -6 61 -15 73 -8 10 -15 38 -15 61 0
23 -6 48 -13 55 -8 7 -17 42 -20 78 -4 40 -13 69 -22 76 -11 8 -15 31 -15 86
0 55 -4 79 -15 88 -11 9 -15 32 -15 80 0 48 -4 71 -15 80 -11 9 -15 34 -15 96
0 58 -4 87 -14 97 -11 10 -15 49 -18 147 -2 95 -7 135 -15 138 -10 3 -13 36
-13 122 0 92 -3 122 -15 134 -12 11 -15 43 -15 153 0 103 -4 145 -15 167 -12
23 -15 75 -16 260 0 127 -5 265 -10 306 -6 41 -14 140 -18 220 -5 80 -9 146
-10 148 0 1 -7 2 -15 2 -9 0 -16 12 -18 28 l-3 27 -227 3 c-221 2 -228 2 -228
-17z"/>
</g>
</svg>
