<?xml version="1.0" encoding="UTF-8"?>
<svg version="1.1" xmlns="http://www.w3.org/2000/svg" width="3125" height="3125">
<path d="M0 0 C0.91370477 -0.00140232 1.82740954 -0.00280463 2.76880233 -0.00424945 C5.82962631 -0.00772815 8.89039972 -0.0040929 11.95122296 -0.00049198 C14.17858182 -0.00153533 16.40594052 -0.00301673 18.63329884 -0.00489634 C24.77893608 -0.00880229 30.92455767 -0.00645372 37.07019466 -0.00311839 C43.06521069 -0.00084775 49.06022367 -0.00329288 55.05523924 -0.00559544 C67.48169058 -0.01019809 79.90813783 -0.0100439 92.33458954 -0.00731456 C104.94302252 -0.00456237 117.5514528 -0.00398383 130.15988594 -0.0060519 C130.95667456 -0.00618107 131.75346319 -0.00631024 132.57439692 -0.00644333 C135.82061428 -0.0069767 139.06683164 -0.00752542 142.31304899 -0.00809361 C172.65142488 -0.01339924 202.98979898 -0.01373185 233.32817513 -0.01094615 C262.87555518 -0.00823493 292.4229344 -0.00719807 321.97031456 -0.0084666 C323.83829048 -0.00854409 325.70626641 -0.00862125 327.57424233 -0.00869807 C335.08890861 -0.00900877 342.6035749 -0.00932744 350.11824118 -0.00965784 C371.16118662 -0.01057563 392.20413207 -0.01114576 413.24707752 -0.01144397 C414.68610723 -0.01146444 414.68610723 -0.01146444 416.15420823 -0.01148532 C446.79852931 -0.01189556 477.44285014 -0.01076488 508.08717114 -0.00859439 C509.57970662 -0.00848902 509.57970662 -0.00848902 511.10239433 -0.00838152 C527.24818217 -0.00723732 543.39397001 -0.00601745 559.53975784 -0.00479134 C620.39952449 -0.00017462 681.25928914 0.0001521 742.11905578 -0.00456953 C759.67363313 -0.00592966 777.2282105 -0.00719261 794.78278786 -0.00842845 C795.74541636 -0.00849624 796.70804486 -0.00856402 797.69984391 -0.00863386 C892.75703087 -0.01529405 987.81421957 -0.01763083 1609.22453678 0.37152076 C1610.21629141 0.37312748 1610.21629141 0.37312748 1611.22808149 0.37476666 C1617.17525235 0.38440508 1623.12242319 0.394058 1629.06959387 0.40380219 C1648.32355856 0.43523261 1667.57752136 0.45910397 1686.83150154 0.47861683 C1708.01793076 0.50015035 1729.20431292 0.531996 1750.39070149 0.57912198 C1761.96459795 0.60462098 1773.53843987 0.62234646 1785.11236326 0.62836662 C1792.72485878 0.63316773 1800.3372811 0.6487326 1807.94973794 0.67345476 C1812.25747374 0.68716115 1816.56507699 0.69615482 1820.87283581 0.69203947 C1824.76748302 0.68841437 1828.6618418 0.69840131 1832.55643109 0.71955806 C1833.95489495 0.72474152 1835.35338856 0.72488392 1836.75185149 0.71945465 C1838.64344077 0.71283244 1840.53506861 0.72637741 1842.42661345 0.74093747 C1843.47336636 0.74276831 1844.52011926 0.74459916 1845.59859196 0.74648548 C1849.07858455 1.1926908 1851.49193021 2.45402633 1854.5533815 4.12534916 C1856.68863202 4.60672837 1856.68863202 4.60672837 1858.75333267 4.63364995 C1859.52750031 4.67027241 1860.30166794 4.70689488 1861.0992952 4.74462712 C1861.92332337 4.76971852 1862.74735153 4.79480992 1863.59635025 4.82066166 C1864.90737969 4.87684918 1864.90737969 4.87684918 1866.24489456 4.9341718 C1869.07653936 5.05240681 1871.90850115 5.15146463 1874.7408815 5.25034916 C1876.68412848 5.32845172 1878.62732568 5.40780256 1880.57047135 5.48838627 C1886.23082501 5.71901365 1891.89183959 5.92626284 1897.5533815 6.12534916 C1898.34508744 6.15328557 1899.13679337 6.18122197 1899.95249039 6.21000493 C1902.08896956 6.28511076 1904.22547078 6.35956101 1906.36197525 6.43394291 C1907.61921402 6.47825444 1908.87645279 6.52256596 1910.17178971 6.56822026 C1912.4630896 6.64638895 1914.75460306 6.71858721 1917.04630142 6.78404057 C1918.04121598 6.81546147 1919.03613053 6.84688237 1920.061194 6.87925541 C1921.33954117 6.91514775 1921.33954117 6.91514775 1922.64371353 6.95176518 C1924.5533815 7.12534916 1924.5533815 7.12534916 1925.5533815 8.12534916 C1925.59418933 10.1249328 1925.59592507 12.1258017 1925.5533815 14.12534916 C1926.53097428 14.08981938 1927.50856705 14.05428959 1928.51578385 14.01768315 C1932.18711759 13.88605294 1935.85870741 13.76335204 1939.53043228 13.64317143 C1941.11124322 13.59022022 1942.69197798 13.53493598 1944.27261978 13.4771558 C1963.95328476 12.76138209 1963.95328476 12.76138209 1969.5533815 14.12534916 C1970.2133815 14.78534916 1970.8733815 15.44534916 1971.5533815 16.12534916 C1974.07250163 16.44822259 1974.07250163 16.44822259 1977.0221315 16.43394291 C1978.14152115 16.45674321 1979.2609108 16.4795435 1980.41422135 16.50303471 C1982.21560562 16.53264287 1982.21560562 16.53264287 1984.0533815 16.56284916 C2006.20606284 17.1863566 2026.61214139 21.62682872 2047.21231705 29.86363041 C2054.52474829 32.68002354 2062.13316417 34.40504434 2069.74600846 36.20933354 C2070.74334 36.44587651 2071.74067154 36.68241948 2072.76822525 36.92613041 C2074.11581925 37.23804326 2074.11581925 37.23804326 2075.49063736 37.55625737 C2077.5533815 38.12534916 2077.5533815 38.12534916 2078.5533815 39.12534916 C2078.59418933 41.1249328 2078.59592507 43.1258017 2078.5533815 45.12534916 C2079.58334244 45.15113041 2080.61330338 45.17691166 2081.67447525 45.20347416 C2102.00967237 45.9155923 2118.88519492 52.24847719 2137.5533815 60.12534916 C2137.5533815 62.43534916 2137.5533815 64.74534916 2137.5533815 67.12534916 C2141.8433815 67.12534916 2146.1333815 67.12534916 2150.5533815 67.12534916 C2150.5533815 69.10534916 2150.5533815 71.08534916 2150.5533815 73.12534916 C2154.5133815 73.12534916 2158.4733815 73.12534916 2162.5533815 73.12534916 C2162.8833815 75.10534916 2163.2133815 77.08534916 2163.5533815 79.12534916 C2164.29459244 79.32128666 2165.03580338 79.51722416 2165.79947525 79.71909916 C2175.58941137 82.4991055 2184.44840502 86.63283382 2193.5533815 91.12534916 C2193.5533815 93.43534916 2193.5533815 95.74534916 2193.5533815 98.12534916 C2197.8433815 98.12534916 2202.1333815 98.12534916 2206.5533815 98.12534916 C2206.5533815 100.10534916 2206.5533815 102.08534916 2206.5533815 104.12534916 C2208.5333815 104.12534916 2210.5133815 104.12534916 2212.5533815 104.12534916 C2212.5533815 106.43534916 2212.5533815 108.74534916 2212.5533815 111.12534916 C2213.45959244 111.0209351 2214.36580338 110.91652104 2215.29947525 110.80894291 C2225.14067515 110.15286292 2225.14067515 110.15286292 2229.311194 113.02378666 C2231.6158815 115.43784916 2231.6158815 115.43784916 2233.58853775 117.86363041 C2235.46749576 120.2707269 2235.46749576 120.2707269 2238.279944 121.71909916 C2239.03017838 122.18316166 2239.78041275 122.64722416 2240.5533815 123.12534916 C2240.8658815 126.31284916 2240.8658815 126.31284916 2240.5533815 129.12534916 C2243.8533815 129.12534916 2247.1533815 129.12534916 2250.5533815 129.12534916 C2250.5533815 131.43534916 2250.5533815 133.74534916 2250.5533815 136.12534916 C2252.5333815 136.12534916 2254.5133815 136.12534916 2256.5533815 136.12534916 C2256.5533815 138.10534916 2256.5533815 140.08534916 2256.5533815 142.12534916 C2259.5233815 142.12534916 2262.4933815 142.12534916 2265.5533815 142.12534916 C2265.5533815 144.10534916 2265.5533815 146.08534916 2265.5533815 148.12534916 C2267.8633815 148.12534916 2270.1733815 148.12534916 2272.5533815 148.12534916 C2272.5533815 150.10534916 2272.5533815 152.08534916 2272.5533815 154.12534916 C2274.5333815 154.12534916 2276.5133815 154.12534916 2278.5533815 154.12534916 C2278.5533815 156.43534916 2278.5533815 158.74534916 2278.5533815 161.12534916 C2279.40158463 161.38058354 2280.24978775 161.63581791 2281.123694 161.89878666 C2284.79090243 163.21029401 2288.01912707 164.87178039 2291.4283815 166.75034916 C2292.58080338 167.38198979 2293.73322525 168.01363041 2294.920569 168.66441166 C2295.78939713 169.14652104 2296.65822525 169.62863041 2297.5533815 170.12534916 C2297.5533815 172.10534916 2297.5533815 174.08534916 2297.5533815 176.12534916 C2299.5333815 176.12534916 2301.5133815 176.12534916 2303.5533815 176.12534916 C2303.5533815 179.42534916 2303.5533815 182.72534916 2303.5533815 186.12534916 C2305.5333815 186.12534916 2307.5133815 186.12534916 2309.5533815 186.12534916 C2309.5533815 188.10534916 2309.5533815 190.08534916 2309.5533815 192.12534916 C2310.32424088 192.2581226 2311.09510025 192.39089604 2311.889319 192.52769291 C2313.39365494 192.79259526 2313.39365494 192.79259526 2314.9283815 193.06284916 C2315.92611588 193.2368726 2316.92385025 193.41089604 2317.951819 193.59019291 C2320.5533815 194.12534916 2320.5533815 194.12534916 2322.5533815 195.12534916 C2322.5533815 199.41534916 2322.5533815 203.70534916 2322.5533815 208.12534916 C2324.5333815 208.12534916 2326.5133815 208.12534916 2328.5533815 208.12534916 C2328.5533815 210.10534916 2328.5533815 212.08534916 2328.5533815 214.12534916 C2330.5333815 214.12534916 2332.5133815 214.12534916 2334.5533815 214.12534916 C2334.5533815 216.10534916 2334.5533815 218.08534916 2334.5533815 220.12534916 C2335.61041275 219.96808354 2336.667444 219.81081791 2337.7565065 219.64878666 C2341.5533815 220.12534916 2341.5533815 220.12534916 2342.89127213 221.49351323 C2344.1490042 223.53223907 2345.23819493 225.60465123 2346.3033815 227.75034916 C2349.95728123 234.55147643 2353.93399882 240.56027109 2358.88638932 246.4813062 C2363.6480331 252.23158143 2365.97203578 256.44930946 2365.7408815 264.00034916 C2365.71381119 265.15277104 2365.68674088 266.30519291 2365.65885025 267.49253666 C2365.62404557 268.36136479 2365.58924088 269.23019291 2365.5533815 270.12534916 C2367.8633815 270.12534916 2370.1733815 270.12534916 2372.5533815 270.12534916 C2374.18250282 273.18567375 2375.80593851 276.24897954 2377.4283815 279.31284916 C2377.88857682 280.17716557 2378.34877213 281.04148198 2378.82291275 281.93198979 C2379.4900026 283.19365971 2379.4900026 283.19365971 2380.170569 284.48081791 C2380.78327652 285.63553593 2380.78327652 285.63553593 2381.40836197 286.81358159 C2383.90980513 291.86393665 2384.77698399 295.42348561 2384.5533815 301.12534916 C2385.4402565 300.96034916 2386.3271315 300.79534916 2387.2408815 300.62534916 C2390.5533815 301.12534916 2390.5533815 301.12534916 2391.79483658 302.57261479 C2403.30447419 322.12657036 2413.45719571 343.97766315 2412.5533815 367.12534916 C2414.5333815 367.12534916 2416.5133815 367.12534916 2418.5533815 367.12534916 C2418.5533815 375.37534916 2418.5533815 383.62534916 2418.5533815 392.12534916 C2420.8633815 392.12534916 2423.1733815 392.12534916 2425.5533815 392.12534916 C2425.5533815 398.39534916 2425.5533815 404.66534916 2425.5533815 411.12534916 C2427.5333815 411.12534916 2429.5133815 411.12534916 2431.5533815 411.12534916 C2437.73173417 425.09236982 2440.66188503 439.20185519 2440.983069 454.40073979 C2441.0140065 455.22122807 2441.044944 456.04171635 2441.076819 456.88706791 C2441.10654801 458.00021367 2441.10654801 458.00021367 2441.1368776 459.13584721 C2441.37570684 461.2313361 2441.37570684 461.2313361 2443.06485611 462.53013432 C2445.26451719 464.88745522 2444.89461779 466.71749992 2444.84635025 469.88706791 C2444.83668228 471.00532963 2444.82701432 472.12359135 2444.81705338 473.27573979 C2444.79191666 474.44298588 2444.76677994 475.61023198 2444.7408815 476.81284916 C2444.72734635 477.99169682 2444.71381119 479.17054448 2444.69986588 480.38511479 C2444.66447476 483.29898327 2444.6150996 486.21193861 2444.5533815 489.12534916 C2446.5333815 489.12534916 2448.5133815 489.12534916 2450.5533815 489.12534916 C2450.5843039 489.97059651 2450.61522629 490.81584385 2450.64708573 491.68670475 C2450.94087891 499.64780786 2451.24840012 507.60823597 2451.57139927 515.56820977 C2451.73697594 519.66065963 2451.89721478 523.75317425 2452.04532486 527.84629643 C2452.18842454 531.79554769 2452.34545368 535.74402007 2452.51220375 539.69234097 C2452.57339912 541.19964239 2452.62955131 542.70715719 2452.68060356 544.21483624 C2452.75291057 546.32487115 2452.84303334 548.43343888 2452.93741471 550.54258549 C2453.00736397 552.34461178 2453.00736397 552.34461178 2453.07872635 554.18304265 C2453.22837164 557.12864595 2453.22837164 557.12864595 2455.05962682 558.41268021 C2457.30835437 560.99096559 2456.92827163 563.09287489 2456.92811161 566.47035897 C2456.93217234 567.11986843 2456.93623306 567.76937789 2456.94041684 568.43856946 C2456.95041795 570.6302001 2456.93890461 572.82119862 2456.9276033 575.01281559 C2456.930342 576.59378064 2456.93439243 578.17474387 2456.93964696 579.75570256 C2456.95027054 584.111937 2456.94208117 588.46796735 2456.93089646 592.824193 C2456.92207936 597.51748315 2456.93049071 602.21074586 2456.93675858 606.90403569 C2456.94626297 616.10258427 2456.93963253 625.30105459 2456.92749564 634.49959738 C2456.91389841 645.2021613 2456.91551146 655.90470643 2456.91762897 666.60727679 C2456.92082121 685.69722002 2456.90913735 704.78712597 2456.88956314 723.87705815 C2456.87055531 742.4193874 2456.863476 760.96167297 2456.86905533 779.50401127 C2456.87510699 799.67586824 2456.87494753 819.84770598 2456.8635695 840.01956135 C2456.86236215 842.16860811 2456.86115617 844.31765487 2456.85995156 846.46670163 C2456.85934802 847.52418947 2456.85874448 848.58167732 2456.85812265 849.67121025 C2456.85423618 857.1393245 2456.85463993 864.60743161 2456.8565374 872.07554638 C2456.85865495 881.17035266 2456.85346873 890.26512059 2456.83892385 899.35991604 C2456.83165798 904.00413783 2456.82762142 908.64830363 2456.83216721 913.29253018 C2456.8362218 917.53804659 2456.83114089 921.78344704 2456.81854113 926.0289458 C2456.81559551 927.57060155 2456.81607169 929.11226812 2456.82018421 930.65392119 C2456.82524229 932.73814876 2456.81816938 934.82198093 2456.8078571 936.9061805 C2456.80655693 938.64779665 2456.80655693 938.64779665 2456.8052305 940.42459697 C2456.5533815 943.12534916 2456.5533815 943.12534916 2454.5533815 945.12534916 C2453.55108482 948.85261369 2453.34456204 952.5397124 2453.16446549 956.38438237 C2453.10447876 957.62529133 2453.04449204 958.8662003 2452.98268753 960.14471257 C2452.92153535 961.48851481 2452.86046653 962.83232086 2452.79947525 964.17613041 C2452.73397455 965.55905526 2452.66813814 966.94196424 2452.60198075 968.32485783 C2452.42931423 971.95292611 2452.26119252 975.58119112 2452.09403092 979.20951664 C2451.9224294 982.916617 2451.74651043 986.62351222 2451.57095963 990.33042729 C2451.2275519 997.59520783 2450.8889474 1004.86020173 2450.5533815 1012.12534916 C2448.5733815 1012.12534916 2446.5933815 1012.12534916 2444.5533815 1012.12534916 C2444.56909195 1013.35837773 2444.56909195 1013.35837773 2444.58511978 1014.61631596 C2444.62674909 1018.34846247 2444.65273003 1022.08056006 2444.6783815 1025.81284916 C2444.69513932 1027.10642338 2444.71189713 1028.3999976 2444.72916275 1029.73277104 C2444.73883072 1031.60352299 2444.73883072 1031.60352299 2444.748694 1033.51206791 C2444.75916764 1034.65893071 2444.76964127 1035.8057935 2444.78043228 1036.98740971 C2444.53653335 1040.35819783 2444.03608162 1043.64264904 2441.5533815 1046.12534916 C2441.30113194 1048.0676519 2441.10837612 1050.01772708 2440.94010025 1051.96909916 C2440.82859635 1053.18839116 2440.71709244 1054.40768315 2440.60220963 1055.66392338 C2440.42335221 1057.62482914 2440.42335221 1057.62482914 2440.2408815 1059.62534916 C2438.92970482 1073.32362895 2437.24915488 1086.47167081 2431.5533815 1099.12534916 C2429.5733815 1099.12534916 2427.5933815 1099.12534916 2425.5533815 1099.12534916 C2425.5533815 1106.38534916 2425.5533815 1113.64534916 2425.5533815 1121.12534916 C2423.5733815 1121.12534916 2421.5933815 1121.12534916 2419.5533815 1121.12534916 C2419.58818619 1122.15273198 2419.62299088 1123.18011479 2419.65885025 1124.23863041 C2419.92305774 1135.25928504 2418.76009521 1143.85897695 2413.6783815 1153.81284916 C2409.28866063 1162.8434441 2407.90492851 1172.7445801 2406.14420182 1182.56089604 C2405.53017501 1185.22607683 2404.63192512 1187.61590003 2403.5533815 1190.12534916 C2401.2433815 1190.12534916 2398.9333815 1190.12534916 2396.5533815 1190.12534916 C2396.51470963 1191.2893726 2396.51470963 1191.2893726 2396.4752565 1192.47691166 C2395.38209687 1213.2966338 2395.38209687 1213.2966338 2390.5533815 1218.12534916 C2388.55379787 1218.16615699 2386.55292896 1218.16789273 2384.5533815 1218.12534916 C2384.34584244 1219.11792729 2384.13830338 1220.11050541 2383.92447525 1221.13316166 C2379.17672489 1242.50200578 2379.17672489 1242.50200578 2372.5533815 1249.12534916 C2370.22040717 1249.16627854 2367.88632926 1249.1677664 2365.5533815 1249.12534916 C2365.5533815 1253.41534916 2365.5533815 1257.70534916 2365.5533815 1262.12534916 C2363.5733815 1262.45534916 2361.5933815 1262.78534916 2359.5533815 1263.12534916 C2357.5733815 1268.73534916 2355.5933815 1274.34534916 2353.5533815 1280.12534916 C2351.5733815 1280.12534916 2349.5933815 1280.12534916 2347.5533815 1280.12534916 C2347.5533815 1282.43534916 2347.5533815 1284.74534916 2347.5533815 1287.12534916 C2345.2433815 1287.12534916 2342.9333815 1287.12534916 2340.5533815 1287.12534916 C2340.5533815 1291.08534916 2340.5533815 1295.04534916 2340.5533815 1299.12534916 C2338.5733815 1299.12534916 2336.5933815 1299.12534916 2334.5533815 1299.12534916 C2334.5533815 1301.10534916 2334.5533815 1303.08534916 2334.5533815 1305.12534916 C2332.5733815 1305.12534916 2330.5933815 1305.12534916 2328.5533815 1305.12534916 C2328.5533815 1307.43534916 2328.5533815 1309.74534916 2328.5533815 1312.12534916 C2326.5733815 1312.12534916 2324.5933815 1312.12534916 2322.5533815 1312.12534916 C2322.5533815 1314.10534916 2322.5533815 1316.08534916 2322.5533815 1318.12534916 C2320.2433815 1318.12534916 2317.9333815 1318.12534916 2315.5533815 1318.12534916 C2315.5533815 1320.10534916 2315.5533815 1322.08534916 2315.5533815 1324.12534916 C2313.5733815 1324.12534916 2311.5933815 1324.12534916 2309.5533815 1324.12534916 C2309.5533815 1327.42534916 2309.5533815 1330.72534916 2309.5533815 1334.12534916 C2308.1715065 1334.35222416 2306.7896315 1334.57909916 2305.3658815 1334.81284916 C2300.71911256 1335.87455224 2298.5158307 1337.25770716 2295.5533815 1341.12534916 C2294.86345037 1342.60338344 2294.17615833 1344.08265122 2293.4908815 1345.56284916 C2291.27011072 1349.86294036 2289.01579662 1351.15078729 2284.6158815 1353.06284916 C2277.86315925 1356.03834489 2275.82674262 1359.76160984 2272.5533815 1366.12534916 C2268.85044521 1371.95807889 2263.58201839 1375.22483099 2257.80289322 1378.77866948 C2254.31528299 1380.93498266 2251.1995522 1383.13847076 2248.1783815 1385.93784916 C2241.90460689 1391.69323986 2234.65863278 1393.93294513 2226.5533815 1396.12534916 C2226.2233815 1398.10534916 2225.8933815 1400.08534916 2225.5533815 1402.12534916 C2221.2633815 1402.12534916 2216.9733815 1402.12534916 2212.5533815 1402.12534916 C2212.7596315 1403.13597416 2212.9658815 1404.14659916 2213.1783815 1405.18784916 C2212.5533815 1409.12534916 2212.5533815 1409.12534916 2210.85416275 1410.83238041 C2208.15670704 1412.73620453 2205.3916317 1414.43764728 2202.5533815 1416.12534916 C2201.28780404 1416.91370333 2200.02354161 1417.70417143 2198.76041275 1418.49644291 C2197.44261837 1419.31221266 2196.12361176 1420.12602752 2194.8033815 1420.93784916 C2194.17810562 1421.32311772 2193.55282974 1421.70838627 2192.90860611 1422.10532963 C2186.86368442 1425.72666693 2181.83087392 1427.3963184 2174.6783815 1427.25034916 C2173.52595963 1427.23230229 2172.37353775 1427.21425541 2171.186194 1427.19566166 C2170.31736588 1427.17245854 2169.44853775 1427.14925541 2168.5533815 1427.12534916 C2168.5533815 1429.10534916 2168.5533815 1431.08534916 2168.5533815 1433.12534916 C2164.5933815 1433.12534916 2160.6333815 1433.12534916 2156.5533815 1433.12534916 C2156.5533815 1435.43534916 2156.5533815 1437.74534916 2156.5533815 1440.12534916 C2154.49288296 1440.94291154 2152.42989298 1441.7541965 2150.3658815 1442.56284916 C2149.21732682 1443.0153101 2148.06877213 1443.46777104 2146.88541275 1443.93394291 C2139.69067714 1446.50650371 2133.15761502 1446.2021596 2125.5533815 1446.12534916 C2125.5533815 1451.07534916 2125.5533815 1456.02534916 2125.5533815 1461.12534916 C2127.5333815 1461.12534916 2129.5133815 1461.12534916 2131.5533815 1461.12534916 C2131.5533815 1463.10534916 2131.5533815 1465.08534916 2131.5533815 1467.12534916 C2133.13892838 1466.97452885 2133.13892838 1466.97452885 2134.7565065 1466.82066166 C2138.5533815 1467.12534916 2138.5533815 1467.12534916 2141.0377565 1469.11753666 C2141.78541275 1470.06886479 2142.533069 1471.02019291 2143.3033815 1472.00034916 C2143.71531754 1472.52193608 2144.12725357 1473.04352299 2144.55167252 1473.58091557 C2162.5533815 1497.08605236 2162.5533815 1497.08605236 2162.5533815 1505.12534916 C2164.5333815 1505.78534916 2166.5133815 1506.44534916 2168.5533815 1507.12534916 C2168.5533815 1509.43534916 2168.5533815 1511.74534916 2168.5533815 1514.12534916 C2170.8633815 1514.12534916 2173.1733815 1514.12534916 2175.5533815 1514.12534916 C2175.5533815 1517.09534916 2175.5533815 1520.06534916 2175.5533815 1523.12534916 C2177.5333815 1523.12534916 2179.5133815 1523.12534916 2181.5533815 1523.12534916 C2181.5533815 1526.42534916 2181.5533815 1529.72534916 2181.5533815 1533.12534916 C2183.5333815 1533.12534916 2185.5133815 1533.12534916 2187.5533815 1533.12534916 C2187.5533815 1535.10534916 2187.5533815 1537.08534916 2187.5533815 1539.12534916 C2189.5333815 1539.12534916 2191.5133815 1539.12534916 2193.5533815 1539.12534916 C2193.5533815 1543.08534916 2193.5533815 1547.04534916 2193.5533815 1551.12534916 C2195.8633815 1551.12534916 2198.1733815 1551.12534916 2200.5533815 1551.12534916 C2200.5533815 1553.43534916 2200.5533815 1555.74534916 2200.5533815 1558.12534916 C2202.5333815 1558.12534916 2204.5133815 1558.12534916 2206.5533815 1558.12534916 C2206.5533815 1560.10534916 2206.5533815 1562.08534916 2206.5533815 1564.12534916 C2208.5333815 1564.12534916 2210.5133815 1564.12534916 2212.5533815 1564.12534916 C2212.5533815 1568.08534916 2212.5533815 1572.04534916 2212.5533815 1576.12534916 C2214.5333815 1576.12534916 2216.5133815 1576.12534916 2218.5533815 1576.12534916 C2218.5533815 1578.43534916 2218.5533815 1580.74534916 2218.5533815 1583.12534916 C2219.5433815 1582.91909916 2220.5333815 1582.71284916 2221.5533815 1582.50034916 C2224.56538518 1582.48202054 2225.42429479 1583.00392622 2227.65885025 1585.10581791 C2229.75561272 1587.70611808 2231.68111064 1590.35958678 2233.5533815 1593.12534916 C2234.01357682 1593.76601323 2234.47377213 1594.40667729 2234.94791275 1595.06675541 C2237.88985459 1599.54723927 2237.91559671 1602.96378239 2237.5533815 1608.12534916 C2239.5333815 1608.12534916 2241.5133815 1608.12534916 2243.5533815 1608.12534916 C2243.5533815 1610.10534916 2243.5533815 1612.08534916 2243.5533815 1614.12534916 C2245.8633815 1614.12534916 2248.1733815 1614.12534916 2250.5533815 1614.12534916 C2250.93107682 1614.93616948 2251.30877213 1615.74698979 2251.69791275 1616.58238041 C2255.47549967 1624.18178828 2259.49725916 1629.34972631 2265.7565065 1635.21128666 C2271.22638599 1640.60909423 2278.48203372 1649.98717788 2278.6158815 1657.75034916 C2278.584944 1659.42097416 2278.584944 1659.42097416 2278.5533815 1661.12534916 C2280.5333815 1661.12534916 2282.5133815 1661.12534916 2284.5533815 1661.12534916 C2284.5533815 1663.10534916 2284.5533815 1665.08534916 2284.5533815 1667.12534916 C2287.5233815 1668.11534916 2290.4933815 1669.10534916 2293.5533815 1670.12534916 C2293.5946315 1671.54847416 2293.6358815 1672.97159916 2293.6783815 1674.43784916 C2293.8690997 1676.92414589 2293.8690997 1676.92414589 2294.5533815 1679.12534916 C2296.53584549 1680.1596782 2298.53751466 1681.15773308 2300.5533815 1682.12534916 C2301.97358511 1685.02319108 2302.80480994 1687.99316814 2303.5533815 1691.12534916 C2305.5333815 1691.45534916 2307.5133815 1691.78534916 2309.5533815 1692.12534916 C2309.5533815 1696.08534916 2309.5533815 1700.04534916 2309.5533815 1704.12534916 C2311.5333815 1704.12534916 2313.5133815 1704.12534916 2315.5533815 1704.12534916 C2315.5533815 1706.43534916 2315.5533815 1708.74534916 2315.5533815 1711.12534916 C2317.8633815 1711.12534916 2320.1733815 1711.12534916 2322.5533815 1711.12534916 C2322.5533815 1713.10534916 2322.5533815 1715.08534916 2322.5533815 1717.12534916 C2324.5333815 1717.12534916 2326.5133815 1717.12534916 2328.5533815 1717.12534916 C2328.5533815 1719.10534916 2328.5533815 1721.08534916 2328.5533815 1723.12534916 C2329.4196315 1722.93972416 2330.2858815 1722.75409916 2331.1783815 1722.56284916 C2334.5533815 1723.12534916 2334.5533815 1723.12534916 2336.076819 1724.67222416 C2340.49238427 1731.07362566 2346.5533815 1740.23269961 2346.5533815 1748.12534916 C2348.8633815 1748.12534916 2351.1733815 1748.12534916 2353.5533815 1748.12534916 C2353.5533815 1751.42534916 2353.5533815 1754.72534916 2353.5533815 1758.12534916 C2355.5333815 1758.12534916 2357.5133815 1758.12534916 2359.5533815 1758.12534916 C2359.5533815 1760.10534916 2359.5533815 1762.08534916 2359.5533815 1764.12534916 C2361.5333815 1764.12534916 2363.5133815 1764.12534916 2365.5533815 1764.12534916 C2365.5533815 1768.08534916 2365.5533815 1772.04534916 2365.5533815 1776.12534916 C2367.8633815 1776.12534916 2370.1733815 1776.12534916 2372.5533815 1776.12534916 C2373.5433815 1780.08534916 2374.5333815 1784.04534916 2375.5533815 1788.12534916 C2377.5333815 1788.45534916 2379.5133815 1788.78534916 2381.5533815 1789.12534916 C2381.5533815 1791.10534916 2381.5533815 1793.08534916 2381.5533815 1795.12534916 C2382.5433815 1794.89847416 2383.5333815 1794.67159916 2384.5533815 1794.43784916 C2387.67764319 1794.41872103 2388.48820979 1795.06144403 2390.764319 1797.29331791 C2394.99884041 1802.83488473 2397.5533815 1807.09931124 2397.5533815 1814.12534916 C2399.5333815 1814.12534916 2401.5133815 1814.12534916 2403.5533815 1814.12534916 C2403.5533815 1816.10534916 2403.5533815 1818.08534916 2403.5533815 1820.12534916 C2405.5333815 1820.12534916 2407.5133815 1820.12534916 2409.5533815 1820.12534916 C2410.05926298 1822.04047189 2410.55786541 1823.95751838 2411.0533815 1825.87534916 C2411.331819 1826.94269291 2411.6102565 1828.01003666 2411.8971315 1829.10972416 C2412.5533815 1832.12534916 2412.5533815 1832.12534916 2412.5533815 1836.12534916 C2414.5333815 1836.12534916 2416.5133815 1836.12534916 2418.5533815 1836.12534916 C2418.5533815 1839.09534916 2418.5533815 1842.06534916 2418.5533815 1845.12534916 C2420.8633815 1845.12534916 2423.1733815 1845.12534916 2425.5533815 1845.12534916 C2425.5533815 1849.41534916 2425.5533815 1853.70534916 2425.5533815 1858.12534916 C2426.8527565 1858.14597416 2428.1521315 1858.16659916 2429.4908815 1858.18784916 C2436.54447157 1859.00726151 2440.8157577 1863.13019838 2445.46353775 1868.21519291 C2450.66380707 1874.90125346 2456.5533815 1886.42038243 2456.5533815 1895.12534916 C2458.5333815 1895.12534916 2460.5133815 1895.12534916 2462.5533815 1895.12534916 C2463.55846952 1896.91416652 2464.55730886 1898.70649612 2465.5533815 1900.50034916 C2466.1102565 1901.49808354 2466.6671315 1902.49581791 2467.2408815 1903.52378666 C2468.5533815 1906.12534916 2468.5533815 1906.12534916 2468.5533815 1908.12534916 C2470.007444 1908.58941166 2470.007444 1908.58941166 2471.4908815 1909.06284916 C2474.5533815 1910.12534916 2474.5533815 1910.12534916 2475.5533815 1911.12534916 C2475.59418933 1913.1249328 2475.59592507 1915.1258017 2475.5533815 1917.12534916 C2476.4196315 1916.93972416 2477.2858815 1916.75409916 2478.1783815 1916.56284916 C2481.5533815 1917.12534916 2481.5533815 1917.12534916 2483.076819 1918.67222416 C2487.49238427 1925.07362566 2493.5533815 1934.23269961 2493.5533815 1942.12534916 C2495.8633815 1942.12534916 2498.1733815 1942.12534916 2500.5533815 1942.12534916 C2500.5533815 1944.10534916 2500.5533815 1946.08534916 2500.5533815 1948.12534916 C2502.5333815 1948.12534916 2504.5133815 1948.12534916 2506.5533815 1948.12534916 C2512.53477334 1962.45639966 2514.02357651 1976.6897337 2513.951819 1992.01597416 C2513.95384866 1993.57861795 2513.95676743 1995.1412608 2513.96051651 1996.70390141 C2513.96489283 1999.94766762 2513.95865941 2003.19118287 2513.94449478 2006.43491948 C2513.9273478 2010.55876936 2513.93730864 2014.68203553 2513.95521218 2018.80586445 C2513.9661294 2022.02153125 2513.96256859 2025.23706292 2513.9548288 2028.45273411 C2513.95285162 2029.97233222 2513.95519691 2031.49194328 2513.96226746 2033.01152623 C2514.00849775 2045.72412539 2512.24759907 2056.67910472 2506.5533815 2068.12534916 C2504.5733815 2068.12534916 2502.5933815 2068.12534916 2500.5533815 2068.12534916 C2500.5533815 2070.10534916 2500.5533815 2072.08534916 2500.5533815 2074.12534916 C2498.2433815 2074.12534916 2495.9333815 2074.12534916 2493.5533815 2074.12534916 C2493.4296315 2075.34222416 2493.3058815 2076.55909916 2493.1783815 2077.81284916 C2492.76446845 2081.19013975 2492.00764699 2084.02291612 2490.5533815 2087.12534916 C2488.5733815 2087.12534916 2486.5933815 2087.12534916 2484.5533815 2087.12534916 C2484.66166275 2088.49046635 2484.66166275 2088.49046635 2484.7721315 2089.88316166 C2484.5533815 2093.12534916 2484.5533815 2093.12534916 2483.1471315 2095.18003666 C2460.29870503 2115.04452684 2431.6151709 2114.4366965 2403.02302724 2114.36095488 C2398.79583747 2114.35199203 2394.56864921 2114.3547598 2390.34145218 2114.35566533 C2381.73718015 2114.35548676 2373.13295736 2114.34365452 2364.52870071 2114.32818377 C2357.32026389 2114.31545704 2350.11183338 2114.30714281 2342.90338761 2114.30158818 C2311.06992614 2114.27653922 2279.2365508 2114.22046687 2247.40315115 2114.15548462 C2235.98765411 2114.13218628 2224.57215572 2114.10965524 2213.15665655 2114.0874232 C2159.20973096 2113.98222475 2105.26284303 2113.86384199 2051.31597036 2113.73435718 C2040.42840869 2113.70826458 2029.54084622 2113.68265886 2018.65328079 2113.65818226 C2017.5754271 2113.65575818 2016.49757341 2113.6533341 2015.38705749 2113.65083656 C2014.3106673 2113.64841627 2013.23427712 2113.64599598 2012.12526906 2113.64350235 C1991.10624651 2113.59623291 1970.08723658 2113.54574477 1949.0682379 2113.48877156 C1939.27573207 2113.46229313 1929.48322801 2113.43720426 1919.6907087 2113.41622365 C1911.4532968 2113.39856273 1903.21590089 2113.3776689 1894.97850788 2113.35266194 C1890.81287604 2113.34010398 1886.64725462 2113.3289253 1882.4816094 2113.32193327 C1867.52903044 2113.29566566 1852.5774943 2113.22643912 1837.62999588 2112.80001652 C1836.04882423 2112.76747709 1836.04882423 2112.76747709 1834.43570971 2112.73428029 C1824.27413577 2112.38367759 1814.95025562 2109.92024063 1805.5533815 2106.12534916 C1805.5533815 2103.81534916 1805.5533815 2101.50534916 1805.5533815 2099.12534916 C1803.5733815 2099.12534916 1801.5933815 2099.12534916 1799.5533815 2099.12534916 C1799.5533815 2097.14534916 1799.5533815 2095.16534916 1799.5533815 2093.12534916 C1795.2633815 2093.12534916 1790.9733815 2093.12534916 1786.5533815 2093.12534916 C1786.5533815 2088.83534916 1786.5533815 2084.54534916 1786.5533815 2080.12534916 C1784.7590065 2079.81597416 1782.9646315 2079.50659916 1781.1158815 2079.18784916 C1775.6783815 2078.25034916 1775.6783815 2078.25034916 1774.5533815 2077.12534916 C1774.48158186 2075.60606879 1774.46946143 2074.08367435 1774.4908815 2072.56284916 C1774.49990494 2071.7365601 1774.50892838 2070.91027104 1774.51822525 2070.05894291 C1774.52982682 2069.42085698 1774.54142838 2068.78277104 1774.5533815 2068.12534916 C1773.50279557 2068.2684351 1772.45220963 2068.41152104 1771.36978775 2068.55894291 C1767.5533815 2068.12534916 1767.5533815 2068.12534916 1764.89322525 2065.16050541 C1764.06783733 2063.85148262 1763.26805521 2062.52605951 1762.4908815 2061.18784916 C1762.06315445 2060.50214848 1761.6354274 2059.8164478 1761.19473892 2059.1099683 C1759.95964482 2057.12722496 1758.75427492 2055.12892852 1757.5533815 2053.12534916 C1753.56180492 2046.67741775 1749.53530303 2040.61630993 1742.5533815 2037.12534916 C1741.62565202 2035.21609265 1740.78518809 2033.26415037 1739.98697525 2031.29722416 C1739.25897721 2029.50864995 1739.25897721 2029.50864995 1738.51627213 2027.68394291 C1738.2659523 2027.05858647 1738.01563248 2026.43323002 1737.75772721 2025.78892338 C1736.99819954 2023.89361047 1736.22691445 2022.00342418 1735.45377213 2020.11363041 C1731.35589332 2009.97533637 1731.35589332 2009.97533637 1730.5533815 2005.12534916 C1728.5733815 2005.12534916 1726.5933815 2005.12534916 1724.5533815 2005.12534916 C1724.5533815 2002.15534916 1724.5533815 1999.18534916 1724.5533815 1996.12534916 C1722.5733815 1996.12534916 1720.5933815 1996.12534916 1718.5533815 1996.12534916 C1718.5533815 1994.14534916 1718.5533815 1992.16534916 1718.5533815 1990.12534916 C1716.2433815 1990.12534916 1713.9333815 1990.12534916 1711.5533815 1990.12534916 C1696.5533815 1963.18648454 1696.5533815 1963.18648454 1696.5533815 1952.12534916 C1694.2433815 1952.12534916 1691.9333815 1952.12534916 1689.5533815 1952.12534916 C1689.5533815 1950.14534916 1689.5533815 1948.16534916 1689.5533815 1946.12534916 C1687.5733815 1946.12534916 1685.5933815 1946.12534916 1683.5533815 1946.12534916 C1683.33295182 1944.7524976 1683.33295182 1944.7524976 1683.108069 1943.35191166 C1682.88377213 1942.16339604 1682.65947525 1940.97488041 1682.4283815 1939.75034916 C1682.21955338 1938.56698979 1682.01072525 1937.38363041 1681.795569 1936.16441166 C1681.38564713 1935.16152104 1680.97572525 1934.15863041 1680.5533815 1933.12534916 C1677.58146206 1931.94719087 1677.58146206 1931.94719087 1674.5533815 1931.12534916 C1673.311194 1929.10191166 1673.311194 1929.10191166 1672.6783815 1926.75034916 C1672.45408463 1925.97948979 1672.22978775 1925.20863041 1671.998694 1924.41441166 C1671.5533815 1922.12534916 1671.5533815 1922.12534916 1671.5533815 1918.12534916 C1670.5015065 1918.29034916 1669.4496315 1918.45534916 1668.3658815 1918.62534916 C1664.5533815 1918.12534916 1664.5533815 1918.12534916 1663.01041275 1916.48472416 C1659.7008872 1911.24383326 1658.4092683 1907.07795243 1658.4908815 1900.87534916 C1658.49990494 1899.98331791 1658.50892838 1899.09128666 1658.51822525 1898.17222416 C1658.52982682 1897.49675541 1658.54142838 1896.82128666 1658.5533815 1896.12534916 C1656.5733815 1896.12534916 1654.5933815 1896.12534916 1652.5533815 1896.12534916 C1652.5533815 1894.14534916 1652.5533815 1892.16534916 1652.5533815 1890.12534916 C1650.5733815 1890.12534916 1648.5933815 1890.12534916 1646.5533815 1890.12534916 C1646.5533815 1887.81534916 1646.5533815 1885.50534916 1646.5533815 1883.12534916 C1645.5221315 1883.31097416 1644.4908815 1883.49659916 1643.4283815 1883.68784916 C1639.5533815 1883.12534916 1639.5533815 1883.12534916 1637.9283815 1881.54331791 C1632.58580452 1873.82162462 1628.19760403 1864.57394618 1627.5533815 1855.12534916 C1625.5733815 1855.12534916 1623.5933815 1855.12534916 1621.5533815 1855.12534916 C1621.5533815 1853.14534916 1621.5533815 1851.16534916 1621.5533815 1849.12534916 C1619.2433815 1849.12534916 1616.9333815 1849.12534916 1614.5533815 1849.12534916 C1614.5533815 1845.16534916 1614.5533815 1841.20534916 1614.5533815 1837.12534916 C1612.5733815 1837.12534916 1610.5933815 1837.12534916 1608.5533815 1837.12534916 C1608.5533815 1834.81534916 1608.5533815 1832.50534916 1608.5533815 1830.12534916 C1606.5733815 1830.12534916 1604.5933815 1830.12534916 1602.5533815 1830.12534916 C1602.2233815 1826.16534916 1601.8933815 1822.20534916 1601.5533815 1818.12534916 C1598.9133815 1817.13534916 1596.2733815 1816.14534916 1593.5533815 1815.12534916 C1593.5533815 1811.82534916 1593.5533815 1808.52534916 1593.5533815 1805.12534916 C1591.2433815 1805.12534916 1588.9333815 1805.12534916 1586.5533815 1805.12534916 C1585.5633815 1801.49534916 1584.5733815 1797.86534916 1583.5533815 1794.12534916 C1581.5733815 1793.79534916 1579.5933815 1793.46534916 1577.5533815 1793.12534916 C1577.5533815 1791.14534916 1577.5533815 1789.16534916 1577.5533815 1787.12534916 C1575.5733815 1787.12534916 1573.5933815 1787.12534916 1571.5533815 1787.12534916 C1569.46951261 1781.84621463 1568.97428147 1776.72996447 1568.5533815 1771.12534916 C1566.2433815 1771.12534916 1563.9333815 1771.12534916 1561.5533815 1771.12534916 C1561.5533815 1766.83534916 1561.5533815 1762.54534916 1561.5533815 1758.12534916 C1559.5733815 1758.12534916 1557.5933815 1758.12534916 1555.5533815 1758.12534916 C1555.5533815 1755.15534916 1555.5533815 1752.18534916 1555.5533815 1749.12534916 C1553.5733815 1749.12534916 1551.5933815 1749.12534916 1549.5533815 1749.12534916 C1549.5533815 1747.14534916 1549.5533815 1745.16534916 1549.5533815 1743.12534916 C1547.5733815 1743.12534916 1545.5933815 1743.12534916 1543.5533815 1743.12534916 C1543.5533815 1739.82534916 1543.5533815 1736.52534916 1543.5533815 1733.12534916 C1541.2433815 1733.12534916 1538.9333815 1733.12534916 1536.5533815 1733.12534916 C1536.5533815 1731.14534916 1536.5533815 1729.16534916 1536.5533815 1727.12534916 C1534.5733815 1727.12534916 1532.5933815 1727.12534916 1530.5533815 1727.12534916 C1530.5533815 1723.16534916 1530.5533815 1719.20534916 1530.5533815 1715.12534916 C1528.5733815 1715.12534916 1526.5933815 1715.12534916 1524.5533815 1715.12534916 C1524.5533815 1712.81534916 1524.5533815 1710.50534916 1524.5533815 1708.12534916 C1522.5733815 1708.12534916 1520.5933815 1708.12534916 1518.5533815 1708.12534916 C1518.5533815 1704.16534916 1518.5533815 1700.20534916 1518.5533815 1696.12534916 C1516.2433815 1696.12534916 1513.9333815 1696.12534916 1511.5533815 1696.12534916 C1511.5533815 1694.14534916 1511.5533815 1692.16534916 1511.5533815 1690.12534916 C1509.5733815 1690.12534916 1507.5933815 1690.12534916 1505.5533815 1690.12534916 C1505.5533815 1686.82534916 1505.5533815 1683.52534916 1505.5533815 1680.12534916 C1503.5733815 1680.12534916 1501.5933815 1680.12534916 1499.5533815 1680.12534916 C1499.5533815 1677.15534916 1499.5533815 1674.18534916 1499.5533815 1671.12534916 C1498.5015065 1671.29034916 1497.4496315 1671.45534916 1496.3658815 1671.62534916 C1492.5533815 1671.12534916 1492.5533815 1671.12534916 1491.01041275 1669.48472416 C1487.27362012 1663.56722264 1486.41861268 1659.1333282 1486.5533815 1652.12534916 C1484.5733815 1652.12534916 1482.5933815 1652.12534916 1480.5533815 1652.12534916 C1480.5533815 1650.14534916 1480.5533815 1648.16534916 1480.5533815 1646.12534916 C1478.5733815 1646.12534916 1476.5933815 1646.12534916 1474.5533815 1646.12534916 C1474.5533815 1643.15534916 1474.5533815 1640.18534916 1474.5533815 1637.12534916 C1472.5733815 1637.12534916 1470.5933815 1637.12534916 1468.5533815 1637.12534916 C1468.5533815 1634.81534916 1468.5533815 1632.50534916 1468.5533815 1630.12534916 C1466.2433815 1630.12534916 1463.9333815 1630.12534916 1461.5533815 1630.12534916 C1461.3174025 1629.51014409 1461.08142349 1628.89493901 1460.83829361 1628.26109135 C1459.7464977 1625.45580814 1458.61925563 1622.66610916 1457.4908815 1619.87534916 C1457.12027603 1618.90726323 1456.74967057 1617.93917729 1456.36783463 1616.94175541 C1453.9795792 1610.82883191 1453.9795792 1610.82883191 1449.0221315 1606.88706791 C1444.8356854 1604.7608436 1443.25955857 1602.17871565 1441.1158815 1598.18784916 C1440.35826108 1596.8419549 1439.59911583 1595.49691799 1438.83853775 1594.15269291 C1438.46229264 1593.47835209 1438.08604752 1592.80401127 1437.69840103 1592.10923588 C1436.60455381 1590.21401146 1435.44712156 1588.38941325 1434.23697525 1586.56675541 C1430.07967884 1580.25272205 1427.5533815 1575.75937158 1427.5533815 1568.12534916 C1425.5733815 1568.12534916 1423.5933815 1568.12534916 1421.5533815 1568.12534916 C1418.85267038 1561.84554029 1416.85313474 1555.84074089 1415.5533815 1549.12534916 C1413.2433815 1549.12534916 1410.9333815 1549.12534916 1408.5533815 1549.12534916 C1408.5533815 1547.14534916 1408.5533815 1545.16534916 1408.5533815 1543.12534916 C1406.5733815 1543.12534916 1404.5933815 1543.12534916 1402.5533815 1543.12534916 C1402.5533815 1538.83534916 1402.5533815 1534.54534916 1402.5533815 1530.12534916 C1400.5733815 1530.12534916 1398.5933815 1530.12534916 1396.5533815 1530.12534916 C1396.5533815 1528.14534916 1396.5533815 1526.16534916 1396.5533815 1524.12534916 C1394.2433815 1524.12534916 1391.9333815 1524.12534916 1389.5533815 1524.12534916 C1389.5533815 1520.16534916 1389.5533815 1516.20534916 1389.5533815 1512.12534916 C1387.5733815 1512.12534916 1385.5933815 1512.12534916 1383.5533815 1512.12534916 C1383.5533815 1509.81534916 1383.5533815 1507.50534916 1383.5533815 1505.12534916 C1381.5733815 1505.12534916 1379.5933815 1505.12534916 1377.5533815 1505.12534916 C1377.5533815 1502.15534916 1377.5533815 1499.18534916 1377.5533815 1496.12534916 C1121.1433815 1496.12534916 864.7333815 1496.12534916 600.5533815 1496.12534916 C600.8833815 1574.33534916 601.2133815 1652.54534916 601.5533815 1733.12534916 C601.77860389 1827.33760424 601.77860389 1827.33760424 601.79361588 1872.04331791 C601.79849571 1884.93944627 601.81527921 1897.8354973 601.8389754 1910.73160273 C601.86271817 1923.76938218 601.8751466 1936.80713369 601.87631732 1949.84493506 C601.87721366 1956.95764045 601.88246049 1964.07026804 601.90113693 1971.18295109 C601.91816571 1977.67360054 601.9197751 1984.16413931 601.91099793 1990.65480626 C601.91023453 1992.99729903 601.91447653 1995.33980043 601.92445618 1997.68227208 C601.99637009 2015.60371442 601.51434 2034.01331102 595.3658815 2051.06284916 C595.06544937 2051.92490971 594.76501724 2052.78697026 594.45548111 2053.67515385 C590.03666075 2065.86641436 583.62500103 2078.74426948 572.5533815 2086.12534916 C570.99142715 2086.20025639 569.42878193 2086.26132497 567.8658815 2086.31284916 C565.10033356 2086.64968881 565.10033356 2086.64968881 562.5533815 2088.12534916 C560.49266481 2091.17477527 558.89293472 2094.09668468 557.41788346 2097.45225346 C554.82772852 2103.26124172 551.91128547 2106.76881328 545.80728775 2109.23472416 C544.47504166 2109.55183354 544.47504166 2109.55183354 543.1158815 2109.87534916 C542.23029557 2110.09706791 541.34470963 2110.31878666 540.43228775 2110.54722416 C533.78170363 2111.8827553 527.32169572 2112.31601915 520.56217629 2112.43609059 C519.09557789 2112.4666665 519.09557789 2112.4666665 517.59935124 2112.4978601 C514.36709509 2112.5630921 511.1347651 2112.62099976 507.90235001 2112.67777836 C506.21254529 2112.70917818 506.21254529 2112.70917818 504.4886031 2112.74121234 C479.83869557 2113.19507548 455.19204454 2113.28212838 430.53859168 2113.28539193 C424.31831906 2113.28729189 418.09805236 2113.29485985 411.87778336 2113.30152714 C397.69529751 2113.31558709 383.51281591 2113.32160122 369.33032459 2113.32621909 C362.29803032 2113.32857885 355.26573683 2113.33218294 348.23344318 2113.33591446 C324.07853236 2113.34870207 299.92362193 2113.35944138 275.76870781 2113.36291707 C274.26481337 2113.36313868 272.76091893 2113.36336046 271.25702449 2113.36358242 C269.75005551 2113.36380304 268.24308652 2113.36402352 266.73611754 2113.36424387 C263.71410527 2113.36468636 260.69209299 2113.36513349 257.67008072 2113.36558354 C256.92084833 2113.36569293 256.17161594 2113.36580232 255.39967954 2113.36591503 C230.99844216 2113.36956161 206.59723418 2113.38556611 182.19600809 2113.4087739 C156.27974307 2113.43337716 130.36349491 2113.44708937 104.44721788 2113.44828498 C101.60418142 2113.44845641 98.76114497 2113.44867182 95.91810852 2113.44891942 C95.21828349 2113.44897518 94.51845847 2113.44903095 93.79742662 2113.44908841 C82.5676096 2113.45023595 71.3378232 2113.46122859 60.10801651 2113.47580647 C48.84359929 2113.49017798 37.57922066 2113.49315146 26.31479324 2113.48536649 C20.22078791 2113.48146115 14.12688543 2113.48238552 8.03289276 2113.49642384 C2.4520782 2113.50916334 -3.12855619 2113.5079649 -8.70937051 2113.49583313 C-10.72354358 2113.49387673 -12.73772944 2113.49695189 -14.75188456 2113.50567749 C-27.9644265 2113.55927981 -40.65184401 2113.44276465 -52.4466185 2106.68784916 C-53.9934935 2105.82353276 -53.9934935 2105.82353276 -55.5716185 2104.94175541 C-58.40302339 2103.15289227 -60.98458915 2101.39902654 -63.4466185 2099.12534916 C-63.7591185 2095.87534916 -63.7591185 2095.87534916 -63.4466185 2093.12534916 C-65.4266185 2093.12534916 -67.4066185 2093.12534916 -69.4466185 2093.12534916 C-69.4466185 2091.14534916 -69.4466185 2089.16534916 -69.4466185 2087.12534916 C-71.4266185 2087.12534916 -73.4066185 2087.12534916 -75.4466185 2087.12534916 C-75.4466185 2084.81534916 -75.4466185 2082.50534916 -75.4466185 2080.12534916 C-77.024431 2080.37284916 -77.024431 2080.37284916 -78.6341185 2080.62534916 C-82.4466185 2080.12534916 -82.4466185 2080.12534916 -83.98958725 2078.69566166 C-87.57519543 2073.45920162 -88.3057492 2068.37482364 -88.4466185 2062.12534916 C-90.4266185 2062.12534916 -92.4066185 2062.12534916 -94.4466185 2062.12534916 C-94.4466185 2057.83534916 -94.4466185 2053.54534916 -94.4466185 2049.12534916 C-96.4266185 2049.12534916 -98.4066185 2049.12534916 -100.4466185 2049.12534916 C-100.4466185 1395.06534916 -100.4466185 741.00534916 -100.4466185 67.12534916 C-98.4666185 67.12534916 -96.4866185 67.12534916 -94.4466185 67.12534916 C-94.4466185 62.83534916 -94.4466185 58.54534916 -94.4466185 54.12534916 C-92.4666185 54.12534916 -90.4866185 54.12534916 -88.4466185 54.12534916 C-88.4466185 51.15534916 -88.4466185 48.18534916 -88.4466185 45.12534916 C-86.1366185 45.12534916 -83.8266185 45.12534916 -81.4466185 45.12534916 C-81.4466185 43.14534916 -81.4466185 41.16534916 -81.4466185 39.12534916 C-79.4666185 39.12534916 -77.4866185 39.12534916 -75.4466185 39.12534916 C-75.1991185 37.70222416 -75.1991185 37.70222416 -74.9466185 36.25034916 C-71.61235847 24.78883032 -60.03940458 16.5167136 -50.10311264 10.97569096 C-34.7636691 2.89038724 -17.20383716 -0.04932649 0 0 Z M764.8243776 636.35679448 C763.35093203 636.36180206 761.87748647 636.366809 760.4040409 636.37181526 C707.12014262 636.55409057 653.83690507 636.85103971 600.5533815 637.12534916 C600.5533815 713.02534916 600.5533815 788.92534916 600.5533815 867.12534916 C683.50514745 867.13852376 683.50514745 867.13852376 766.45691354 867.15071229 C767.85247873 867.15090642 769.24804392 867.1511008 770.6436091 867.15129541 C818.979917 867.15803523 867.31622494 867.16340754 915.65253311 867.1676923 C917.22147721 867.16783175 918.79042131 867.16797121 920.35936541 867.16811066 C953.28969794 867.17103315 986.22003049 867.17374989 1019.15036306 867.17622884 C1035.69160675 867.17747427 1052.23285043 867.17875924 1068.77409412 867.18008161 C1071.26932597 867.18028085 1073.76455783 867.18047897 1076.25978968 867.18067704 C1114.69676519 867.18373813 1153.13374038 867.18764902 1191.57071549 867.19401371 C1192.8109805 867.19421906 1192.8109805 867.19421906 1194.07630138 867.19442856 C1207.4080233 867.19664102 1220.73974521 867.19892459 1234.07146712 867.2012176 C1272.45663888 867.20781864 1310.84181039 867.21389644 1349.22698265 867.21648896 C1350.01583447 867.21654249 1350.80468628 867.21659603 1351.6174427 867.21665118 C1368.93191398 867.21781677 1386.24638526 867.21871171 1403.56085657 867.21935015 C1410.52692288 867.21961178 1417.49298918 867.2199124 1424.45905548 867.22022641 C1425.60268562 867.22027655 1425.60268562 867.22027655 1426.76941939 867.2203277 C1451.36141866 867.22142531 1475.95341612 867.22570034 1500.54541466 867.23163137 C1525.30456311 867.23758824 1550.06370981 867.24045059 1574.822859 867.23897315 C1578.2394978 867.23877005 1581.65613661 867.23860268 1585.07277542 867.23845685 C1586.07746793 867.23841202 1586.07746793 867.23841202 1587.10245725 867.2383663 C1598.38238084 867.23796149 1609.66230031 867.24153602 1620.94222297 867.24614671 C1630.7337708 867.24987741 1640.52531431 867.25002645 1650.31686243 867.24718098 C1655.90771221 867.24566122 1661.49854958 867.24577645 1667.08939807 867.25023235 C1672.16476732 867.25424698 1677.24011434 867.25375043 1682.31548321 867.24948914 C1684.15050623 867.24876861 1685.98553084 867.24976315 1687.82055184 867.25258441 C1690.29337184 867.25614838 1692.76611094 867.25366385 1695.23892826 867.24954766 C1695.96040762 867.25205654 1696.68188698 867.25456541 1697.42522935 867.25715032 C1701.11315034 867.29396435 1701.11315034 867.29396435 1704.5533815 866.12534916 C1704.5533815 865.46534916 1704.5533815 864.80534916 1704.5533815 864.12534916 C1706.39114151 864.06589116 1706.39114151 864.06589116 1708.26602799 864.00523198 C1712.8459141 863.85217425 1717.42460673 863.67489586 1722.00333267 863.49058354 C1723.97867753 863.41439144 1725.95428157 863.34462023 1727.93009049 863.28159916 C1730.7833228 863.18944329 1733.6348003 863.07361704 1736.48697525 862.95347416 C1737.35922241 862.93037175 1738.23146958 862.90726933 1739.13014847 862.88346684 C1743.66520972 862.66896758 1747.22245672 862.01787139 1751.35820633 860.08549321 C1752.14950975 859.71999741 1752.94081316 859.35450161 1753.75609547 858.97793019 C1754.34919986 858.69657845 1754.94230425 858.41522671 1755.5533815 858.12534916 C1756.44667084 832.85952776 1756.77626635 807.61270845 1756.86197525 782.33238041 C1756.86527257 781.38173514 1756.8685699 780.43108986 1756.87196714 779.45163715 C1756.90258387 770.45502659 1756.92919357 761.45841131 1756.94638592 752.46176445 C1756.96845024 741.06916637 1757.01098952 729.67702864 1757.07982349 718.2846145 C1757.12701569 710.19641583 1757.15130841 702.10834231 1757.15858281 694.02001029 C1757.16352351 689.2150857 1757.17846871 684.41069153 1757.21832711 679.605919 C1757.25514801 675.11310285 1757.26361862 670.62112232 1757.25032097 666.12818348 C1757.2503749 664.48463986 1757.26066215 662.84105901 1757.2820726 661.19765484 C1757.72155759 651.32481457 1757.72155759 651.32481457 1753.68633133 642.67544377 C1751.00345716 640.15931992 1748.50464909 638.97512415 1744.8658815 638.25034916 C1743.93388932 638.04667729 1743.00189713 637.84300541 1742.04166275 637.63316166 C1732.41316712 636.23147697 1722.88458289 635.98214328 1713.16492802 635.99950802 C1711.72808641 635.99846307 1710.29124506 635.99698048 1708.8544043 635.99510366 C1704.91453716 635.99122108 1700.97469464 635.99353391 1697.03482791 635.99688161 C1692.74116047 635.99942442 1688.44749673 635.99615555 1684.15382981 635.99363828 C1676.62481114 635.99002724 1669.09579963 635.99013584 1661.56678063 635.99268544 C1650.35817048 635.99647024 1639.14956638 635.99453168 1627.94095628 635.99147713 C1607.85425421 635.98619821 1587.76755532 635.98667593 1567.68085295 635.98955604 C1549.95340208 635.99208423 1532.22595237 635.99272269 1514.49850136 635.9915334 C1513.31664961 635.99145701 1512.13479786 635.99138063 1510.91713242 635.99130193 C1506.11547731 635.99099043 1501.31382221 635.99067202 1496.5121671 635.99034216 C1451.31586317 635.98727508 1406.11956121 635.9900609 1360.92325759 635.99543906 C1322.60663995 635.9999645 1284.29002533 636.00006539 1245.97340771 635.99543284 C1068.79741924 635.96923657 1068.79741924 635.96923657 764.8243776 636.35679448 Z " fill="#000000" transform="translate(356.4466184973717,591.8746508359909)"/>
<path d="M0 0 C1.13463181 -0.00570007 2.26926361 -0.01140015 3.4382782 -0.01727295 C5.8326221 -0.02667408 8.22697866 -0.03323736 10.62133789 -0.03710938 C14.21329533 -0.0467451 17.80466246 -0.0777877 21.39648438 -0.109375 C39.54402914 -0.19416233 57.21896802 0.85672422 74.63671875 6.328125 C75.52681641 6.59238281 76.41691406 6.85664063 77.33398438 7.12890625 C83.50332589 8.98017857 83.50332589 8.98017857 85.94921875 10.203125 C85.94921875 12.513125 85.94921875 14.823125 85.94921875 17.203125 C87.22796875 17.244375 88.50671875 17.285625 89.82421875 17.328125 C95.27571539 17.85366496 100.2213608 19.4092028 105.38671875 21.140625 C106.17997559 21.40568848 106.97323242 21.67075195 107.79052734 21.94384766 C111.21835702 23.12659206 113.90165636 24.17141674 116.94921875 26.203125 C117.13671875 29.328125 117.13671875 29.328125 116.94921875 32.203125 C118.92921875 32.203125 120.90921875 32.203125 122.94921875 32.203125 C122.90796875 33.09 122.86671875 33.976875 122.82421875 34.890625 C123.57583935 38.24846203 123.57583935 38.24846203 125.85546875 39.3984375 C127.58740901 40.18219527 129.32059235 40.96320913 131.0546875 41.7421875 C141.13288731 46.82889024 149.68152471 55.56296851 153.51171875 66.265625 C153.98609375 67.235 154.46046875 68.204375 154.94921875 69.203125 C158.03291762 70.26062057 158.03291762 70.26062057 160.94921875 70.203125 C160.94921875 73.173125 160.94921875 76.143125 160.94921875 79.203125 C162.92921875 79.203125 164.90921875 79.203125 166.94921875 79.203125 C166.94921875 84.483125 166.94921875 89.763125 166.94921875 95.203125 C168.92921875 95.203125 170.90921875 95.203125 172.94921875 95.203125 C172.94921875 97.183125 172.94921875 99.163125 172.94921875 101.203125 C175.25921875 101.203125 177.56921875 101.203125 179.94921875 101.203125 C185.36784081 116.38353948 187.08408338 130.55130594 187.0234375 146.640625 C187.02126221 147.75190765 187.01908691 148.86319031 187.0168457 150.00814819 C186.96714045 164.5346331 186.72317879 179.05912272 186.48565674 193.58349609 C186.42381744 197.39287975 186.36437221 201.20230083 186.3046875 205.01171875 C186.18845715 212.40889136 186.06970949 219.80602043 185.94921875 227.203125 C183.96921875 227.203125 181.98921875 227.203125 179.94921875 227.203125 C179.94921875 231.163125 179.94921875 235.123125 179.94921875 239.203125 C177.63921875 239.203125 175.32921875 239.203125 172.94921875 239.203125 C172.94921875 243.493125 172.94921875 247.783125 172.94921875 252.203125 C170.96921875 252.203125 168.98921875 252.203125 166.94921875 252.203125 C166.94921875 256.163125 166.94921875 260.123125 166.94921875 264.203125 C164.96921875 264.203125 162.98921875 264.203125 160.94921875 264.203125 C160.94921875 266.513125 160.94921875 268.823125 160.94921875 271.203125 C158.96921875 271.203125 156.98921875 271.203125 154.94921875 271.203125 C154.94921875 275.163125 154.94921875 279.123125 154.94921875 283.203125 C152.63921875 283.203125 150.32921875 283.203125 147.94921875 283.203125 C147.94921875 285.183125 147.94921875 287.163125 147.94921875 289.203125 C145.96921875 289.203125 143.98921875 289.203125 141.94921875 289.203125 C142.04976562 290.2446875 142.1503125 291.28625 142.25390625 292.359375 C141.71213621 299.19401238 135.88727247 302.95521661 130.94921875 307.203125 C130.08941406 307.94949219 129.22960938 308.69585938 128.34375 309.46484375 C123.13154938 313.55008208 119.42852691 314.95002669 112.78515625 314.44921875 C112.17929688 314.36800781 111.5734375 314.28679687 110.94921875 314.203125 C110.94921875 316.513125 110.94921875 318.823125 110.94921875 321.203125 C108.96921875 321.203125 106.98921875 321.203125 104.94921875 321.203125 C104.94921875 323.183125 104.94921875 325.163125 104.94921875 327.203125 C100.65921875 327.203125 96.36921875 327.203125 91.94921875 327.203125 C91.94921875 329.183125 91.94921875 331.163125 91.94921875 333.203125 C86.38077909 334.6702588 80.81188051 336.04527976 75.16796875 337.1875 C74.3375708 337.35604492 73.50717285 337.52458984 72.65161133 337.69824219 C71.00692923 338.02842397 69.36095692 338.35225886 67.71362305 338.66894531 C66.93929932 338.82459961 66.16497559 338.98025391 65.3671875 339.140625 C64.68422607 339.27339844 64.00126465 339.40617187 63.29760742 339.54296875 C60.75046555 340.18726302 60.75046555 340.18726302 57.76597595 341.72012329 C53.97164038 343.35682506 50.68498846 343.58348165 46.53271484 343.59130859 C45.47521278 343.59919403 45.47521278 343.59919403 44.39634705 343.60723877 C42.08821838 343.62034019 39.78079074 343.61173832 37.47265625 343.6015625 C35.85795968 343.60358563 34.24326401 343.60649906 32.62857056 343.61026001 C29.25456999 343.61466959 25.88080859 343.60829489 22.50683594 343.59423828 C18.18811268 343.5771195 13.8699477 343.58701298 9.55124474 343.60495567 C6.22089445 343.61580712 2.89067611 343.61234143 -0.43967819 343.6045723 C-2.03204795 343.60257547 -3.62442981 343.60501135 -5.21678543 343.61201096 C-7.44253459 343.61965117 -9.66738407 343.60798767 -11.89306641 343.59130859 C-13.15768707 343.58892181 -14.42230774 343.58653503 -15.72525024 343.58407593 C-19.30634398 343.17384942 -21.11248222 342.21287941 -24.05078125 340.203125 C-26.70452624 339.4925225 -26.70452624 339.4925225 -29.5078125 339.140625 C-30.53841797 338.98335937 -31.56902344 338.82609375 -32.63085938 338.6640625 C-34.2309082 338.43589844 -34.2309082 338.43589844 -35.86328125 338.203125 C-42.9791928 337.17725137 -49.41310189 336.0215365 -56.05078125 333.203125 C-56.05078125 331.223125 -56.05078125 329.243125 -56.05078125 327.203125 C-60.01078125 327.203125 -63.97078125 327.203125 -68.05078125 327.203125 C-68.05078125 324.893125 -68.05078125 322.583125 -68.05078125 320.203125 C-69.32953125 320.14125 -70.60828125 320.079375 -71.92578125 320.015625 C-77.6260252 319.41750719 -82.11967057 316.99296006 -87.05078125 314.203125 C-87.05078125 312.223125 -87.05078125 310.243125 -87.05078125 308.203125 C-89.03078125 308.203125 -91.01078125 308.203125 -93.05078125 308.203125 C-93.05078125 306.223125 -93.05078125 304.243125 -93.05078125 302.203125 C-95.03078125 302.203125 -97.01078125 302.203125 -99.05078125 302.203125 C-99.38078125 300.223125 -99.71078125 298.243125 -100.05078125 296.203125 C-105.99078125 294.718125 -105.99078125 294.718125 -112.05078125 293.203125 C-112.05078125 289.903125 -112.05078125 286.603125 -112.05078125 283.203125 C-114.03078125 283.203125 -116.01078125 283.203125 -118.05078125 283.203125 C-118.05078125 281.223125 -118.05078125 279.243125 -118.05078125 277.203125 C-120.03078125 277.203125 -122.01078125 277.203125 -124.05078125 277.203125 C-124.05078125 272.913125 -124.05078125 268.623125 -124.05078125 264.203125 C-126.36078125 264.203125 -128.67078125 264.203125 -131.05078125 264.203125 C-131.05078125 262.223125 -131.05078125 260.243125 -131.05078125 258.203125 C-133.03078125 258.203125 -135.01078125 258.203125 -137.05078125 258.203125 C-142.1584018 247.4919984 -143.35064711 239.06448588 -143.05078125 227.203125 C-145.03078125 227.203125 -147.01078125 227.203125 -149.05078125 227.203125 C-155.72743345 214.08004998 -156.49815853 200.62210498 -156.34375 186.20703125 C-156.33813573 184.63663647 -156.33387433 183.06623633 -156.33088684 181.49583435 C-156.31958183 177.41715276 -156.29024355 173.33880576 -156.2567749 169.26025391 C-156.22575943 165.0765434 -156.21231515 160.89277738 -156.19726562 156.70898438 C-156.16535568 148.54021321 -156.11433973 140.37171104 -156.05078125 132.203125 C-153.74078125 132.203125 -151.43078125 132.203125 -149.05078125 132.203125 C-149.05078125 125.933125 -149.05078125 119.663125 -149.05078125 113.203125 C-147.07078125 113.203125 -145.09078125 113.203125 -143.05078125 113.203125 C-143.05078125 109.243125 -143.05078125 105.283125 -143.05078125 101.203125 C-141.07078125 101.203125 -139.09078125 101.203125 -137.05078125 101.203125 C-137.12039062 100.23632812 -137.19 99.26953125 -137.26171875 98.2734375 C-137.5882536 90.42105181 -137.49964191 84.61377106 -132.8515625 77.90234375 C-131.05078125 76.203125 -131.05078125 76.203125 -127.17578125 75.578125 C-126.14453125 75.784375 -125.11328125 75.990625 -124.05078125 76.203125 C-124.05078125 71.913125 -124.05078125 67.623125 -124.05078125 63.203125 C-120.42078125 62.213125 -116.79078125 61.223125 -113.05078125 60.203125 C-112.72078125 58.223125 -112.39078125 56.243125 -112.05078125 54.203125 C-109.74078125 54.203125 -107.43078125 54.203125 -105.05078125 54.203125 C-105.00953125 53.543125 -104.96828125 52.883125 -104.92578125 52.203125 C-103.05181877 45.7781108 -97.86839047 40.66822623 -93.05078125 36.203125 C-92.31794922 35.51476562 -92.31794922 35.51476562 -91.5703125 34.8125 C-89.78245477 33.19875668 -87.94273429 31.69375466 -86.05078125 30.203125 C-85.24640625 29.56375 -84.44203125 28.924375 -83.61328125 28.265625 C-76.40817784 23.07124812 -70.81375946 22.32543402 -62.05078125 23.203125 C-62.05078125 21.223125 -62.05078125 19.243125 -62.05078125 17.203125 C-58.75078125 17.203125 -55.45078125 17.203125 -52.05078125 17.203125 C-52.05078125 14.893125 -52.05078125 12.583125 -52.05078125 10.203125 C-46.11078125 10.203125 -40.17078125 10.203125 -34.05078125 10.203125 C-34.05078125 8.223125 -34.05078125 6.243125 -34.05078125 4.203125 C-32.26170971 3.71435803 -30.46932205 3.23772831 -28.67578125 2.765625 C-27.67804687 2.49878906 -26.6803125 2.23195313 -25.65234375 1.95703125 C-17.17585788 0.18266924 -8.6330958 0.03449266 0 0 Z " fill="#010101" transform="translate(2652.05078125,332.796875)"/>
<path d="M0 0 C0.66 0.33 1.32 0.66 2 1 C-2.95 5.95 -7.9 10.9 -13 16 C-13 10.79628205 -8.49504984 7.5790344 -5 4 C-3.37707762 2.6137538 -1.7331451 1.24569804 0 0 Z " fill="#404040" transform="translate(299,607)"/>
<path d="M0 0 C1.134375 0.020625 2.26875 0.04125 3.4375 0.0625 C3.4375 0.3925 3.4375 0.7225 3.4375 1.0625 C2.07625 1.4646875 2.07625 1.4646875 0.6875 1.875 C-2.27721963 2.95826294 -4.1794754 4.04609457 -6.5625 6.0625 C-4.25951087 0.07472826 -4.25951087 0.07472826 0 0 Z " fill="#454545" transform="translate(2524.5625,408.9375)"/>
</svg>
