<?xml version="1.0" standalone="no"?>
<!DOCTYPE svg PUBLIC "-//W3C//DTD SVG 20010904//EN"
 "http://www.w3.org/TR/2001/REC-SVG-20010904/DTD/svg10.dtd">
<svg version="1.0" xmlns="http://www.w3.org/2000/svg"
 width="1600.000000pt" height="1600.000000pt" viewBox="0 0 1600.000000 1600.000000"
 preserveAspectRatio="xMidYMid meet">

<g transform="translate(0.000000,1600.000000) scale(0.100000,-0.100000)"
fill="#000000" stroke="none">
<path d="M14036 13715 c-8 -8 -28 -15 -43 -15 -16 0 -38 -7 -49 -15 -10 -8
-32 -15 -47 -15 -15 0 -30 -7 -33 -15 -4 -8 -18 -15 -34 -15 -15 0 -33 -7 -40
-15 -7 -8 -27 -15 -45 -15 -20 0 -35 -6 -39 -15 -3 -8 -17 -15 -31 -15 -14 0
-28 -7 -31 -15 -4 -9 -19 -15 -39 -15 -19 0 -40 -7 -48 -15 -8 -8 -33 -17 -55
-21 -23 -3 -43 -13 -46 -20 -3 -9 -21 -14 -46 -14 -27 0 -43 -5 -46 -15 -4 -9
-19 -15 -35 -15 -19 0 -29 -5 -29 -15 0 -10 -10 -15 -34 -15 -18 0 -39 -7 -46
-15 -7 -8 -26 -15 -42 -15 -16 0 -31 -6 -34 -15 -4 -9 -19 -15 -39 -15 -19 0
-40 -7 -49 -15 -8 -8 -28 -15 -45 -15 -16 0 -36 -7 -45 -15 -8 -8 -24 -15 -35
-15 -11 0 -26 -7 -34 -15 -8 -8 -33 -17 -56 -21 -25 -4 -41 -12 -41 -20 0 -9
-11 -14 -29 -14 -16 0 -31 -6 -35 -15 -3 -10 -19 -15 -45 -15 -25 0 -41 -5
-45 -15 -3 -8 -18 -15 -34 -15 -15 0 -37 -7 -48 -15 -10 -8 -33 -15 -51 -15
-17 0 -38 -7 -47 -15 -8 -8 -26 -15 -41 -15 -14 0 -28 -7 -31 -15 -4 -9 -19
-15 -35 -15 -19 0 -29 -5 -29 -15 0 -10 -10 -15 -34 -15 -19 0 -41 -6 -48 -14
-8 -7 -29 -17 -46 -21 -18 -3 -32 -13 -32 -21 0 -10 -14 -14 -50 -14 -36 0
-52 -4 -56 -15 -4 -9 -19 -15 -40 -15 -24 0 -34 -5 -34 -15 0 -11 -11 -15 -40
-15 -27 0 -43 -5 -46 -15 -4 -9 -19 -15 -40 -15 -24 0 -34 -5 -34 -15 0 -10
-10 -15 -28 -15 -16 0 -37 -7 -48 -15 -10 -8 -31 -15 -46 -15 -15 0 -31 -6
-35 -13 -4 -8 -26 -17 -47 -20 -22 -4 -42 -11 -46 -17 -4 -7 -26 -14 -49 -17
-25 -4 -41 -11 -41 -19 0 -9 -12 -14 -35 -14 -24 0 -35 -5 -35 -15 0 -11 -11
-15 -40 -15 -27 0 -43 -5 -46 -15 -4 -9 -19 -15 -35 -15 -19 0 -29 -5 -29 -15
0 -11 -11 -15 -40 -15 -27 0 -43 -5 -46 -15 -4 -10 -20 -15 -44 -15 -21 0 -43
-7 -50 -15 -7 -8 -25 -15 -41 -15 -15 0 -34 -7 -43 -15 -8 -8 -22 -15 -30 -15
-9 0 -33 -9 -53 -20 -21 -11 -43 -20 -50 -20 -7 0 -13 -7 -13 -15 0 -11 -12
-15 -45 -15 -33 0 -45 -4 -45 -15 0 -10 -11 -15 -35 -15 -24 0 -35 -5 -35 -15
0 -11 -12 -15 -49 -15 -31 0 -53 -5 -61 -15 -7 -8 -25 -15 -41 -15 -19 0 -29
-5 -29 -15 0 -10 -10 -15 -29 -15 -16 0 -34 -7 -41 -15 -7 -8 -28 -15 -47 -15
-21 0 -36 -6 -39 -15 -4 -9 -19 -15 -35 -15 -18 0 -29 -5 -29 -14 0 -9 -17
-16 -46 -21 -25 -3 -48 -13 -51 -21 -3 -9 -20 -14 -49 -14 -32 0 -44 -4 -44
-15 0 -11 -11 -15 -40 -15 -27 0 -43 -5 -46 -15 -4 -9 -19 -15 -35 -15 -17 0
-32 -6 -35 -15 -4 -9 -19 -15 -39 -15 -18 0 -38 -7 -45 -15 -7 -8 -25 -15 -41
-15 -19 0 -29 -5 -29 -15 0 -10 -10 -15 -34 -15 -19 0 -41 -7 -50 -15 -8 -8
-25 -15 -38 -15 -13 0 -40 -9 -61 -20 -20 -11 -44 -20 -52 -20 -8 0 -15 -7
-15 -15 0 -11 -12 -15 -44 -15 -30 0 -46 -5 -50 -15 -3 -9 -18 -15 -36 -15
-20 0 -30 -5 -30 -15 0 -11 -11 -15 -40 -15 -27 0 -43 -5 -46 -15 -4 -9 -19
-15 -39 -15 -19 0 -40 -7 -49 -15 -8 -8 -28 -15 -45 -15 -16 0 -36 -7 -45 -15
-8 -8 -26 -15 -41 -15 -14 0 -28 -7 -31 -15 -4 -9 -19 -15 -35 -15 -18 0 -29
-5 -29 -14 0 -9 -17 -16 -50 -21 -33 -5 -50 -12 -50 -21 0 -9 -11 -14 -29 -14
-16 0 -34 -7 -41 -15 -7 -9 -29 -15 -51 -15 -20 0 -44 -7 -53 -15 -8 -8 -26
-15 -41 -15 -14 0 -28 -7 -31 -15 -4 -10 -20 -15 -45 -15 -26 0 -42 -5 -45
-15 -4 -9 -19 -15 -35 -15 -19 0 -29 -5 -29 -15 0 -10 -10 -15 -34 -15 -19 0
-41 -7 -50 -15 -8 -8 -26 -15 -41 -15 -14 0 -28 -7 -31 -15 -4 -9 -26 -17 -55
-21 -27 -4 -54 -13 -60 -20 -6 -8 -25 -14 -41 -14 -16 0 -31 -6 -34 -15 -4 -9
-19 -15 -35 -15 -19 0 -29 -5 -29 -15 0 -11 -12 -15 -45 -15 -33 0 -45 -4 -45
-15 0 -10 -10 -15 -30 -15 -18 0 -33 -6 -36 -15 -4 -9 -19 -15 -39 -15 -19 0
-40 -7 -49 -15 -8 -8 -28 -15 -45 -15 -16 0 -36 -6 -43 -13 -7 -8 -30 -16 -51
-20 -20 -3 -44 -13 -53 -21 -8 -9 -26 -16 -40 -16 -15 0 -24 -6 -24 -15 0 -10
-10 -15 -30 -15 -20 0 -30 -5 -30 -15 0 -11 -12 -15 -45 -15 -31 0 -47 -5 -51
-15 -4 -8 -18 -15 -34 -15 -16 0 -30 -7 -34 -15 -4 -10 -20 -15 -50 -15 -26 0
-51 -6 -60 -15 -8 -8 -26 -15 -41 -15 -14 0 -28 -7 -31 -15 -4 -8 -18 -15 -33
-15 -15 0 -36 -7 -47 -15 -10 -8 -29 -15 -42 -15 -12 0 -25 -6 -28 -14 -3 -8
-20 -17 -39 -20 -18 -4 -38 -13 -45 -21 -7 -8 -28 -15 -46 -15 -24 0 -34 -5
-34 -15 0 -11 -12 -15 -44 -15 -26 0 -48 -6 -56 -15 -7 -8 -27 -15 -45 -15
-20 0 -35 -6 -39 -15 -3 -9 -18 -15 -36 -15 -20 0 -30 -5 -30 -15 0 -11 -11
-15 -40 -15 -27 0 -43 -5 -46 -15 -4 -9 -19 -15 -35 -15 -17 0 -32 -6 -35 -15
-4 -8 -17 -15 -30 -15 -13 0 -41 -9 -61 -20 -21 -11 -50 -20 -65 -20 -18 0
-28 -5 -28 -15 0 -10 -10 -15 -34 -15 -21 0 -36 -6 -40 -15 -3 -10 -19 -15
-46 -15 -29 0 -40 -4 -40 -15 0 -10 -10 -15 -30 -15 -20 0 -30 -5 -30 -15 0
-11 -12 -15 -45 -15 -33 0 -45 -4 -45 -15 0 -10 -10 -15 -34 -15 -19 0 -41 -6
-48 -13 -7 -8 -33 -16 -58 -20 -24 -3 -46 -11 -48 -16 -2 -6 -14 -11 -27 -11
-12 0 -28 -7 -35 -15 -7 -8 -30 -18 -51 -21 -21 -4 -40 -13 -43 -20 -3 -8 -19
-14 -36 -14 -20 0 -30 -5 -30 -15 0 -10 -10 -15 -29 -15 -16 0 -34 -7 -41 -15
-7 -9 -29 -15 -51 -15 -20 0 -44 -7 -53 -15 -8 -8 -28 -15 -45 -15 -21 0 -31
-5 -31 -15 0 -11 -11 -15 -40 -15 -27 0 -43 -5 -46 -15 -4 -8 -19 -15 -35 -15
-15 0 -32 -6 -36 -13 -4 -8 -26 -17 -47 -20 -22 -4 -42 -11 -45 -16 -4 -5 -19
-13 -34 -16 -15 -4 -27 -13 -27 -21 0 -10 -14 -14 -49 -14 -31 0 -53 -5 -61
-15 -7 -8 -28 -15 -46 -15 -24 0 -34 -5 -34 -15 0 -10 -10 -15 -30 -15 -20 0
-30 -5 -30 -15 0 -11 -12 -15 -45 -15 -31 0 -47 -5 -51 -15 -4 -9 -19 -15 -35
-15 -19 0 -29 -5 -29 -15 0 -11 -11 -15 -40 -15 -27 0 -43 -5 -46 -15 -4 -8
-18 -15 -33 -15 -14 0 -43 -9 -64 -20 -20 -11 -48 -20 -62 -20 -14 0 -28 -7
-31 -15 -4 -9 -19 -15 -35 -15 -19 0 -29 -5 -29 -15 0 -10 -10 -15 -34 -15
-18 0 -39 -7 -46 -15 -7 -8 -28 -15 -46 -15 -24 0 -34 -5 -34 -15 0 -10 -10
-15 -29 -15 -16 0 -34 -7 -41 -15 -7 -9 -29 -15 -51 -15 -20 0 -44 -7 -53 -15
-8 -8 -26 -15 -40 -15 -14 0 -29 -6 -33 -13 -4 -8 -26 -17 -48 -20 -22 -4 -41
-11 -43 -16 -2 -6 -19 -13 -38 -17 -19 -3 -34 -12 -34 -20 0 -10 -13 -14 -40
-14 -27 0 -43 -5 -46 -15 -4 -9 -19 -15 -35 -15 -19 0 -29 -5 -29 -15 0 -11
-12 -15 -49 -15 -31 0 -53 -5 -61 -15 -7 -8 -26 -15 -42 -15 -16 0 -31 -6 -34
-15 -4 -9 -19 -15 -35 -15 -19 0 -29 -5 -29 -15 0 -11 -11 -15 -39 -15 -22 0
-44 -6 -51 -15 -7 -8 -23 -15 -37 -15 -13 0 -26 -6 -29 -14 -3 -8 -25 -17 -50
-21 -28 -4 -44 -11 -44 -21 0 -10 -13 -14 -45 -14 -31 0 -47 -5 -51 -15 -4
-10 -20 -15 -44 -15 -24 0 -40 -5 -44 -15 -3 -9 -18 -15 -36 -15 -20 0 -30 -5
-30 -15 0 -10 -10 -15 -30 -15 -18 0 -33 -6 -36 -15 -4 -10 -20 -15 -45 -15
-26 0 -42 -5 -45 -15 -4 -8 -18 -15 -33 -15 -15 0 -35 -6 -46 -14 -11 -7 -37
-16 -58 -19 -20 -3 -44 -13 -53 -21 -8 -9 -26 -16 -40 -16 -15 0 -24 -6 -24
-15 0 -11 -12 -15 -45 -15 -33 0 -45 -4 -45 -15 0 -10 -10 -15 -30 -15 -18 0
-33 -6 -36 -15 -4 -9 -19 -15 -39 -15 -18 0 -38 -7 -45 -15 -7 -8 -27 -15 -45
-15 -18 0 -38 -7 -45 -15 -7 -8 -25 -15 -41 -15 -15 0 -34 -7 -43 -15 -8 -8
-26 -15 -40 -15 -13 0 -31 -7 -40 -15 -8 -8 -24 -15 -36 -15 -11 0 -23 -6 -26
-14 -3 -8 -24 -18 -45 -21 -22 -4 -43 -13 -46 -21 -3 -8 -18 -14 -34 -14 -17
0 -32 -6 -35 -15 -4 -9 -19 -15 -35 -15 -19 0 -29 -5 -29 -15 0 -10 -10 -15
-30 -15 -20 0 -30 -5 -30 -15 0 -10 -10 -15 -30 -15 -20 0 -30 -5 -30 -15 0
-8 -7 -15 -15 -15 -9 0 -18 -6 -21 -14 -3 -8 -16 -17 -28 -20 -26 -6 -96 -69
-96 -85 0 -6 -7 -11 -15 -11 -8 0 -15 -7 -15 -15 0 -8 -7 -15 -15 -15 -8 0
-15 -7 -15 -15 0 -8 -7 -15 -15 -15 -8 0 -15 -4 -15 -9 0 -5 -6 -16 -13 -23
-55 -57 -57 -64 -57 -203 0 -111 3 -135 17 -153 38 -45 53 -66 53 -74 0 -4 7
-8 15 -8 8 0 15 -7 15 -15 0 -8 7 -15 15 -15 8 0 15 -7 15 -15 0 -8 6 -15 14
-15 8 0 16 -7 20 -15 3 -8 17 -15 31 -15 16 0 25 -6 25 -15 0 -8 7 -15 15 -15
9 0 18 -7 21 -15 4 -9 19 -15 35 -15 19 0 29 -5 29 -15 0 -10 10 -15 29 -15
16 0 31 -6 34 -14 3 -7 24 -16 47 -20 23 -4 55 -13 71 -21 15 -8 43 -15 62
-15 22 0 37 -6 41 -15 3 -10 19 -15 45 -15 25 0 41 -5 45 -15 3 -10 19 -15 45
-15 25 0 41 -5 45 -15 4 -10 20 -15 51 -15 33 0 45 -4 45 -15 0 -11 12 -15 44
-15 30 0 46 -5 50 -15 4 -11 21 -15 61 -15 40 0 57 -4 61 -15 4 -10 20 -15 49
-15 28 0 45 -5 48 -14 3 -8 25 -17 49 -21 24 -4 52 -14 63 -21 11 -8 31 -14
45 -14 14 0 34 -7 44 -15 11 -8 31 -15 45 -15 14 0 35 -7 45 -15 11 -8 34 -15
50 -15 17 0 40 -7 50 -15 11 -8 41 -15 67 -15 29 0 51 -6 59 -15 8 -9 29 -15
55 -15 29 0 45 -5 49 -15 4 -10 20 -15 51 -15 33 0 45 -4 45 -15 0 -11 12 -15
45 -15 33 0 45 -4 45 -15 0 -10 16 -16 49 -21 28 -4 52 -12 55 -20 3 -8 20
-14 41 -14 20 0 43 -7 51 -15 10 -9 34 -15 65 -15 35 0 51 -4 55 -15 4 -10 20
-15 50 -15 32 0 44 -4 44 -15 0 -11 12 -15 44 -15 30 0 46 -5 50 -15 4 -10 20
-15 51 -15 33 0 45 -4 45 -15 0 -11 12 -15 45 -15 33 0 45 -4 45 -15 0 -11 12
-15 50 -15 36 0 50 -4 50 -14 0 -9 18 -16 57 -21 31 -4 63 -13 70 -21 8 -8 29
-14 47 -14 19 0 39 -7 46 -15 7 -8 29 -15 50 -15 24 0 40 -5 44 -15 3 -10 19
-15 45 -15 25 0 41 -5 45 -15 4 -10 20 -15 51 -15 33 0 45 -4 45 -15 0 -11 12
-15 44 -15 26 0 48 -6 56 -15 8 -10 31 -15 65 -15 38 0 55 -4 59 -15 8 -22
176 -22 176 0 0 9 9 15 25 15 14 0 28 6 31 14 3 8 16 17 30 20 13 4 24 11 24
16 0 6 9 10 20 10 11 0 20 7 20 15 0 8 7 15 15 15 9 0 18 7 21 15 4 8 17 15
30 15 14 0 27 7 30 15 4 8 12 15 19 15 8 0 20 6 27 13 30 27 78 57 93 57 8 0
15 7 15 15 0 8 9 15 19 15 11 0 26 7 35 15 8 8 22 15 30 15 9 0 16 7 16 15 0
8 8 15 19 15 10 0 24 7 31 15 7 8 19 15 26 15 8 0 14 7 14 15 0 9 9 15 25 15
14 0 28 6 31 14 3 8 18 18 34 21 16 3 31 13 34 21 3 8 12 14 21 14 8 0 15 7
15 15 0 9 9 15 25 15 14 0 28 7 31 15 4 8 12 15 20 15 8 0 14 7 14 15 0 10 10
15 30 15 20 0 30 5 30 15 0 9 9 15 25 15 14 0 28 7 31 15 4 8 13 15 20 15 8 0
17 7 20 15 4 8 14 15 24 15 10 0 25 7 34 15 8 8 19 15 25 15 6 0 11 6 11 14 0
8 14 17 30 21 17 4 30 13 30 21 0 8 7 14 15 14 9 0 18 7 21 15 4 8 17 15 30
15 14 0 27 7 30 15 4 8 17 15 30 15 14 0 27 7 30 15 4 8 12 15 20 15 8 0 14 7
14 15 0 10 10 15 30 15 20 0 30 5 30 15 0 8 6 15 14 15 8 0 16 7 20 15 3 8 14
15 24 15 10 0 29 9 42 20 13 11 29 20 37 20 7 0 16 7 19 15 4 8 12 15 20 15 8
0 14 7 14 15 0 10 10 15 30 15 20 0 30 5 30 15 0 8 7 15 15 15 9 0 18 7 21 15
4 8 17 15 30 15 14 0 27 6 30 14 3 8 16 17 30 20 13 4 24 11 24 16 0 6 9 10
20 10 11 0 20 7 20 15 0 9 9 15 23 15 13 0 36 15 54 35 21 22 42 35 58 35 16
0 25 6 25 15 0 8 6 15 14 15 8 0 16 7 20 15 3 8 17 15 31 15 16 0 25 6 25 15
0 10 10 15 30 15 17 0 30 5 30 13 0 6 23 22 50 35 28 12 50 27 50 32 0 6 7 10
15 10 8 0 15 5 15 11 0 5 13 15 30 20 17 6 30 17 30 25 0 9 11 14 30 14 20 0
30 5 30 15 0 9 9 15 25 15 14 0 28 7 31 15 4 8 13 15 20 15 8 0 17 6 20 14 3
8 16 17 30 20 13 4 24 11 24 16 0 6 9 10 20 10 11 0 20 7 20 15 0 8 9 15 19
15 11 0 26 6 33 13 7 7 26 19 42 27 59 30 66 35 66 47 0 7 11 13 25 13 14 0
28 7 31 15 4 8 12 15 20 15 8 0 14 7 14 15 0 9 9 15 25 15 14 0 28 7 31 15 4
8 12 15 19 15 7 0 15 7 19 15 3 8 17 15 31 15 14 0 28 7 31 15 4 8 15 15 25
15 10 0 32 13 49 30 17 16 42 33 55 36 14 3 25 12 25 20 0 8 7 14 15 14 9 0
18 7 21 15 4 8 17 15 30 15 14 0 27 7 30 15 4 8 17 15 30 15 14 0 27 7 30 15
4 8 12 15 20 15 8 0 14 7 14 15 0 10 10 15 30 15 20 0 30 5 30 15 0 8 6 15 14
15 8 0 16 7 20 15 3 8 14 15 24 15 18 0 46 18 83 53 11 9 26 17 34 17 8 0 15
7 15 15 0 10 10 15 30 15 20 0 30 5 30 15 0 8 6 15 14 15 8 0 16 7 20 15 3 8
17 15 31 15 14 0 28 7 31 15 4 8 12 15 20 15 8 0 14 7 14 15 0 10 10 15 30 15
20 0 30 5 30 15 0 8 8 15 18 15 19 0 52 22 80 53 9 9 27 17 39 17 14 0 23 6
23 15 0 8 7 15 15 15 8 0 15 7 15 15 0 10 10 15 30 15 20 0 30 5 30 15 0 9 9
15 25 15 14 0 28 7 31 15 4 8 14 15 24 15 10 0 25 7 34 15 8 8 18 15 23 15 5
0 20 13 33 28 14 16 38 32 53 36 15 3 27 13 27 21 0 9 10 15 25 15 14 0 28 7
31 15 4 8 14 15 24 15 10 0 23 7 30 15 7 8 19 15 27 15 7 0 16 7 19 15 4 8 14
15 24 15 10 0 23 7 30 15 7 8 19 15 26 15 8 0 14 6 14 14 0 8 14 17 30 21 17
4 30 11 30 16 0 5 7 9 15 9 8 0 15 5 15 11 0 5 16 17 35 25 19 8 35 19 35 24
0 6 11 10 25 10 14 0 28 7 31 15 4 8 12 15 20 15 8 0 14 7 14 15 0 10 10 15
30 15 20 0 30 5 30 15 0 8 6 15 14 15 8 0 16 7 20 15 3 8 17 15 31 15 14 0 28
6 31 14 3 8 16 17 28 20 12 3 35 17 50 31 15 14 38 28 51 31 14 3 25 12 25 20
0 8 7 14 15 14 9 0 18 7 21 15 4 8 17 15 30 15 14 0 27 7 30 15 4 8 12 15 20
15 8 0 14 7 14 15 0 10 10 15 30 15 20 0 30 5 30 15 0 9 9 15 25 15 14 0 28 7
31 15 4 8 12 15 19 15 7 0 15 7 19 15 3 8 14 15 24 15 22 0 72 40 72 58 0 7
13 12 30 12 20 0 30 5 30 15 0 10 10 15 30 15 20 0 30 5 30 15 0 8 6 15 14 15
8 0 16 7 20 15 3 8 17 15 31 15 14 0 28 7 31 15 4 8 12 15 20 15 8 0 14 7 14
15 0 10 10 15 30 15 19 0 30 5 30 14 0 8 14 17 30 21 17 4 30 11 30 16 0 6 14
15 30 20 17 6 30 15 30 20 0 5 9 9 20 9 11 0 20 7 20 15 0 8 7 15 15 15 8 0
15 7 15 15 0 10 10 15 30 15 20 0 30 5 30 15 0 8 8 15 19 15 10 0 24 7 31 15
7 8 18 15 25 15 7 0 18 7 25 15 7 8 21 15 32 15 10 0 21 7 24 15 4 8 12 15 19
15 6 0 22 9 35 20 13 11 27 20 32 20 4 0 8 7 8 15 0 9 9 15 25 15 14 0 28 7
31 15 4 8 12 15 19 15 7 0 15 7 19 15 3 8 17 15 31 15 14 0 28 7 31 15 4 8 14
15 24 15 10 0 23 7 30 15 7 8 19 15 26 15 8 0 14 7 14 15 0 8 9 15 19 15 11 0
26 7 35 15 8 8 19 15 25 15 6 0 11 5 11 11 0 5 16 17 35 25 19 8 35 19 35 24
0 6 8 10 19 10 10 0 24 7 31 15 7 8 19 15 26 15 8 0 14 7 14 15 0 10 10 15 30
15 20 0 30 5 30 15 0 8 6 15 14 15 8 0 16 7 20 15 3 8 16 15 30 15 13 0 26 7
30 15 3 8 12 15 21 15 8 0 15 7 15 15 0 9 9 15 23 15 12 0 30 9 40 20 9 11 26
20 37 20 11 0 20 7 20 15 0 8 6 15 14 15 8 0 16 7 20 15 3 9 18 15 36 15 20 0
30 5 30 15 0 10 10 15 30 15 20 0 30 5 30 15 0 12 13 15 58 15 32 0 65 7 75
14 18 14 57 11 57 -5 0 -5 14 -9 30 -9 29 0 30 -2 30 -45 0 -40 -5 -50 -50
-95 -27 -27 -54 -50 -60 -50 -5 0 -10 -7 -10 -15 0 -8 -7 -15 -15 -15 -8 0
-15 -7 -15 -15 0 -8 -4 -15 -10 -15 -14 0 -90 -75 -90 -88 0 -7 -7 -12 -15
-12 -8 0 -15 -7 -15 -15 0 -8 -7 -15 -15 -15 -8 0 -15 -7 -15 -15 0 -8 -7 -15
-15 -15 -8 0 -15 -7 -15 -15 0 -8 -9 -15 -20 -15 -10 0 -33 -13 -50 -30 -17
-16 -33 -30 -37 -30 -10 0 -83 -77 -83 -89 0 -6 -7 -11 -15 -11 -8 0 -15 -7
-15 -15 0 -8 -7 -15 -15 -15 -8 0 -15 -7 -15 -15 0 -8 -6 -15 -13 -15 -14 0
-44 -21 -88 -62 -16 -16 -32 -28 -36 -28 -10 0 -83 -77 -83 -89 0 -6 -7 -11
-15 -11 -8 0 -15 -7 -15 -15 0 -8 -7 -15 -15 -15 -8 0 -15 -7 -15 -15 0 -8 -6
-15 -14 -15 -8 0 -16 -7 -20 -15 -3 -8 -12 -15 -21 -15 -8 0 -15 -7 -15 -15 0
-8 -7 -15 -15 -15 -8 0 -15 -7 -15 -15 0 -8 -6 -15 -13 -15 -8 0 -23 -8 -35
-17 -12 -10 -32 -27 -46 -38 -14 -11 -25 -26 -26 -32 0 -7 -7 -13 -15 -13 -8
0 -15 -7 -15 -15 0 -8 -7 -15 -15 -15 -8 0 -15 -7 -15 -15 0 -8 -9 -15 -20
-15 -11 0 -20 -7 -20 -15 0 -8 -7 -15 -15 -15 -8 0 -15 -7 -15 -15 0 -8 -7
-15 -15 -15 -8 0 -15 -4 -15 -10 0 -5 -12 -16 -27 -24 -36 -19 -93 -72 -93
-85 0 -6 -7 -11 -15 -11 -8 0 -15 -7 -15 -15 0 -8 -7 -15 -15 -15 -9 0 -18 -7
-21 -15 -4 -8 -12 -15 -20 -15 -8 0 -14 -7 -14 -15 0 -8 -7 -15 -15 -15 -8 0
-15 -7 -15 -15 0 -8 -7 -15 -15 -15 -8 0 -15 -7 -15 -15 0 -8 -7 -15 -15 -15
-8 0 -15 -7 -15 -15 0 -8 -7 -15 -15 -15 -8 0 -24 -9 -35 -20 -11 -11 -25 -20
-30 -20 -5 0 -10 -7 -10 -15 0 -8 -6 -15 -14 -15 -8 0 -16 -7 -20 -15 -3 -8
-12 -15 -21 -15 -8 0 -15 -7 -15 -15 0 -8 -7 -15 -15 -15 -8 0 -15 -7 -15 -15
0 -8 -7 -15 -15 -15 -8 0 -15 -7 -15 -15 0 -8 -7 -15 -15 -15 -8 0 -15 -7 -15
-15 0 -8 -7 -15 -15 -15 -8 0 -15 -7 -15 -15 0 -8 -7 -15 -15 -15 -8 0 -23 -9
-32 -20 -10 -11 -23 -20 -30 -20 -7 0 -13 -7 -13 -15 0 -8 -7 -15 -15 -15 -9
0 -18 -7 -21 -15 -4 -8 -12 -15 -20 -15 -8 0 -14 -7 -14 -15 0 -8 -7 -15 -15
-15 -8 0 -15 -7 -15 -15 0 -8 -7 -15 -15 -15 -8 0 -15 -7 -15 -15 0 -8 -7 -15
-15 -15 -8 0 -15 -7 -15 -15 0 -8 -7 -15 -15 -15 -8 0 -15 -7 -15 -15 0 -8 -4
-15 -10 -15 -5 0 -27 -16 -47 -35 -60 -54 -69 -61 -86 -68 -9 -3 -17 -11 -17
-17 0 -5 -7 -10 -15 -10 -8 0 -15 -7 -15 -15 0 -8 -7 -15 -15 -15 -8 0 -15 -7
-15 -15 0 -8 -7 -15 -15 -15 -8 0 -15 -7 -15 -15 0 -8 -7 -15 -15 -15 -8 0
-15 -7 -15 -15 0 -8 -6 -15 -12 -15 -7 0 -29 -16 -48 -35 -19 -19 -38 -35 -42
-35 -5 0 -22 -14 -38 -30 -16 -17 -34 -30 -40 -30 -5 0 -10 -7 -10 -15 0 -8
-7 -15 -15 -15 -8 0 -15 -7 -15 -15 0 -8 -7 -15 -15 -15 -8 0 -15 -7 -15 -15
0 -8 -5 -15 -12 -15 -13 0 -118 -106 -118 -120 0 -6 -7 -10 -15 -10 -8 0 -15
-7 -15 -15 0 -9 -9 -15 -25 -15 -14 0 -28 -7 -31 -15 -4 -8 -12 -15 -20 -15
-8 0 -14 -7 -14 -15 0 -8 -5 -15 -10 -15 -13 0 -150 -136 -150 -149 0 -5 -11
-12 -25 -15 -14 -4 -25 -11 -25 -16 0 -6 -7 -10 -15 -10 -9 0 -18 -7 -21 -15
-4 -8 -12 -15 -20 -15 -8 0 -14 -7 -14 -15 0 -8 -5 -15 -11 -15 -14 0 -149
-136 -149 -150 0 -6 -7 -10 -15 -10 -8 0 -15 -7 -15 -15 0 -8 -7 -15 -15 -15
-9 0 -18 -7 -21 -15 -4 -8 -15 -15 -25 -15 -11 0 -22 -7 -25 -15 -4 -8 -11
-15 -17 -15 -13 0 -147 -137 -147 -150 0 -6 -6 -10 -14 -10 -8 0 -16 -7 -20
-15 -3 -8 -12 -15 -21 -15 -8 0 -15 -5 -15 -10 0 -6 -11 -15 -25 -20 -14 -5
-25 -14 -25 -20 0 -5 -5 -10 -11 -10 -6 0 -35 -24 -65 -54 -30 -30 -54 -59
-54 -65 0 -6 -7 -11 -15 -11 -8 0 -15 -7 -15 -15 0 -8 -9 -15 -20 -15 -11 0
-20 -7 -20 -15 0 -8 -7 -15 -15 -15 -8 0 -15 -7 -15 -15 0 -8 -7 -15 -15 -15
-8 0 -15 -7 -15 -15 0 -8 -7 -15 -15 -15 -8 0 -15 -6 -15 -14 0 -8 -10 -16
-23 -20 -12 -3 -50 -32 -85 -66 -34 -33 -67 -60 -72 -60 -6 0 -10 -7 -10 -15
0 -8 -7 -15 -15 -15 -8 0 -15 -7 -15 -15 0 -8 -7 -15 -15 -15 -8 0 -15 -7 -15
-15 0 -8 -6 -15 -14 -15 -8 0 -31 -16 -50 -35 -20 -19 -38 -35 -41 -35 -2 0
-25 -20 -49 -45 -25 -25 -50 -45 -56 -45 -5 0 -10 -7 -10 -15 0 -8 -7 -15 -15
-15 -8 0 -15 -7 -15 -15 0 -8 -7 -15 -15 -15 -8 0 -15 -7 -15 -15 0 -8 -7 -15
-15 -15 -8 0 -15 -7 -15 -15 0 -8 -7 -15 -15 -15 -8 0 -15 -7 -15 -15 0 -8 -5
-15 -10 -15 -14 0 -72 -41 -83 -57 -4 -7 -15 -13 -22 -13 -8 0 -15 -7 -15 -15
0 -8 -7 -15 -15 -15 -8 0 -15 -7 -15 -15 0 -8 -7 -15 -15 -15 -8 0 -15 -7 -15
-15 0 -8 -7 -15 -15 -15 -8 0 -15 -7 -15 -15 0 -8 -7 -15 -15 -15 -8 0 -15 -7
-15 -15 0 -8 -7 -15 -15 -15 -9 0 -18 -7 -21 -15 -4 -8 -11 -15 -18 -15 -6 0
-35 -22 -64 -50 -29 -27 -57 -50 -63 -50 -5 0 -9 -7 -9 -15 0 -8 -7 -15 -15
-15 -8 0 -15 -7 -15 -15 0 -8 -7 -15 -15 -15 -8 0 -15 -7 -15 -15 0 -8 -7 -15
-15 -15 -8 0 -15 -7 -15 -15 0 -8 -5 -15 -11 -15 -7 0 -34 -22 -61 -50 -27
-27 -56 -50 -64 -50 -8 0 -17 -7 -20 -15 -4 -8 -12 -15 -20 -15 -8 0 -14 -7
-14 -15 0 -8 -7 -15 -15 -15 -8 0 -15 -7 -15 -15 0 -8 -7 -15 -15 -15 -8 0
-15 -7 -15 -15 0 -8 -6 -15 -13 -15 -7 0 -24 -13 -37 -30 -14 -16 -31 -29 -37
-30 -7 0 -13 -7 -13 -15 0 -8 -4 -15 -10 -15 -10 0 -37 -20 -72 -53 -10 -9
-23 -17 -28 -17 -6 0 -10 -7 -10 -15 0 -8 -7 -15 -15 -15 -8 0 -15 -7 -15 -15
0 -8 -5 -15 -10 -15 -6 0 -24 -14 -40 -30 -16 -17 -34 -30 -40 -30 -5 0 -10
-7 -10 -15 0 -8 -7 -15 -15 -15 -8 0 -15 -7 -15 -15 0 -8 -7 -15 -15 -15 -8 0
-15 -6 -15 -14 0 -8 -7 -16 -15 -20 -8 -3 -15 -12 -15 -21 0 -8 -8 -15 -19
-15 -38 0 -44 -24 -49 -208 -3 -110 -9 -182 -16 -191 -7 -9 -12 -83 -14 -204
-3 -144 -7 -196 -18 -211 -11 -16 -14 -61 -14 -196 -1 -138 -4 -179 -15 -194
-12 -16 -15 -57 -15 -200 -1 -143 -4 -185 -15 -200 -12 -16 -15 -57 -15 -202
0 -142 -3 -188 -15 -210 -12 -24 -15 -81 -15 -315 0 -246 -2 -288 -15 -293
-13 -4 -15 -37 -15 -206 0 -171 -2 -200 -15 -200 -23 0 -22 -205 1 -214 9 -3
55 -6 103 -6 87 0 151 13 151 31 0 5 20 9 45 9 31 0 47 5 51 15 4 9 19 15 35
15 18 0 29 5 29 14 0 8 11 17 25 20 14 4 25 11 25 16 0 6 7 10 15 10 9 0 29
13 45 30 16 16 34 30 40 30 5 0 10 6 10 13 1 6 14 23 30 37 17 13 30 30 30 37
0 7 7 13 15 13 8 0 15 7 15 15 0 8 7 15 15 15 8 0 15 7 15 15 0 8 7 15 15 15
9 0 18 7 21 15 4 8 12 15 20 15 8 0 14 7 14 15 0 8 6 15 13 15 7 0 37 22 66
50 29 27 57 50 62 50 5 0 9 7 9 15 0 8 7 15 15 15 8 0 15 7 15 15 0 8 7 15 15
15 8 0 15 7 15 15 0 8 5 15 10 15 14 0 180 166 180 180 0 5 7 10 15 10 8 0 15
7 15 15 0 8 5 15 10 15 6 0 24 13 40 30 16 16 34 30 40 30 5 0 10 7 10 15 0 8
7 15 15 15 8 0 15 7 15 15 0 8 7 15 15 15 8 0 15 7 15 15 0 8 7 15 15 15 8 0
15 6 15 14 0 8 7 16 15 20 8 3 15 12 15 21 0 8 7 15 15 15 8 0 15 7 15 15 0 8
7 15 15 15 8 0 23 8 33 17 10 10 41 37 68 60 78 66 104 91 104 103 0 5 7 10
15 10 8 0 15 7 15 15 0 8 7 15 15 15 8 0 15 7 15 15 0 8 5 15 10 15 6 0 31 20
56 45 24 25 49 45 54 45 6 0 10 7 10 15 0 8 7 15 15 15 8 0 15 5 15 10 0 6 13
24 30 40 16 16 30 34 30 40 0 5 7 10 15 10 9 0 18 7 21 15 4 8 12 15 20 15 8
0 14 7 14 15 0 8 7 15 15 15 8 0 15 7 15 15 0 8 7 15 15 15 8 0 15 7 15 15 0
8 7 15 15 15 8 0 15 7 15 15 0 8 6 15 14 15 7 0 19 7 26 15 16 20 60 20 60 0
0 -8 5 -15 11 -15 6 0 17 -7 25 -15 9 -8 24 -15 35 -15 10 0 19 -7 19 -15 0
-8 7 -15 15 -15 8 0 15 -7 15 -15 0 -8 7 -15 15 -15 9 0 18 -7 21 -15 4 -8 17
-15 30 -15 15 0 24 -6 24 -15 0 -8 9 -15 20 -15 11 0 20 -6 20 -14 0 -8 14
-17 30 -21 16 -4 30 -13 30 -21 0 -8 7 -14 15 -14 8 0 15 -7 15 -15 0 -8 6
-15 14 -15 8 0 16 -7 20 -15 3 -8 17 -15 31 -15 16 0 25 -6 25 -15 0 -8 6 -15
14 -15 8 0 16 -7 20 -15 3 -8 12 -15 20 -15 7 0 16 -7 20 -15 3 -8 17 -15 31
-15 16 0 25 -6 25 -15 0 -8 7 -15 15 -15 8 0 15 -7 15 -15 0 -8 6 -15 13 -15
7 0 20 -9 30 -20 9 -11 23 -20 31 -20 8 0 16 -7 20 -15 3 -8 12 -15 21 -15 8
0 15 -7 15 -15 0 -8 8 -15 19 -15 10 0 24 -7 31 -15 7 -8 19 -15 26 -15 8 0
14 -7 14 -15 0 -8 6 -15 14 -15 8 0 16 -7 20 -15 3 -8 17 -15 31 -15 16 0 25
-6 25 -15 0 -8 7 -15 15 -15 8 0 15 -7 15 -15 0 -8 7 -15 15 -15 9 0 18 -6 21
-14 3 -8 19 -18 35 -21 16 -4 29 -13 29 -21 0 -8 7 -14 15 -14 8 0 15 -7 15
-15 0 -9 9 -15 25 -15 14 0 28 -7 31 -15 4 -8 12 -15 20 -15 8 0 14 -7 14 -15
0 -8 6 -15 14 -15 8 0 16 -7 20 -15 3 -8 12 -15 20 -15 7 0 16 -7 20 -15 3 -8
17 -15 31 -15 16 0 25 -6 25 -15 0 -8 7 -15 15 -15 8 0 15 -6 15 -14 0 -8 14
-17 30 -21 16 -4 30 -13 30 -21 0 -8 5 -14 10 -14 6 0 24 -14 40 -30 17 -18
40 -30 55 -30 16 0 25 -6 25 -15 0 -8 7 -15 15 -15 8 0 15 -7 15 -15 0 -10 10
-15 30 -15 20 0 30 -5 30 -15 0 -8 7 -15 15 -15 8 0 15 -5 15 -10 0 -17 48
-58 91 -77 21 -10 39 -24 39 -30 0 -7 5 -13 11 -13 6 0 17 -7 25 -15 9 -8 24
-15 35 -15 10 0 19 -7 19 -15 0 -8 7 -15 15 -15 8 0 15 -7 15 -15 0 -8 6 -15
14 -15 8 0 16 -7 20 -15 3 -8 17 -15 31 -15 16 0 25 -6 25 -15 0 -8 4 -15 8
-15 5 0 19 -9 32 -20 13 -11 31 -20 42 -20 10 0 18 -7 18 -15 0 -8 7 -15 15
-15 8 0 15 -7 15 -15 0 -8 6 -15 14 -15 8 0 16 -7 20 -15 3 -8 17 -15 31 -15
16 0 25 -6 25 -15 0 -8 6 -15 14 -15 8 0 16 -7 20 -15 3 -8 12 -15 21 -15 8 0
15 -7 15 -15 0 -10 10 -15 30 -15 17 0 30 -5 30 -11 0 -15 42 -59 58 -59 6 0
12 -4 12 -9 0 -5 10 -13 21 -16 12 -4 35 -20 50 -36 16 -16 35 -29 42 -29 8 0
20 -7 27 -15 7 -8 19 -15 26 -15 8 0 14 -7 14 -15 0 -8 7 -15 15 -15 8 0 15
-7 15 -15 0 -10 10 -15 30 -15 17 0 30 -5 30 -11 0 -13 41 -59 53 -59 5 0 15
-7 23 -15 9 -8 24 -15 35 -15 10 0 19 -7 19 -15 0 -8 7 -15 15 -15 8 0 15 -7
15 -15 0 -8 8 -15 19 -15 10 0 24 -7 31 -15 7 -8 19 -15 26 -15 8 0 14 -7 14
-15 0 -8 7 -15 15 -15 8 0 15 -5 15 -10 0 -6 8 -14 18 -17 23 -9 69 -42 104
-76 16 -15 37 -27 47 -27 10 0 21 -7 25 -15 3 -8 16 -15 30 -15 13 0 26 -7 30
-15 3 -9 18 -15 36 -15 20 0 30 -5 30 -15 0 -10 10 -15 31 -15 17 0 37 -7 45
-15 9 -8 29 -15 45 -15 17 0 37 -7 45 -15 13 -12 48 -15 185 -15 144 0 169 2
169 15 0 10 10 15 34 15 19 0 41 7 50 15 8 8 22 15 30 15 9 0 16 7 16 15 0 9
9 15 25 15 14 0 28 7 31 15 4 8 12 15 20 15 8 0 14 7 14 15 0 8 7 15 15 15 8
0 15 4 15 9 0 5 16 26 35 45 19 20 35 45 35 56 0 11 7 20 15 20 8 0 15 9 15
20 0 11 4 20 10 20 5 0 12 11 16 24 3 14 12 27 20 30 8 3 14 19 14 35 0 16 6
31 15 35 10 3 15 19 15 46 0 29 4 40 15 40 11 0 15 12 15 45 0 31 4 45 14 45
9 0 15 19 20 57 4 31 11 62 17 69 5 7 13 51 16 99 4 59 10 88 20 92 9 3 13 24
13 63 0 42 4 59 15 64 11 4 15 21 15 63 1 35 6 66 15 77 9 12 15 42 15 77 0
41 4 58 15 63 11 4 15 21 15 65 0 43 4 60 15 65 11 4 15 22 15 71 0 46 5 71
15 81 11 11 15 38 15 100 0 65 3 84 14 84 14 0 26 42 26 95 0 19 5 35 12 37 7
3 14 32 16 71 3 40 10 71 18 78 9 7 14 32 14 69 0 42 4 59 15 64 11 4 15 21
15 61 0 37 5 62 15 71 10 10 15 36 15 77 1 39 6 69 15 81 10 13 15 44 15 93 0
56 4 75 15 79 11 5 15 22 15 64 0 39 5 62 15 70 11 9 15 32 15 81 0 52 3 69
14 69 14 0 26 40 26 89 0 14 7 35 15 45 8 11 15 39 15 62 0 23 7 55 15 70 8
17 15 55 15 90 0 35 6 74 15 90 8 16 15 54 15 85 0 41 4 58 15 63 11 4 15 21
15 64 0 41 5 64 15 72 10 9 15 32 15 76 0 50 3 64 15 64 12 0 15 14 15 65 0
51 3 65 15 65 12 0 15 14 15 64 0 42 5 67 14 75 9 7 17 43 21 94 4 45 14 91
21 102 8 11 14 44 14 73 0 34 5 59 15 68 9 10 15 34 15 65 0 32 6 56 15 65 10
10 15 35 15 75 0 44 4 61 15 65 11 5 15 22 15 65 0 44 4 61 15 65 11 5 15 22
15 66 0 39 5 64 15 74 11 11 15 39 15 104 0 69 3 89 15 94 11 4 15 21 15 66 0
45 3 60 14 60 10 0 17 17 21 58 4 31 13 71 21 89 8 17 14 53 14 81 0 35 4 52
15 56 11 4 15 21 15 61 0 37 5 62 15 71 9 10 15 35 15 67 0 30 7 60 15 71 11
14 15 46 15 108 0 72 3 88 15 88 12 0 15 14 15 65 0 51 3 65 15 65 12 0 15 14
15 64 0 44 5 67 15 76 10 9 15 32 15 76 0 47 4 64 14 64 9 0 15 18 19 56 3 30
11 62 17 69 7 8 14 43 17 77 3 35 10 69 16 76 6 8 13 52 15 99 3 59 9 86 18
90 10 3 14 23 14 63 0 39 5 62 15 70 10 8 15 31 15 70 0 39 5 62 15 70 10 8
15 31 15 70 0 42 4 59 15 64 11 4 15 21 15 65 0 43 4 60 15 65 11 4 15 22 15
71 0 43 5 71 14 80 8 8 16 49 21 97 4 46 12 86 18 90 5 3 12 32 15 65 3 32 11
67 18 78 8 11 14 45 14 76 0 41 4 58 15 63 11 4 15 21 15 65 0 43 4 60 15 65
11 4 15 21 15 61 0 37 5 62 15 71 10 10 15 36 15 77 1 39 6 69 15 81 10 14 15
45 15 98 0 63 3 78 15 78 12 0 15 14 15 62 0 40 5 67 15 78 8 9 17 43 21 75 4
33 13 66 21 73 7 7 13 34 13 60 0 26 7 56 15 66 8 11 15 40 15 65 0 25 7 55
15 65 10 13 15 43 15 82 0 35 6 74 15 90 8 17 15 56 15 90 0 46 4 63 15 68 11
4 15 21 15 64 0 41 5 64 15 72 10 9 15 32 15 76 0 50 3 64 15 64 12 0 15 14
15 65 0 51 3 65 15 65 11 0 15 12 15 45 0 25 7 62 16 83 9 20 19 71 24 112 7
74 20 120 46 172 21 41 20 610 -1 632 -8 8 -15 21 -15 29 0 8 -7 20 -15 27 -8
7 -15 22 -15 35 0 12 -9 32 -20 45 -11 13 -20 31 -20 42 0 10 -7 18 -15 18 -8
0 -15 7 -15 15 0 8 -7 15 -15 15 -8 0 -15 9 -15 20 0 11 -7 20 -15 20 -8 0
-15 7 -15 15 0 8 -7 15 -15 15 -8 0 -15 7 -15 15 0 8 -6 15 -14 15 -8 0 -16 7
-20 15 -3 8 -10 15 -16 15 -6 0 -18 7 -26 15 -9 8 -24 15 -34 15 -10 0 -20 7
-24 15 -3 10 -19 15 -45 15 -25 0 -41 5 -45 15 -4 13 -35 15 -185 15 -146 0
-182 -3 -195 -15z"/>
</g>
</svg>
