<?xml version="1.0" standalone="no"?>
<!DOCTYPE svg PUBLIC "-//W3C//DTD SVG 20010904//EN"
 "http://www.w3.org/TR/2001/REC-SVG-20010904/DTD/svg10.dtd">
<svg version="1.0" xmlns="http://www.w3.org/2000/svg"
 width="1600.000000pt" height="1600.000000pt" viewBox="0 0 1600.000000 1600.000000"
 preserveAspectRatio="xMidYMid meet">

<g transform="translate(0.000000,1600.000000) scale(0.100000,-0.100000)"
fill="#000000" stroke="none">
<path d="M426 12685 c-4 -11 -23 -15 -81 -15 -60 0 -75 -3 -75 -15 0 -10 -10
-15 -30 -15 -18 0 -33 -6 -36 -15 -4 -8 -17 -15 -30 -15 -14 0 -27 -7 -30 -15
-4 -8 -12 -15 -20 -15 -8 0 -14 -7 -14 -15 0 -8 -7 -15 -15 -15 -8 0 -15 -7
-15 -15 0 -9 -7 -18 -15 -21 -8 -4 -15 -12 -15 -20 0 -8 -7 -14 -15 -14 -10 0
-15 -10 -15 -29 0 -17 -4 -33 -10 -36 -14 -8 -14 -512 0 -520 5 -3 10 -33 10
-65 0 -39 5 -64 15 -74 10 -9 15 -34 15 -71 0 -40 4 -57 15 -61 10 -4 15 -21
15 -54 0 -30 6 -52 15 -60 10 -8 15 -30 15 -62 0 -34 4 -50 15 -54 10 -4 15
-20 15 -50 0 -32 4 -44 15 -44 11 0 15 -12 15 -44 0 -26 6 -48 15 -56 8 -7 15
-27 15 -45 0 -18 7 -38 15 -45 8 -7 18 -30 21 -51 4 -23 12 -39 20 -39 10 0
14 -14 14 -50 0 -38 4 -50 15 -50 11 0 15 -12 15 -45 0 -33 4 -45 15 -45 11 0
15 -11 15 -40 0 -27 5 -43 15 -46 9 -4 15 -19 15 -40 0 -24 5 -34 15 -34 11 0
15 -11 15 -40 0 -27 5 -43 15 -46 8 -4 15 -18 15 -34 0 -16 7 -30 15 -34 9 -3
15 -18 15 -34 0 -16 9 -41 20 -55 11 -14 20 -35 20 -46 0 -12 6 -21 15 -21 11
0 15 -12 15 -45 0 -33 4 -45 15 -45 10 0 15 -10 15 -30 0 -18 6 -33 15 -36 8
-4 15 -18 15 -34 0 -15 7 -33 15 -40 8 -7 15 -26 15 -42 0 -16 6 -31 15 -34 9
-4 15 -19 15 -35 0 -19 5 -29 15 -29 10 0 15 -10 15 -30 0 -18 6 -33 15 -36 8
-4 15 -16 15 -29 0 -12 9 -34 20 -48 11 -14 20 -35 20 -46 0 -12 7 -24 15 -27
9 -4 15 -19 15 -35 0 -19 5 -29 15 -29 10 0 15 -10 15 -30 0 -18 6 -33 15 -36
9 -4 15 -19 15 -35 0 -19 5 -29 15 -29 10 0 15 -10 15 -30 0 -20 5 -30 15 -30
10 0 15 -10 15 -30 0 -18 6 -33 15 -36 8 -4 15 -17 15 -30 0 -14 7 -27 15 -30
8 -4 15 -17 15 -30 0 -13 9 -28 20 -34 12 -6 20 -21 20 -35 0 -16 6 -25 15
-25 10 0 15 -10 15 -30 0 -18 6 -33 15 -36 9 -4 15 -19 15 -35 0 -19 5 -29 15
-29 10 0 15 -10 15 -30 0 -20 5 -30 15 -30 10 0 15 -10 15 -30 0 -20 5 -30 15
-30 9 0 15 -9 15 -25 0 -14 7 -28 15 -31 8 -4 15 -14 15 -24 0 -10 7 -25 15
-34 8 -8 15 -18 15 -23 0 -5 9 -16 20 -26 11 -9 20 -26 20 -37 0 -11 7 -20 15
-20 10 0 15 -10 15 -29 0 -16 6 -31 15 -35 8 -3 15 -17 15 -31 0 -14 7 -28 15
-31 8 -4 15 -17 15 -30 0 -14 7 -27 15 -30 8 -4 15 -14 15 -24 0 -10 7 -23 15
-30 8 -7 15 -19 15 -26 0 -8 7 -14 15 -14 10 0 15 -10 15 -30 0 -16 6 -33 13
-37 7 -4 18 -20 24 -35 7 -16 17 -28 23 -28 5 0 10 -6 10 -14 0 -7 7 -19 15
-26 8 -7 15 -21 15 -31 0 -11 7 -19 15 -19 10 0 15 -10 15 -30 0 -20 5 -30 15
-30 9 0 15 -9 15 -25 0 -14 7 -28 15 -31 8 -4 15 -15 15 -25 0 -10 7 -19 15
-19 10 0 15 -10 15 -30 0 -20 5 -30 15 -30 8 0 15 -9 15 -19 0 -11 7 -26 15
-35 8 -8 15 -18 15 -23 0 -4 9 -14 20 -21 11 -7 20 -21 20 -32 0 -12 6 -23 14
-26 8 -3 17 -16 20 -30 4 -13 11 -24 16 -24 6 0 10 -9 10 -20 0 -11 7 -20 15
-20 10 0 15 -10 15 -30 0 -20 5 -30 15 -30 8 0 15 -7 15 -15 0 -9 7 -18 15
-21 8 -4 15 -17 15 -30 0 -12 6 -27 13 -31 13 -9 32 -37 46 -69 5 -12 17 -24
25 -27 9 -4 16 -18 16 -32 0 -16 6 -25 15 -25 8 0 15 -7 15 -15 0 -9 7 -18 15
-21 8 -4 15 -17 15 -30 0 -14 7 -27 15 -30 8 -4 15 -12 15 -20 0 -8 7 -14 15
-14 9 0 15 -9 15 -25 0 -14 7 -28 15 -31 8 -4 15 -12 15 -20 0 -8 7 -14 15
-14 9 0 15 -9 15 -25 0 -14 7 -28 15 -31 8 -4 15 -11 15 -18 0 -6 9 -19 20
-29 11 -9 20 -26 20 -37 0 -11 7 -20 15 -20 8 0 15 -7 15 -15 0 -8 7 -15 15
-15 10 0 15 -10 15 -30 0 -20 5 -30 15 -30 8 0 15 -7 15 -15 0 -8 7 -15 15
-15 9 0 15 -9 15 -25 0 -15 12 -37 29 -54 16 -15 32 -37 35 -48 4 -12 17 -32
29 -45 34 -38 67 -86 67 -98 0 -5 7 -10 15 -10 8 0 15 -9 15 -20 0 -11 7 -20
15 -20 9 0 15 -9 15 -25 0 -14 7 -28 15 -31 8 -4 15 -12 15 -20 0 -8 6 -14 13
-14 6 0 21 -20 32 -45 11 -25 25 -45 32 -45 7 0 13 -7 13 -15 0 -8 5 -15 11
-15 5 0 17 -16 25 -35 8 -19 19 -35 24 -35 6 0 10 -7 10 -15 0 -8 7 -15 15
-15 8 0 15 -6 15 -14 0 -8 7 -16 15 -20 8 -3 15 -17 15 -31 0 -16 6 -25 15
-25 8 0 15 -7 15 -15 0 -8 6 -15 13 -15 6 0 20 -18 30 -40 10 -22 41 -63 68
-92 27 -28 49 -60 49 -70 0 -10 7 -18 15 -18 8 0 15 -7 15 -15 0 -8 7 -15 15
-15 8 0 15 -6 15 -14 0 -8 7 -16 15 -20 8 -3 15 -12 15 -21 0 -8 7 -15 15 -15
8 0 15 -8 15 -19 0 -20 101 -131 119 -131 6 0 11 -7 11 -15 0 -8 7 -15 15 -15
8 0 15 -9 15 -20 0 -11 5 -20 10 -20 6 0 15 -11 20 -25 5 -14 14 -25 20 -25 5
0 10 -5 10 -11 0 -15 104 -119 119 -119 6 0 11 -7 11 -15 0 -8 7 -15 15 -15 8
0 15 -7 15 -15 0 -9 7 -18 15 -21 8 -4 15 -12 15 -20 0 -8 7 -14 15 -14 8 0
15 -7 15 -15 0 -8 7 -15 15 -15 8 0 15 -7 15 -15 0 -8 7 -15 15 -15 8 0 15 -7
15 -15 0 -8 7 -15 15 -15 8 0 15 -7 15 -15 0 -8 7 -15 15 -15 8 0 15 -7 15
-15 0 -8 7 -15 15 -15 9 0 18 -7 21 -15 4 -8 12 -15 20 -15 8 0 14 -7 14 -15
0 -9 7 -18 15 -21 8 -4 15 -12 15 -20 0 -8 7 -14 15 -14 8 0 15 -7 15 -15 0
-8 7 -15 15 -15 8 0 15 -7 15 -15 0 -8 7 -15 15 -15 8 0 15 -7 15 -15 0 -8 5
-15 10 -15 6 0 24 -14 40 -30 16 -17 34 -30 40 -30 5 0 10 -7 10 -15 0 -8 4
-15 9 -15 6 0 27 -16 48 -35 21 -19 44 -35 51 -35 6 0 12 -7 12 -15 0 -8 7
-15 15 -15 8 0 15 -7 15 -15 0 -8 5 -15 10 -15 6 0 24 -14 40 -30 16 -17 33
-30 39 -30 5 0 11 -7 15 -15 3 -8 17 -15 31 -15 16 0 25 -6 25 -15 0 -8 7 -15
15 -15 8 0 15 -5 15 -11 0 -16 70 -79 96 -85 12 -3 25 -12 28 -20 3 -8 12 -14
21 -14 8 0 15 -7 15 -15 0 -8 6 -15 14 -15 8 0 16 -7 20 -15 3 -8 17 -15 31
-15 16 0 25 -6 25 -15 0 -8 7 -15 15 -15 8 0 15 -7 15 -15 0 -8 7 -15 15 -15
9 0 18 -7 21 -15 4 -8 12 -15 20 -15 8 0 22 -9 31 -20 10 -11 23 -20 29 -20 7
0 14 -7 18 -15 3 -8 17 -15 31 -15 16 0 25 -6 25 -15 0 -8 6 -15 14 -15 8 0
16 -7 20 -15 3 -8 17 -15 31 -15 16 0 25 -6 25 -15 0 -8 6 -15 14 -15 8 0 16
-7 20 -15 3 -8 17 -15 31 -15 14 0 28 -7 31 -15 4 -8 12 -15 20 -15 8 0 14 -6
14 -14 0 -8 13 -17 29 -21 16 -3 32 -13 35 -21 3 -8 15 -14 26 -14 11 0 23 -7
26 -15 4 -8 13 -15 20 -15 8 0 17 -7 20 -15 4 -9 19 -15 35 -15 19 0 29 -5 29
-15 0 -10 10 -15 30 -15 20 0 30 -5 30 -15 0 -8 9 -15 19 -15 10 0 21 -7 25
-15 3 -8 14 -15 25 -15 10 0 21 -7 25 -15 3 -8 17 -15 31 -15 14 0 28 -6 31
-14 3 -8 18 -18 34 -21 16 -3 31 -13 34 -21 3 -8 16 -14 30 -14 13 0 26 -7 30
-15 3 -8 16 -15 30 -15 13 0 26 -7 30 -15 3 -8 17 -15 31 -15 14 0 28 -7 31
-15 4 -9 19 -15 35 -15 19 0 29 -5 29 -15 0 -10 10 -15 29 -15 16 0 31 -6 35
-15 3 -9 19 -15 41 -15 22 0 38 -6 41 -15 4 -9 19 -15 40 -15 24 0 34 -5 34
-15 0 -8 6 -15 13 -15 7 0 29 -9 50 -20 20 -11 48 -20 61 -20 13 0 26 -7 30
-15 3 -8 18 -15 33 -15 15 0 37 -7 47 -15 11 -8 32 -15 47 -15 15 0 29 -7 33
-15 3 -10 19 -15 45 -15 25 0 41 -5 45 -15 4 -10 20 -15 51 -15 33 0 45 -4 45
-15 0 -11 12 -15 44 -15 30 0 46 -5 50 -15 4 -11 20 -15 56 -15 37 0 55 -5 70
-20 13 -13 33 -20 59 -20 22 0 44 -6 51 -15 8 -10 30 -15 65 -15 35 0 57 -5
65 -15 8 -10 31 -15 67 -15 35 0 60 -5 69 -15 11 -11 37 -15 88 -15 53 0 77
-4 86 -15 9 -11 35 -15 105 -15 73 0 94 -3 99 -15 4 -12 33 -15 170 -15 136 0
165 -3 170 -15 8 -23 634 -23 642 0 5 12 32 15 155 15 124 0 151 3 155 15 5
11 24 15 80 15 57 0 76 4 80 15 4 10 20 15 50 15 32 0 44 4 44 15 0 10 10 15
34 15 19 0 41 7 50 15 8 8 22 15 30 15 9 0 16 6 16 14 0 8 14 17 30 21 17 4
30 13 30 21 0 8 7 14 15 14 8 0 15 7 15 15 0 8 4 15 9 15 14 0 61 45 61 57 0
6 7 16 15 23 8 7 15 25 15 40 0 16 7 30 15 34 11 4 15 21 15 65 0 43 4 60 15
65 13 5 15 124 15 986 0 864 2 980 15 980 12 0 15 13 15 60 0 47 3 60 15 60
10 0 15 10 15 29 0 16 6 31 15 35 8 3 15 12 15 21 0 8 6 15 14 15 8 0 16 7 20
15 3 8 15 15 26 15 11 0 23 7 26 15 4 11 21 15 55 15 37 0 49 4 49 15 0 12 19
15 114 15 92 0 115 -3 120 -15 4 -11 21 -15 64 -15 41 0 64 -5 72 -15 7 -8 27
-15 45 -15 20 0 35 -6 39 -15 3 -9 18 -15 36 -15 17 0 39 -9 50 -20 11 -11 29
-20 39 -20 10 0 21 -7 25 -15 3 -8 17 -15 31 -15 16 0 25 -6 25 -15 0 -10 10
-15 30 -15 20 0 30 -5 30 -15 0 -8 7 -15 15 -15 9 0 18 -7 21 -15 4 -9 19 -15
35 -15 17 0 29 -5 29 -13 0 -7 20 -21 45 -32 25 -11 45 -26 45 -32 0 -7 7 -13
15 -13 9 0 18 -7 21 -15 4 -8 12 -15 20 -15 8 0 22 -9 31 -20 10 -11 23 -20
30 -20 7 0 13 -5 13 -11 0 -5 14 -15 30 -20 17 -6 30 -15 30 -20 0 -5 7 -9 15
-9 8 0 15 -7 15 -15 0 -8 7 -15 15 -15 8 0 15 -7 15 -15 0 -8 9 -15 19 -15 10
0 21 -7 25 -15 3 -8 15 -15 26 -15 11 0 20 -7 20 -15 0 -8 7 -15 15 -15 8 0
15 -7 15 -15 0 -8 5 -15 12 -15 6 0 23 -13 37 -28 14 -15 38 -33 54 -40 15 -6
27 -16 27 -22 0 -5 7 -10 15 -10 8 0 15 -7 15 -15 0 -8 7 -15 15 -15 8 0 15
-7 15 -15 0 -8 7 -15 15 -15 8 0 15 -7 15 -15 0 -8 7 -15 15 -15 9 0 18 -7 21
-15 4 -8 12 -15 20 -15 8 0 14 -7 14 -15 0 -8 5 -15 10 -15 6 0 19 -9 30 -20
11 -11 27 -20 35 -20 8 0 15 -7 15 -15 0 -8 7 -15 15 -15 8 0 15 -7 15 -15 0
-8 7 -15 15 -15 8 0 15 -7 15 -15 0 -8 7 -15 15 -15 8 0 15 -7 15 -15 0 -8 7
-15 15 -15 8 0 15 -7 15 -15 0 -8 9 -15 20 -15 11 0 20 -7 20 -15 0 -8 7 -15
15 -15 8 0 15 -7 15 -15 0 -8 7 -15 15 -15 8 0 15 -6 15 -13 0 -7 13 -24 30
-37 16 -14 29 -31 30 -37 0 -7 5 -13 10 -13 6 0 30 -20 53 -45 24 -25 49 -45
55 -45 7 0 12 -7 12 -15 0 -8 7 -15 15 -15 8 0 15 -5 15 -10 0 -6 14 -24 30
-40 17 -16 30 -34 30 -40 0 -5 7 -10 15 -10 8 0 15 -7 15 -15 0 -8 7 -15 15
-15 8 0 15 -7 15 -15 0 -8 7 -15 15 -15 8 0 15 -7 15 -15 0 -8 7 -15 15 -15 8
0 15 -7 15 -15 0 -8 7 -15 15 -15 9 0 18 -7 21 -15 4 -8 12 -15 20 -15 8 0 14
-7 14 -15 0 -9 7 -18 15 -21 8 -4 15 -12 15 -20 0 -8 7 -14 15 -14 8 0 15 -7
15 -15 0 -8 7 -15 15 -15 8 0 15 -5 15 -11 0 -21 102 -139 120 -139 6 0 10 -7
10 -15 0 -8 7 -15 15 -15 8 0 15 -7 15 -15 0 -9 7 -18 15 -21 8 -4 15 -12 15
-20 0 -8 7 -14 15 -14 8 0 15 -7 15 -15 0 -8 7 -15 15 -15 8 0 15 -7 15 -15 0
-8 7 -15 15 -15 8 0 15 -7 15 -15 0 -8 7 -15 15 -15 8 0 15 -7 15 -15 0 -8 7
-15 15 -15 8 0 15 -7 15 -15 0 -8 7 -15 15 -15 8 0 15 -6 15 -14 0 -7 16 -30
35 -50 19 -21 35 -39 35 -42 0 -9 298 -304 308 -304 5 0 12 -7 16 -15 3 -8 15
-15 26 -15 11 0 20 -7 20 -15 0 -8 7 -15 15 -15 8 0 15 -7 15 -15 0 -8 9 -15
20 -15 11 0 20 -6 20 -14 0 -8 14 -17 30 -21 17 -4 30 -13 30 -21 0 -8 6 -14
14 -14 8 0 16 -7 20 -15 3 -8 16 -15 30 -15 13 0 26 -7 30 -15 3 -8 17 -15 31
-15 14 0 28 -7 31 -15 4 -10 20 -15 50 -15 32 0 44 -4 44 -15 0 -12 14 -15 69
-15 49 0 72 -4 81 -15 19 -22 2046 -23 2076 0 12 9 42 14 82 15 48 0 62 3 62
15 0 11 12 15 45 15 33 0 45 4 45 15 0 10 10 15 30 15 18 0 33 6 36 15 4 8 12
15 20 15 8 0 14 7 14 15 0 8 4 15 10 15 17 0 50 34 50 52 0 10 7 18 15 18 8 0
15 7 15 15 0 8 7 15 15 15 10 0 15 10 15 30 0 17 5 30 10 30 14 0 14 427 0
435 -5 3 -10 26 -10 51 0 32 -4 44 -15 44 -10 0 -15 10 -15 28 0 16 -7 37 -15
48 -8 10 -15 31 -15 47 0 17 -5 27 -15 27 -9 0 -15 9 -15 24 0 14 -4 28 -10
31 -5 3 -20 28 -32 55 -13 28 -29 50 -35 50 -7 0 -13 10 -13 23 0 12 -9 30
-20 40 -11 9 -20 26 -20 37 0 11 -7 20 -15 20 -8 0 -15 9 -15 20 0 11 -7 20
-15 20 -9 0 -15 9 -15 25 0 14 -7 28 -15 31 -8 4 -15 12 -15 20 0 8 -7 14 -15
14 -9 0 -15 9 -15 25 0 14 -7 28 -15 31 -8 4 -15 13 -15 20 0 8 -7 17 -15 20
-8 4 -15 12 -15 20 0 8 -4 14 -9 14 -5 0 -12 8 -16 19 -7 23 -50 71 -65 71 -5
0 -10 11 -10 25 0 14 -7 28 -15 31 -8 4 -15 12 -15 20 0 8 -7 14 -15 14 -8 0
-15 9 -15 20 0 11 -6 20 -14 20 -8 0 -17 11 -20 25 -4 14 -11 25 -16 25 -6 0
-10 7 -10 15 0 9 -7 18 -15 21 -8 4 -15 12 -15 20 0 8 -7 14 -15 14 -8 0 -15
7 -15 15 0 8 -7 15 -15 15 -9 0 -18 12 -21 30 -4 17 -13 30 -20 30 -8 0 -14 6
-14 14 0 8 -7 16 -15 20 -8 3 -15 12 -15 21 0 8 -7 15 -15 15 -8 0 -15 7 -15
15 0 8 -7 15 -15 15 -8 0 -15 6 -15 14 0 8 -7 16 -15 20 -8 3 -15 12 -15 20 0
9 -13 29 -30 46 -16 17 -30 35 -30 39 0 5 -9 11 -20 14 -11 3 -20 12 -20 21 0
9 -7 16 -15 16 -8 0 -15 7 -15 15 0 8 -7 15 -15 15 -8 0 -15 6 -15 14 0 8 -7
16 -15 20 -8 3 -15 14 -15 24 0 10 -13 29 -30 42 -16 14 -29 31 -30 38 0 6 -7
12 -15 12 -8 0 -15 7 -15 15 0 8 -7 15 -15 15 -8 0 -15 5 -15 11 0 14 -47 59
-61 59 -5 0 -9 7 -9 15 0 8 -6 15 -14 15 -7 0 -17 8 -20 18 -11 31 -32 61 -59
86 -15 14 -27 30 -27 36 0 5 -7 10 -15 10 -8 0 -15 4 -15 9 0 14 -45 61 -59
61 -6 0 -11 7 -11 15 0 8 -7 15 -15 15 -8 0 -15 7 -15 15 0 8 -7 15 -15 15 -8
0 -15 7 -15 15 0 8 -7 15 -15 15 -8 0 -15 7 -15 15 0 8 -7 15 -15 15 -8 0 -15
7 -15 15 0 8 -7 15 -15 15 -8 0 -15 5 -15 10 0 6 -19 30 -42 53 -24 23 -61 65
-83 92 -21 28 -59 69 -82 92 -24 24 -43 47 -43 53 0 5 -7 10 -15 10 -8 0 -15
5 -15 11 0 14 -47 59 -61 59 -5 0 -9 7 -9 15 0 8 -7 15 -15 15 -8 0 -15 7 -15
15 0 8 -7 15 -15 15 -8 0 -15 7 -15 15 0 8 -7 15 -15 15 -8 0 -15 7 -15 15 0
8 -7 15 -15 15 -8 0 -15 7 -15 15 0 8 -7 15 -15 15 -8 0 -15 4 -15 10 0 14
-75 90 -88 90 -7 0 -12 7 -12 15 0 8 -7 15 -15 15 -8 0 -15 7 -15 15 0 8 -7
15 -15 15 -8 0 -15 7 -15 15 0 8 -7 15 -15 15 -8 0 -15 7 -15 15 0 8 -7 15
-15 15 -8 0 -15 7 -15 15 0 8 -7 15 -15 15 -8 0 -15 5 -15 12 0 13 -106 118
-120 118 -6 0 -10 7 -10 15 0 8 -7 15 -15 15 -8 0 -15 7 -15 15 0 8 -7 15 -15
15 -8 0 -15 7 -15 15 0 8 -7 15 -15 15 -8 0 -15 7 -15 15 0 8 -7 15 -15 15 -8
0 -15 6 -15 13 0 7 -13 24 -29 38 -15 14 -31 34 -35 46 -4 12 -13 24 -21 27
-8 3 -15 12 -15 21 0 8 -7 15 -15 15 -8 0 -15 7 -15 15 0 8 -7 15 -15 15 -10
0 -15 10 -15 30 0 20 -5 30 -15 30 -11 0 -15 11 -15 39 0 22 -6 44 -15 51 -11
9 -15 33 -15 91 0 64 3 79 15 79 10 0 15 10 15 34 0 18 7 39 15 46 8 7 15 20
15 30 0 10 7 20 15 24 8 3 15 15 15 26 0 11 6 23 14 26 8 3 18 19 21 35 4 16
12 29 19 29 6 0 20 20 31 45 11 25 26 45 33 45 6 0 12 6 12 14 0 8 7 16 15 20
8 3 15 17 15 31 0 16 6 25 15 25 8 0 15 9 15 20 0 11 7 20 15 20 8 0 15 6 15
14 0 7 7 19 15 26 8 7 15 21 15 31 0 11 6 19 13 19 11 0 57 58 57 73 0 4 13
20 28 35 16 16 32 40 36 55 3 15 11 27 16 27 6 0 10 7 10 15 0 8 7 15 15 15 8
0 15 6 15 14 0 8 7 16 15 20 8 3 15 17 15 31 0 16 6 25 15 25 8 0 15 7 15 15
0 7 6 18 13 22 7 4 18 20 24 36 7 15 17 27 23 27 5 0 10 6 10 14 0 8 7 16 15
20 8 3 15 17 15 31 0 16 6 25 15 25 8 0 15 6 15 14 0 8 7 16 15 20 8 3 15 17
15 31 0 16 6 25 15 25 8 0 15 6 15 14 0 8 7 16 15 20 8 3 15 15 15 26 0 11 4
20 10 20 5 0 12 11 16 25 3 14 12 25 20 25 8 0 14 6 14 13 0 8 9 22 20 32 11
10 20 24 20 30 0 7 7 15 15 19 8 3 15 14 15 25 0 10 7 21 15 25 8 3 15 15 15
26 0 11 7 20 15 20 8 0 15 9 15 20 0 11 4 20 10 20 5 0 12 11 16 25 3 14 12
25 20 25 8 0 14 8 14 19 0 10 7 24 15 31 8 7 15 19 15 26 0 8 7 14 15 14 8 0
15 9 15 20 0 11 9 28 20 37 11 10 20 23 20 30 0 7 7 13 15 13 8 0 15 8 15 19
0 10 7 24 15 31 8 7 15 19 15 26 0 8 7 14 15 14 9 0 15 9 15 25 0 14 7 28 15
31 8 4 15 12 15 19 0 7 7 15 15 19 9 3 15 18 15 36 0 20 5 30 15 30 8 0 15 7
15 15 0 8 7 15 15 15 8 0 15 8 15 18 0 10 14 34 30 52 17 19 33 45 36 57 4 13
10 23 15 23 5 0 19 22 31 50 13 27 29 50 36 50 7 0 12 13 12 30 0 20 5 30 15
30 8 0 15 6 15 14 0 8 7 16 15 20 8 3 15 17 15 31 0 16 6 25 15 25 8 0 15 8
15 18 0 10 9 25 20 35 11 9 20 23 20 31 0 8 7 16 15 20 8 3 15 17 15 31 0 16
6 25 15 25 8 0 15 9 15 19 0 10 7 21 15 25 8 3 15 14 15 25 0 10 7 21 15 25 9
3 15 18 15 36 0 20 5 30 15 30 8 0 15 6 15 14 0 8 7 16 15 20 8 3 15 17 15 31
0 16 6 25 15 25 8 0 15 9 15 20 0 11 9 28 20 37 11 10 20 25 20 34 0 9 7 22
15 29 8 7 15 18 15 25 0 7 7 15 15 19 8 3 15 17 15 31 0 16 6 25 15 25 10 0
15 10 15 30 0 20 5 30 15 30 8 0 15 8 15 19 0 10 7 24 15 31 8 7 15 21 15 31
0 11 7 19 15 19 10 0 15 10 15 30 0 20 5 30 15 30 8 0 15 8 15 18 0 11 9 29
20 42 11 13 20 31 20 40 0 10 7 20 15 24 9 3 15 18 15 36 0 20 5 30 15 30 10
0 15 10 15 30 0 20 5 30 15 30 10 0 15 10 15 30 0 20 5 30 15 30 10 0 15 10
15 30 0 20 5 30 15 30 10 0 15 11 15 35 0 24 5 35 15 35 10 0 15 10 15 30 0
19 5 30 14 30 7 0 16 14 20 31 3 16 13 37 21 45 8 9 15 28 15 44 0 16 7 30 15
34 8 3 15 17 15 31 0 15 7 33 15 41 8 9 15 30 15 49 0 20 6 35 15 39 11 4 15
21 15 60 0 39 4 55 15 60 10 4 15 19 15 49 0 27 6 49 15 57 22 18 22 318 0
326 -9 4 -15 19 -15 35 0 19 -5 29 -15 29 -8 0 -15 9 -15 20 0 26 -88 110
-115 110 -8 0 -15 7 -15 15 0 11 -12 15 -45 15 -33 0 -45 4 -45 15 0 12 -14
15 -64 15 -48 0 -65 4 -70 15 -5 13 -130 15 -1044 15 -912 0 -1041 -2 -1052
-15 -9 -10 -32 -15 -76 -15 -50 0 -64 -3 -64 -15 0 -11 -12 -15 -44 -15 -30 0
-46 -5 -50 -15 -3 -8 -17 -15 -31 -15 -14 0 -28 -7 -31 -15 -4 -8 -12 -15 -20
-15 -8 0 -14 -5 -14 -11 0 -5 -14 -15 -30 -20 -16 -6 -30 -17 -30 -25 0 -8 -7
-14 -15 -14 -8 0 -15 -7 -15 -15 0 -8 -5 -15 -10 -15 -19 0 -90 -80 -90 -100
0 -11 -7 -20 -15 -20 -8 0 -15 -9 -15 -19 0 -10 -7 -21 -15 -25 -8 -3 -15 -17
-15 -31 0 -16 -6 -25 -15 -25 -10 0 -15 -10 -15 -29 0 -16 -6 -31 -15 -35 -10
-3 -15 -19 -15 -46 0 -29 -4 -40 -15 -40 -10 0 -15 -10 -15 -29 0 -16 -6 -31
-14 -34 -8 -3 -17 -19 -21 -35 -3 -17 -13 -33 -21 -36 -8 -3 -14 -15 -14 -26
0 -12 -7 -28 -15 -36 -8 -9 -15 -24 -15 -35 0 -11 -7 -27 -15 -35 -8 -9 -15
-24 -15 -35 0 -11 -7 -27 -15 -35 -8 -9 -15 -29 -15 -45 0 -19 -5 -29 -15 -29
-10 0 -15 -10 -15 -30 0 -20 -5 -30 -15 -30 -10 0 -15 -10 -15 -30 0 -20 -5
-30 -15 -30 -10 0 -15 -11 -15 -35 0 -24 -5 -35 -14 -35 -8 0 -17 -13 -21 -29
-3 -16 -13 -32 -21 -35 -8 -3 -14 -16 -14 -30 0 -13 -7 -26 -15 -30 -8 -3 -15
-16 -15 -30 0 -13 -7 -26 -15 -30 -9 -3 -15 -18 -15 -36 0 -20 -5 -30 -15 -30
-10 0 -15 -10 -15 -30 0 -20 -5 -30 -15 -30 -10 0 -15 -10 -15 -30 0 -20 -5
-30 -15 -30 -8 0 -15 -8 -15 -19 0 -10 -7 -24 -15 -31 -8 -7 -15 -21 -15 -31
0 -11 -5 -19 -11 -19 -5 0 -15 -13 -20 -30 -6 -16 -15 -30 -19 -30 -5 0 -11
-13 -15 -29 -3 -16 -13 -32 -21 -35 -8 -3 -14 -16 -14 -30 0 -13 -7 -26 -15
-30 -8 -3 -15 -16 -15 -30 0 -13 -7 -26 -15 -30 -9 -3 -15 -18 -15 -36 0 -20
-5 -30 -15 -30 -8 0 -15 -6 -15 -14 0 -8 -7 -16 -15 -20 -8 -3 -15 -17 -15
-31 0 -16 -6 -25 -15 -25 -10 0 -15 -10 -15 -30 0 -20 -5 -30 -15 -30 -8 0
-15 -9 -15 -20 0 -11 -9 -29 -20 -40 -11 -11 -20 -24 -20 -30 0 -5 -4 -10 -9
-10 -5 0 -12 -13 -16 -29 -3 -16 -13 -32 -21 -35 -8 -3 -14 -17 -14 -31 0 -16
-6 -25 -15 -25 -8 0 -15 -9 -15 -19 0 -10 -7 -21 -15 -25 -8 -3 -15 -17 -15
-31 0 -16 -6 -25 -15 -25 -10 0 -15 -10 -15 -30 0 -20 -5 -30 -15 -30 -8 0
-15 -7 -15 -15 0 -8 -5 -15 -11 -15 -5 0 -15 -13 -20 -29 -6 -16 -17 -32 -25
-35 -8 -3 -14 -14 -14 -24 0 -11 -7 -25 -15 -32 -8 -7 -15 -19 -15 -26 0 -8
-7 -14 -15 -14 -10 0 -15 -10 -15 -30 0 -20 -5 -30 -15 -30 -8 0 -15 -7 -15
-15 0 -8 -7 -15 -15 -15 -10 0 -15 -10 -15 -30 0 -20 -5 -30 -15 -30 -8 0 -15
-7 -15 -15 0 -9 -7 -18 -15 -21 -8 -4 -15 -15 -15 -27 0 -11 -16 -35 -35 -54
-19 -19 -35 -43 -35 -53 0 -11 -7 -20 -15 -20 -8 0 -15 -6 -15 -14 0 -8 -7
-16 -15 -20 -8 -3 -15 -17 -15 -31 0 -16 -6 -25 -15 -25 -8 0 -15 -6 -15 -14
0 -8 -7 -16 -15 -20 -8 -3 -15 -12 -15 -19 0 -8 -7 -20 -15 -27 -8 -7 -15 -21
-15 -31 0 -11 -7 -19 -15 -19 -8 0 -15 -7 -15 -15 0 -8 -7 -15 -15 -15 -8 0
-15 -7 -15 -15 0 -8 -9 -24 -20 -35 -11 -11 -20 -24 -20 -29 0 -5 -7 -11 -15
-15 -8 -3 -15 -12 -15 -20 0 -7 -7 -16 -15 -20 -8 -3 -15 -17 -15 -31 0 -16
-6 -25 -15 -25 -8 0 -15 -7 -15 -15 0 -8 -7 -15 -15 -15 -8 0 -15 -7 -15 -15
0 -8 -7 -15 -15 -15 -8 0 -15 -6 -15 -14 0 -7 -7 -19 -15 -26 -8 -7 -15 -21
-15 -31 0 -11 -7 -19 -15 -19 -8 0 -15 -3 -15 -7 0 -5 -15 -24 -33 -43 -34
-36 -53 -63 -63 -92 -3 -10 -13 -18 -20 -18 -8 0 -14 -7 -14 -15 0 -8 -7 -15
-15 -15 -8 0 -15 -7 -15 -15 0 -8 -7 -15 -15 -15 -8 0 -15 -6 -15 -14 0 -8 -7
-16 -15 -20 -8 -3 -15 -12 -15 -21 0 -8 -7 -15 -15 -15 -8 0 -15 -4 -15 -10 0
-5 -9 -19 -20 -30 -11 -11 -20 -27 -20 -35 0 -8 -7 -15 -15 -15 -8 0 -15 -7
-15 -15 0 -8 -7 -15 -15 -15 -8 0 -15 -7 -15 -15 0 -8 -7 -15 -15 -15 -8 0
-15 -7 -15 -15 0 -8 -7 -15 -15 -15 -8 0 -15 -7 -15 -15 0 -8 -6 -15 -12 -15
-7 0 -30 -16 -51 -35 -21 -19 -42 -35 -48 -35 -5 0 -9 -7 -9 -15 0 -8 -7 -15
-15 -15 -9 0 -18 -7 -21 -15 -4 -8 -12 -15 -20 -15 -8 0 -14 -7 -14 -15 0 -8
-7 -15 -15 -15 -8 0 -15 -7 -15 -15 0 -8 -7 -15 -15 -15 -8 0 -15 -6 -15 -12
0 -7 -20 -22 -45 -33 -25 -11 -45 -25 -45 -32 0 -7 -6 -13 -13 -13 -7 0 -20
-9 -30 -20 -9 -11 -26 -20 -37 -20 -11 0 -20 -7 -20 -15 0 -10 -10 -15 -30
-15 -20 0 -30 -5 -30 -15 0 -11 -12 -15 -45 -15 -33 0 -45 -4 -45 -15 0 -12
-16 -15 -80 -15 -64 0 -80 3 -80 15 0 8 -7 15 -15 15 -15 0 -85 65 -85 79 0 5
-7 11 -15 15 -8 3 -15 16 -15 30 0 13 -7 26 -15 30 -9 3 -15 18 -15 39 0 19
-7 40 -15 47 -13 11 -15 232 -15 1882 0 1648 -2 1871 -15 1884 -11 11 -15 38
-15 94 0 56 -4 81 -13 87 -8 4 -17 26 -20 48 -4 22 -11 41 -17 43 -5 2 -10 10
-10 18 0 8 -5 14 -10 14 -6 0 -16 12 -23 27 -18 41 -52 73 -76 73 -12 0 -21 6
-21 15 0 9 -9 15 -25 15 -14 0 -28 7 -31 15 -4 10 -21 15 -54 15 -33 0 -50 5
-54 15 -5 13 -182 15 -1511 15 -1331 0 -1505 -2 -1505 -15 0 -11 -12 -15 -50
-15 -38 0 -50 -4 -50 -15 0 -10 -10 -15 -30 -15 -20 0 -30 -5 -30 -15 0 -8 -6
-15 -13 -15 -8 0 -24 -9 -37 -20 -13 -11 -27 -20 -32 -20 -4 0 -8 -4 -8 -10 0
-5 -9 -19 -20 -30 -11 -11 -20 -27 -20 -35 0 -8 -7 -15 -15 -15 -10 0 -15 -10
-15 -29 0 -16 -6 -31 -15 -35 -12 -4 -15 -31 -15 -151 0 -120 3 -147 15 -151
9 -4 15 -19 15 -35 0 -18 5 -29 14 -29 8 0 17 -13 21 -29 3 -16 13 -32 21 -35
8 -3 14 -12 14 -21 0 -8 7 -15 15 -15 8 0 15 -7 15 -15 0 -8 7 -15 15 -15 9 0
15 -9 15 -25 0 -14 7 -28 15 -31 8 -4 15 -12 15 -20 0 -8 7 -14 15 -14 8 0 15
-7 15 -15 0 -8 7 -15 15 -15 8 0 15 -7 15 -15 0 -8 4 -15 9 -15 5 0 14 -13 20
-30 5 -16 15 -30 20 -30 6 0 11 -5 11 -11 0 -7 16 -26 35 -45 19 -18 35 -42
35 -53 0 -12 7 -21 15 -21 8 0 15 -9 15 -19 0 -11 7 -26 15 -35 8 -8 15 -19
15 -24 0 -6 7 -12 15 -16 9 -3 15 -18 15 -36 0 -20 5 -30 15 -30 10 0 15 -10
15 -30 0 -20 5 -30 15 -30 10 0 15 -10 15 -34 0 -19 6 -41 13 -48 8 -7 16 -31
20 -52 3 -22 11 -42 16 -45 5 -3 12 -27 16 -53 5 -31 12 -48 21 -48 10 0 14
-16 14 -60 0 -45 4 -62 15 -66 12 -5 15 -27 15 -110 0 -86 3 -104 15 -104 13
0 15 -170 15 -1469 0 -1296 -2 -1470 -15 -1475 -11 -4 -15 -23 -15 -80 0 -56
-4 -75 -15 -80 -10 -3 -15 -19 -15 -46 0 -29 -4 -40 -15 -40 -8 0 -15 -5 -15
-11 0 -14 -47 -59 -61 -59 -5 0 -9 -7 -9 -15 0 -13 -21 -15 -125 -15 -104 0
-125 2 -125 15 0 10 -10 15 -30 15 -20 0 -30 5 -30 15 0 8 -9 15 -20 15 -11 0
-28 9 -37 20 -10 11 -23 20 -29 20 -7 0 -14 7 -18 15 -3 8 -15 15 -26 15 -11
0 -23 7 -26 15 -4 8 -12 15 -20 15 -8 0 -14 7 -14 15 0 8 -7 15 -15 15 -8 0
-15 7 -15 15 0 8 -7 15 -15 15 -8 0 -15 7 -15 15 0 8 -5 15 -10 15 -6 0 -24
13 -40 30 -16 17 -34 30 -40 30 -5 0 -10 5 -10 10 0 6 -13 24 -30 40 -16 16
-30 34 -30 40 0 5 -7 10 -15 10 -8 0 -15 7 -15 15 0 8 -7 15 -15 15 -8 0 -15
7 -15 15 0 8 -7 15 -15 15 -8 0 -15 7 -15 15 0 8 -7 15 -15 15 -8 0 -15 7 -15
15 0 8 -7 15 -15 15 -8 0 -15 7 -15 15 0 8 -8 23 -18 33 -10 10 -21 26 -25 35
-3 9 -11 17 -17 17 -5 0 -10 7 -10 15 0 8 -7 15 -15 15 -8 0 -15 7 -15 15 0 8
-7 15 -15 15 -8 0 -15 7 -15 15 0 8 -4 15 -9 15 -5 0 -14 14 -20 30 -5 17 -15
30 -20 30 -6 0 -11 7 -11 15 0 8 -7 15 -15 15 -8 0 -15 7 -15 15 0 9 -6 18
-14 21 -8 3 -17 16 -20 30 -7 26 -40 64 -56 64 -5 0 -10 9 -10 20 0 11 -7 23
-15 26 -8 4 -15 15 -15 25 0 10 -7 19 -15 19 -8 0 -15 6 -15 14 0 8 -7 16 -15
20 -8 3 -15 16 -15 30 0 13 -7 26 -15 30 -8 3 -15 12 -15 21 0 8 -7 15 -15 15
-9 0 -15 9 -15 25 0 14 -7 28 -15 31 -8 4 -15 12 -15 20 0 8 -6 14 -14 14 -8
0 -17 14 -21 30 -4 17 -13 30 -21 30 -8 0 -14 9 -14 20 0 11 -7 20 -15 20 -9
0 -15 9 -15 25 0 14 -7 28 -15 31 -8 4 -15 12 -15 19 0 7 -7 18 -15 25 -8 7
-15 21 -15 31 0 11 -7 19 -15 19 -9 0 -15 9 -15 25 0 14 -7 28 -15 31 -8 4
-15 13 -15 20 0 8 -7 17 -15 20 -8 4 -15 14 -15 24 0 9 -9 27 -20 40 -11 13
-20 29 -20 35 0 7 -7 15 -15 19 -8 3 -15 12 -15 21 0 8 -7 15 -15 15 -10 0
-15 10 -15 30 0 20 -5 30 -15 30 -10 0 -15 10 -15 29 0 16 -6 31 -15 35 -8 3
-15 12 -15 19 0 8 -7 20 -15 27 -8 7 -15 21 -15 31 0 11 -7 19 -15 19 -10 0
-15 10 -15 30 0 20 -5 30 -15 30 -8 0 -15 9 -15 19 0 11 -7 26 -15 34 -7 8
-17 26 -21 41 -3 14 -10 26 -16 26 -5 0 -14 14 -19 30 -6 17 -15 30 -20 30 -5
0 -9 9 -9 20 0 11 -7 20 -15 20 -10 0 -15 10 -15 30 0 20 -5 30 -15 30 -10 0
-15 10 -15 30 0 18 -6 33 -15 36 -8 4 -15 17 -15 30 0 14 -7 27 -15 30 -8 4
-15 17 -15 30 0 14 -7 27 -15 30 -8 4 -15 17 -15 30 0 14 -6 27 -14 30 -8 3
-18 19 -21 36 -4 16 -13 32 -21 35 -8 3 -14 18 -14 34 0 19 -5 29 -15 29 -10
0 -15 10 -15 30 0 20 -5 30 -15 30 -10 0 -15 10 -15 30 0 20 -5 30 -15 30 -10
0 -15 10 -15 30 0 18 -6 33 -15 36 -9 4 -15 19 -15 35 0 19 -5 29 -15 29 -10
0 -15 10 -15 30 0 20 -5 30 -15 30 -10 0 -15 10 -15 29 0 16 -6 31 -15 35 -8
3 -15 14 -15 24 0 11 -9 31 -20 45 -11 14 -20 36 -20 50 0 14 -7 27 -15 31 -9
3 -15 18 -15 36 0 20 -5 30 -15 30 -10 0 -15 10 -15 30 0 18 -6 33 -15 36 -8
4 -15 18 -15 34 0 16 -7 30 -15 34 -9 3 -15 19 -15 41 0 22 -6 38 -15 41 -9 4
-15 19 -15 35 0 19 -5 29 -15 29 -10 0 -15 10 -15 30 0 17 -6 33 -14 36 -7 3
-17 23 -20 45 -3 22 -13 42 -21 45 -9 4 -15 19 -15 35 0 19 -5 29 -15 29 -11
0 -15 12 -15 45 0 33 -4 45 -15 45 -10 0 -15 11 -15 35 0 24 -5 35 -15 35 -11
0 -15 11 -15 40 0 27 -5 43 -15 46 -9 4 -15 19 -15 35 0 17 -6 32 -15 35 -10
4 -15 20 -15 45 0 26 -5 42 -15 45 -8 4 -15 18 -15 33 0 15 -7 36 -15 47 -8
10 -15 29 -15 41 0 13 -9 28 -20 35 -15 10 -20 24 -20 55 0 32 -4 43 -15 43
-11 0 -15 12 -15 45 0 33 -4 45 -15 45 -10 0 -15 11 -15 35 0 24 -5 35 -15 35
-11 0 -15 11 -15 40 0 27 -5 43 -15 46 -9 4 -15 19 -15 35 0 19 -5 29 -15 29
-10 0 -15 10 -15 29 0 16 -6 31 -15 35 -8 3 -15 17 -15 31 0 14 -6 28 -14 31
-8 3 -16 18 -20 35 -3 17 -12 29 -21 29 -8 0 -15 6 -15 14 0 7 -7 19 -15 26
-8 7 -15 21 -15 31 0 11 -7 19 -15 19 -8 0 -15 7 -15 15 0 8 -7 15 -15 15 -8
0 -15 6 -15 13 0 13 -59 57 -77 57 -6 0 -13 7 -17 15 -3 8 -14 15 -25 15 -11
0 -26 7 -35 15 -8 8 -26 15 -40 15 -16 0 -26 6 -26 15 0 12 -15 15 -75 15 -58
0 -77 4 -81 15 -5 13 -131 15 -1044 15 -913 0 -1039 -2 -1044 -15z"/>
</g>
</svg>
